<svg xmlns="http://www.w3.org/2000/svg" width="134.639" height="143.463" viewBox="0 0 134.639 143.463">
  <defs>
    <style>.avg1{fill:#86025b;}.avg2{fill:#60034a;}.avg3{fill:#910369;}.avg4{fill:#f73ca8;}.avg5{fill:#fff;}</style>
  </defs>
  <g transform="translate(0.018 0.001)">
    <g transform="translate(-0.018 -0.001)">
      <path class="avg1" d="M226.088,169.489C219.5,146.642,202.7,126,178.517,121.949c-13.915-2.328-29.3.537-38.927,11.587-11.584,13.308-7.131,29.942.149,44.138,3.651,7.12,7.406,14.262,9.641,21.982,2.184,7.547,3.2,15.617,9.595,21,8.84,7.45,22.613,9.85,33.817,8.968,31.52-2.48,41.545-32.456,33.3-60.139Z" transform="translate(-110.796 -101.356)" />
      <path class="avg2" d="M191.651,45.128c-.724-.964.242-3.377,0-4.824-.481-3.137-2.652-4.824-5.065-6.272-4.584-3.135-7.719-10.372.242-11.577,7.237-.967,7.719,4.58,7.478,10.13,0,2.411-.241,4.341,1.445,6.754.966,1.447,5.067,3.135,5.309,4.824.241,2.652-3.62,4.1-5.548,3.86-2.171-.241-3.377-1.932-4.343-3.86Z" transform="translate(-152.155 -18.686)" />
      <path class="avg3" d="M348.553,22.71c-.154-1.2,1.881-2.814,2.388-4.189,1.134-2.965.083-5.505-1.3-7.958-2.426-5-1.565-12.834,5.947-9.94,6.764,2.745,4.436,7.8,1.473,12.5-1.193,2.1-2.359,3.654-2.087,6.586.123,1.735,2.848,5.239,2.223,6.82-1.1,2.424-5.173,1.77-6.732.6-1.768-1.282-1.978-3.348-1.861-5.5Z" transform="translate(-291.391 0.001)" />
      <path class="avg3" d="M22.611,276.571c-1.2.128-2.783-1.94-4.142-2.472-2.947-1.193-5.5-.2-7.982,1.136-5.044,2.326-12.864,1.31-9.822-6.145,2.878-6.712,7.891-4.279,12.53-1.228,2.071,1.239,3.6,2.434,6.548,2.221,1.739-.088,5.291-2.742,6.876-2.082,2.4,1.146,1.665,5.207.467,6.74-1.319,1.74-3.389,1.91-5.538,1.752Z" transform="translate(0.018 -221.452)" />
      <path class="avg3" d="M81.362,156.057c-.923-.306-1.4-2.357-2.233-3.207-1.773-1.861-4-1.974-6.273-1.811-4.5.041-9.935-3.317-5.206-7.805,4.359-4,7.252-.534,9.659,3.266,1.12,1.6,1.853,3,4.093,3.816,1.31.516,4.821-.264,5.764.747,1.39,1.65-.5,4.4-1.9,5.137-1.555.846-3.138.282-4.674-.553Z" transform="translate(-55.045 -118.298)" />
      <path class="avg3" d="M550.98,152.369c.634-.738,2.711-.395,3.816-.84,2.4-.925,3.356-2.937,4.078-5.1,1.683-4.173,6.864-7.912,9.2-1.825,2.027,5.558-2.279,6.905-6.712,7.681-1.91.421-3.479.565-5.091,2.323-.982,1.015-1.6,4.553-2.9,5.039-2.056.655-3.872-2.149-4.021-3.719-.187-1.758.941-3.007,2.292-4.106Z" transform="translate(-459.404 -118.258)" />
      <path class="avg2" d="M482.443,69.4c.209-.95,2.2-1.637,2.965-2.544,1.673-1.951,1.563-4.178,1.177-6.425-.491-4.472,2.292-10.218,7.241-5.965,4.42,3.929,1.262,7.162-2.274,9.943-1.483,1.275-2.8,2.145-3.387,4.456-.378,1.359.751,4.77-.164,5.812-1.5,1.55-4.43-.059-5.3-1.372-1-1.46-.6-3.094.079-4.7Z" transform="translate(-403.173 -44.299)" />
      <path class="avg3" d="M86.848,378.085c-.784.576-2.732-.221-3.908-.034-2.544.367-3.929,2.112-5.116,4.06-2.572,3.692-8.457,6.18-9.379-.275-.733-5.87,3.765-6.221,8.257-5.988,1.964.015,3.516.224,5.484-1.128,1.18-.769,2.577-4.081,3.947-4.266,2.149-.177,3.294,2.961,3.089,4.522-.213,1.758-1.59,2.724-3.16,3.49Z" transform="translate(-57.172 -309.802)" />
      <path class="avg2" d="M99.2,479.325a5.341,5.341,0,0,1,1.473.039h.029c.174.025.344.044.516.07a5.855,5.855,0,0,0,4.22-1.131c.059-.054.126-.1.18-.155l.039-.043a4.256,4.256,0,0,0,1.287-2.59c.26-1.927-1.161-5.8-3.816-5.566-1.689.229-3.41,4.315-4.865,5.271-2.421,1.668-4.351,1.414-6.763,1.4-5.548-.282-11.1.164-10.186,7.4,1.146,7.968,8.406,4.887,11.579.327C94.356,481.941,96.058,479.785,99.2,479.325Z" transform="translate(-67.916 -393.008)" />
      <path class="avg2" d="M187.732,678.935a5.4,5.4,0,0,1,1.4-.434h.029c.164-.033.339-.069.512-.1a5.848,5.848,0,0,0,3.629-2.429c.041-.07.088-.136.121-.206.008-.016.015-.034.025-.052a4.257,4.257,0,0,0,.39-2.867c-.377-1.907-2.963-5.116-5.4-4.05-1.527.76-1.84,5.185-2.909,6.548-1.755,2.361-3.664,2.742-5.954,3.5-5.343,1.519-10.456,3.724-7.262,10.286,3.651,7.175,9.531,1.922,11.068-3.415C183.988,682.974,184.906,680.381,187.732,678.935Z" transform="translate(-143.273 -559.136)" />
      <path class="avg3" d="M554.042,731.979a5.345,5.345,0,0,1-.128-1.462h0v-.025c0-.173,0-.347.011-.521a5.852,5.852,0,0,0-1.6-4.065c-.059-.054-.113-.113-.175-.164-.013-.013-.029-.021-.044-.034a4.257,4.257,0,0,0-2.719-.992c-1.943-.038-5.627,1.81-5.108,4.42.421,1.654,4.675,2.9,5.79,4.235,1.933,2.218,1.9,4.163,2.154,6.561.349,5.545,1.419,11.009,8.513,9.281,7.786-2.043,3.9-8.906-.982-11.54C557.19,736.5,554.854,735.047,554.042,731.979Z" transform="translate(-455.132 -606.077)" />
      <path class="avg3" d="M663.212,572.827a5.4,5.4,0,0,1-.982-1.094h0l-.018-.023c-.1-.141-.2-.278-.3-.426a5.851,5.851,0,0,0-3.721-2.279c-.082,0-.164-.023-.239-.023h-.059a4.256,4.256,0,0,0-2.765.845c-1.577,1.146-3.408,4.829-1.421,6.6,1.329,1.071,5.479-.491,7.17-.1,2.88.611,4.022,2.185,5.671,3.947,3.613,4.219,7.753,7.941,12.378,2.292,4.993-6.314-2.238-9.462-7.727-8.626C668.444,574.547,665.709,574.788,663.212,572.827Z" transform="translate(-545.959 -475.833)" />
      <path class="avg3" d="M174.621,586.628a3.8,3.8,0,0,1,.982-.185h.021l.355-.028a3.967,3.967,0,0,0,2.632-1.365c.031-.043.067-.085.1-.131l.02-.031a2.907,2.907,0,0,0,.48-1.9c-.11-1.31-1.614-3.675-3.341-3.14-1.087.4-1.637,3.359-2.456,4.2-1.362,1.46-2.68,1.573-4.279,1.912-3.719.62-7.336,1.725-5.674,6.385,1.92,5.116,6.283,2.014,7.722-1.473C171.793,589.07,172.606,587.392,174.621,586.628Z" transform="translate(-136.349 -484.855)" />
      <path class="avg2" d="M452.912,765.356a3.727,3.727,0,0,1,.211-.971h0a.036.036,0,0,0,0-.02c.039-.111.077-.224.111-.327a3.946,3.946,0,0,0-.223-2.958c-.026-.044-.051-.094-.08-.141a.176.176,0,0,1-.023-.03,2.905,2.905,0,0,0-1.565-1.187c-1.252-.416-4.012.044-4.2,1.845-.059,1.156,2.456,2.817,2.907,3.909.809,1.824.395,3.081.08,4.685-.886,3.665-1.285,7.422,3.657,7.724,5.461.239,4.317-4.995,1.673-7.683C454.05,768.915,452.824,767.507,452.912,765.356Z" transform="translate(-373.941 -635.233)" />
      <path class="avg3" d="M678.494,390.627a3.764,3.764,0,0,1-.922-.373h0a.036.036,0,0,0-.018,0c-.1-.061-.206-.113-.313-.164a3.943,3.943,0,0,0-2.947-.288c-.049.018-.1.036-.151.057a.216.216,0,0,1-.034.016,2.881,2.881,0,0,0-1.437,1.339c-.625,1.162-.645,3.96,1.1,4.451,1.128.257,3.2-1.933,4.35-2.192,1.935-.491,3.1.138,4.63.724,3.461,1.5,7.093,2.537,8.236-2.277,1.172-5.34-4.179-5.111-7.28-2.966C682.2,390.116,680.6,391.084,678.494,390.627Z" transform="translate(-562.226 -324.092)" />
      <path class="avg2" d="M685.8,484.423a3.739,3.739,0,0,1-.872-.476h0s-.008-.01-.016-.01c-.095-.07-.193-.137-.292-.2a3.957,3.957,0,0,0-2.9-.627l-.164.039-.036.015a2.885,2.885,0,0,0-1.581,1.162c-.755,1.085-1.1,3.862.576,4.549,1.092.383,3.4-1.552,4.574-1.676,1.978-.259,3.066.491,4.515,1.249,3.266,1.886,6.756,3.335,8.444-1.319,1.778-5.168-3.565-5.555-6.89-3.782C689.537,484.342,687.84,485.118,685.8,484.423Z" transform="translate(-568.105 -403.418)" />
      <path class="avg2" d="M645.794,678.795a3.812,3.812,0,0,1-.414-.9h0a.034.034,0,0,0-.01-.02c-.036-.115-.074-.223-.113-.337a3.94,3.94,0,0,0-1.964-2.226c-.049-.021-.1-.044-.149-.064a.1.1,0,0,1-.034-.011,2.9,2.9,0,0,0-1.965,0c-1.252.421-3.179,2.456-2.243,4,.655.959,3.656.776,4.672,1.375,1.742.967,2.171,2.22,2.884,3.692,1.5,3.459,3.438,6.7,7.568,3.968,4.505-3.1.442-6.588-3.287-7.141C648.846,680.946,647.022,680.568,645.794,678.795Z" transform="translate(-534.1 -564.551)" />
      <path class="avg3" d="M337.067,748.742a3.659,3.659,0,0,1,.581-.805h0a.073.073,0,0,0,.011-.015c.082-.088.164-.175.236-.265a3.961,3.961,0,0,0,.982-2.8.953.953,0,0,0-.021-.164.128.128,0,0,1,0-.036,2.878,2.878,0,0,0-.961-1.714c-.982-.881-3.7-1.562-4.584.013-.516,1.035,1.121,3.564,1.1,4.747.013,1.994-.866,2.983-1.8,4.327-2.276,3.006-4.145,6.291.267,8.544,4.911,2.4,5.951-2.853,4.6-6.375C336.686,752.462,336.126,750.689,337.067,748.742Z" transform="translate(-276.145 -620.543)" />
      <path class="avg2" d="M661.34,265.444c-.751-8.022-8.154-5.3-11.546-.9-1.581,2.329-3.389,4.4-6.548,4.7a8.8,8.8,0,0,1-2.379-.288h0a4.374,4.374,0,0,0-2.783.241,4.9,4.9,0,0,0-2.763,3.462c-.35,1.914.874,5.849,3.536,5.758,1.7-.144,3.62-4.143,5.121-5.026,2.5-1.547,4.42-1.2,6.825-1.061C656.327,272.891,661.9,272.722,661.34,265.444Z" transform="translate(-531.263 -217.697)" />
      <path class="avg4" d="M389.63,188.691a7.823,7.823,0,1,1-2.6,10.757A7.823,7.823,0,0,1,389.63,188.691Z" transform="translate(-322.709 -156.842)" />
      <path class="avg4" d="M391.909,459.484a6.108,6.108,0,1,1-2.03,8.4A6.108,6.108,0,0,1,391.909,459.484Z" transform="translate(-325.302 -383.515)" />
      <path class="avg4" d="M298.855,355.527a7.823,7.823,0,1,1-2.6,10.754,7.824,7.824,0,0,1,2.6-10.754Z" transform="translate(-246.794 -296.365)" />
      <path class="avg4" d="M211.708,279.036a6.119,6.119,0,1,1-2.762,3.787A6.124,6.124,0,0,1,211.708,279.036Z" transform="translate(-174.595 -232.604)" />
      <path class="avg4" d="M433.773,388.3a4.078,4.078,0,1,1-1.355,5.607A4.078,4.078,0,0,1,433.773,388.3Z" transform="translate(-361.126 -324.231)" />
      <path class="avg4" d="M465.779,303.293a4.728,4.728,0,1,1-1.57,6.5A4.728,4.728,0,0,1,465.779,303.293Z" transform="translate(-387.633 -253.061)" />
      <path class="avg4" d="M282.139,197.525a4.729,4.729,0,1,1-1.572,6.5A4.729,4.729,0,0,1,282.139,197.525Z" transform="translate(-234.054 -164.609)" />
      <path class="avg4" d="M492.358,507.645a4.728,4.728,0,1,1-1.57,6.5A4.728,4.728,0,0,1,492.358,507.645Z" transform="translate(-409.861 -423.96)" />
      <path class="avg4" d="M379.245,564.346a4.726,4.726,0,1,1-1.572,6.5A4.726,4.726,0,0,1,379.245,564.346Z" transform="translate(-315.263 -471.381)" />
      <path class="avg4" d="M399.869,319.7a2.878,2.878,0,1,1-.956,3.95A2.878,2.878,0,0,1,399.869,319.7Z" transform="translate(-333.255 -267.013)" />
      <path class="avg4" d="M523.956,429.84a2.878,2.878,0,1,1-1.3,1.781A2.879,2.879,0,0,1,523.956,429.84Z" transform="translate(-437.026 -359.12)" />
      <path class="avg4" d="M536.006,360.117a1.82,1.82,0,1,1-.6,2.5A1.82,1.82,0,0,1,536.006,360.117Z" transform="translate(-447.529 -300.941)" />
      <path class="avg4" d="M521.822,604.575A1.817,1.817,0,1,1,521,605.7,1.82,1.82,0,0,1,521.822,604.575Z" transform="translate(-435.664 -505.379)" />
      <path class="avg4" d="M335.156,277.976a2.878,2.878,0,1,1-1.3,1.781A2.88,2.88,0,0,1,335.156,277.976Z" transform="translate(-279.132 -232.117)" />
      <path class="avg4" d="M304.217,491.716a2.88,2.88,0,1,1-.958,3.96A2.88,2.88,0,0,1,304.217,491.716Z" transform="translate(-253.258 -410.867)" />
      <path class="avg4" d="M225.2,426.374a2.88,2.88,0,1,1-.954,3.957,2.88,2.88,0,0,1,.954-3.957Z" transform="translate(-187.182 -356.22)" />
      <path class="avg4" d="M484.966,655.047a2.88,2.88,0,1,1-.954,3.958A2.88,2.88,0,0,1,484.966,655.047Z" transform="translate(-404.42 -547.458)" />
      <path class="avg4" d="M516.1,251.731a1.537,1.537,0,1,1-.7.952A1.539,1.539,0,0,1,516.1,251.731Z" transform="translate(-430.987 -210.333)" />
      <path class="avg4" d="M463.889,605.291a1.539,1.539,0,1,1-.7.952A1.539,1.539,0,0,1,463.889,605.291Z" transform="translate(-387.327 -506.014)" />
      <path class="avg4" d="M347.1,154.009a1.536,1.536,0,1,1-.7.951A1.539,1.539,0,0,1,347.1,154.009Z" transform="translate(-289.654 -128.608)" />
      <path class="avg4" d="M592.059,576.934a6.108,6.108,0,1,1-2.03,8.4A6.108,6.108,0,0,1,592.059,576.934Z" transform="translate(-492.687 -481.738)" />
      <path class="avg4" d="M581.533,357.932a4.728,4.728,0,1,1-1.573,6.5A4.728,4.728,0,0,1,581.533,357.932Z" transform="translate(-484.435 -298.758)" />
      <path class="avg4" d="M581.521,467.722a4.729,4.729,0,1,1-1.572,6.506A4.729,4.729,0,0,1,581.521,467.722Z" transform="translate(-484.424 -390.574)" />
      <path class="avg4" d="M558.016,283.586a2.878,2.878,0,1,1-1.3,1.781A2.88,2.88,0,0,1,558.016,283.586Z" transform="translate(-465.508 -236.809)" />
      <path class="avg4" d="M382.276,690.323a2.88,2.88,0,1,1-.956,3.96A2.88,2.88,0,0,1,382.276,690.323Z" transform="translate(-318.54 -576.96)" />
      <path class="avg4" d="M558.013,701.3a2.88,2.88,0,1,1-.956,3.96A2.88,2.88,0,0,1,558.013,701.3Z" transform="translate(-465.507 -586.142)" />
      <path class="avg5" d="M275.574,308.545a7.378,7.378,0,0,0-.327-.735c-2.012,2.536-5.17,3.965-8.036,5.293-3.633,1.68-7.2,3.313-10.313,5.893-4.291,3.572-5.784,11.322-.247,14.679,5.16,3.127,11.266-1.056,14.511-5.034C275.412,323.447,278.344,315.092,275.574,308.545Z" transform="translate(-211.629 -257.42)" />
      <path d="M306.42,388.39a4.23,4.23,0,1,1,4.23,4.23A4.23,4.23,0,0,1,306.42,388.39Z" transform="translate(-256.255 -321.271)" />
      <path class="avg5" d="M312.56,384.581a1.619,1.619,0,1,1,.474,1.146A1.621,1.621,0,0,1,312.56,384.581Z" transform="translate(-261.389 -320.267)" />
      <path class="avg5" d="M311.45,407.04a.728.728,0,1,1,.727.727.728.728,0,0,1-.727-.727Z" transform="translate(-260.461 -339.795)" />
      <path class="avg5" d="M456.15,318.041c-5.239-4.032-13.039-5.2-17.343-10.341-4.6,9.138,2.312,23.714,12,26.543,4.533,1.323,9.722-1.193,10.033-6.273a12.468,12.468,0,0,0-4.695-9.929C454.292,316.61,457.138,318.881,456.15,318.041Z" transform="translate(-365.75 -257.328)" />
      <path d="M474.14,388.4a4.23,4.23,0,1,1,1.238,3A4.232,4.232,0,0,1,474.14,388.4Z" transform="translate(-396.518 -321.279)" />
      <path class="avg5" d="M480,407.074a.725.725,0,1,1,.212.514A.725.725,0,0,1,480,407.074Z" transform="translate(-401.419 -339.828)" />
      <path class="avg5" d="M480,384.581a1.619,1.619,0,1,1,.474,1.146A1.621,1.621,0,0,1,480,384.581Z" transform="translate(-401.419 -320.267)" />
      <path class="avg5" d="M355.32,484.31c2.251,9.284,16.043,4.784,21.1.843h0C375.015,502.034,356.165,502.316,355.32,484.31Z" transform="translate(-297.149 -405.026)" />
    </g>
  </g>
</svg>
