<svg xmlns="http://www.w3.org/2000/svg" width="137.753" height="137.8" viewBox="0 0 137.753 137.8">
  <defs>
    <style>.bad1{fill:#f2850c;}.bad2{opacity:0.2;}.bad3{fill:#fff;}.bad4{fill:#006870;opacity:0.04;}.bad5{fill:#ef4011;}.bad6{fill:#ffdce7;}.bad7{fill:#330505;}</style>
  </defs>
  <g transform="translate(0.001 0.001)">
    <g transform="translate(-0.001 -0.001)">
      <g transform="translate(0)">
        <path class="bad1" d="M137.466,79.516c.017-.024.039-.045.056-.067s.082-.1.12-.153l.047-.06c.041-.056.082-.11.12-.166l.039-.056c.041-.058.08-.118.118-.178l.03-.045c.041-.064.08-.129.116-.2,0-.011.015-.024.024-.037.039-.069.077-.138.114-.215l.015-.026c.039-.075.077-.151.114-.228v-.013c.039-.082.075-.163.112-.245h0a11.66,11.66,0,0,0,.843-4.3h0c.028-.985.03-1.976.015-2.969a.382.382,0,0,1,0-.049c-.013-.729-.034-1.462-.064-2.2-.09-2.268-.247-4.539-.387-6.777-.013-.2-.028-.4-.045-.6V60.9c-.013-.144-.026-.29-.043-.43a11.438,11.438,0,0,0-2.739-6.9q-.107-.112-.215-.215a7.459,7.459,0,0,0-.731-.608c-.907-.667-1.565-.475-2.049.114a.288.288,0,0,0-.024.03c-.032.039-.062.08-.092.123l-.037.054a2.4,2.4,0,0,0-.127.215c-.017.028-.032.058-.049.088s-.064.123-.095.189-.045.1-.067.146-.021.054-.034.08c-.064.157-.125.32-.181.488-.021.062-.041.125-.06.187s-.039.125-.056.187a.337.337,0,0,1-.017.062c-.041.142-.08.288-.114.43a.3.3,0,0,0,0,.047c-.2.808-.312,1.6-.4,2.062-.013.069-.028.138-.041.215a.618.618,0,0,0-.015.06c-.011.049-.021.1-.034.146s0,.047-.017.071l-.039.142a.092.092,0,0,1-.017.064l-.052.174a.2.2,0,0,0,0,.028l-.069.215-.013.032c-.019.058-.041.114-.062.172l-.019.047-.064.159-.017.043c-.026.062-.054.125-.082.187h0c-.062.138-.131.275-.2.408h0l-.107.2h0a6.881,6.881,0,0,1-3.44,3.068,4.945,4.945,0,0,1-2.984.189h-.017c-.088-.021-.174-.047-.262-.075h-.015c-.088-.028-.174-.058-.262-.09l-.045-.017c-.082-.03-.163-.064-.245-.1h-.017l-.254-.12-.058-.03c-.086-.045-.17-.09-.256-.14a1.52,1.52,0,0,0-.168-.084.58.58,0,0,0-.4-.052.215.215,0,0,0-.045.019q-.215-1.266-.484-2.518a47.883,47.883,0,0,0-3.522-10.2l-.277-.574c-.183-.372-.37-.74-.561-1.107l-.273-.514c-.105-.2-.215-.393-.323-.589q-.43-.77-.877-1.522-.284-.473-.576-.942a26,26,0,0,1,3.793-1.309,9.828,9.828,0,0,1,5.912,1.109,6.167,6.167,0,0,1,1.006.83l.14.133.112.107a25.9,25.9,0,0,0,2.707,2.419l.1.073c.084.056.168.112.252.163a1.8,1.8,0,0,0,1.815.329,1.165,1.165,0,0,0,.348-.316c.065-.086.125-.17.181-.256.017-.024.034-.049.049-.075q.062-.09.116-.181c.021-.034.041-.069.06-.1s.06-.1.088-.155.041-.08.062-.12.049-.092.071-.138.041-.088.06-.133.041-.086.06-.129l.056-.142.049-.123.052-.15.039-.114c.017-.054.03-.107.047-.159s.019-.071.03-.107.028-.112.041-.17.015-.065.024-.1.024-.12.034-.181.011-.058.015-.088.019-.127.028-.189l.013-.08.019-.2v-.069a1.841,1.841,0,0,1,.013-.215v-.553a.165.165,0,0,1,0-.032,1.412,1.412,0,0,0-.015-.252v-.017a1.367,1.367,0,0,0-.026-.264h0a11.753,11.753,0,0,0-1.421-4.145h0c-.105-.2-.215-.393-.322-.591l-.082-.146c-.275-.494-.559-.985-.849-1.475-.329-.557-.666-1.114-1.01-1.664l-.4-.645c-1.208-1.911-2.475-3.79-3.711-5.65a21.7,21.7,0,0,0-1.29-1.757c-.064-.082-.131-.161-.2-.241a10.3,10.3,0,0,0-5.037-3.524,7.776,7.776,0,0,0-1.159-.215c-.963-.105-1.449.249-1.645.83a.6.6,0,0,0-.021.067,1.835,1.835,0,0,0-.058.275c0,.047-.013.095-.017.142a2.384,2.384,0,0,1-.013.245,13.476,13.476,0,0,0,1.051,4.042c.024.065.045.133.067.2l.019.06c.015.047.03.095.043.144a.642.642,0,0,1,.021.069l.039.144a.373.373,0,0,0,.015.062c.015.06.03.12.043.181v.026c.015.071.03.142.043.215v.032c.011.06.021.12.03.181a.428.428,0,0,0,0,.052,1.115,1.115,0,0,0,.024.17v.047c0,.067.015.135.021.2h0c.015.153.026.3.03.456h0v.215h0a6.944,6.944,0,0,1-1.438,4.373,4.945,4.945,0,0,1-2.49,1.658h-.017c-.086.024-.174.047-.264.067h-.015c-.09.019-.181.037-.273.052h-.047c-.086.013-.172.026-.262.034h-.019c-.092.011-.185.017-.28.024h-.357a.727.727,0,0,0-.559.166.484.484,0,0,0-.112.335v.039q-1.5-1.765-3.141-3.408h0a58.352,58.352,0,0,0-11.724-9.03,31.3,31.3,0,0,1,2.365-2.776l.052-.052a2.713,2.713,0,0,1,.215-.2,10.017,10.017,0,0,1,1.621-1,9.6,9.6,0,0,1,4.055-1,5.708,5.708,0,0,1,1.189.191l.06.015.2.047a20.579,20.579,0,0,0,4.341.815c.922,0,1.6-.277,1.7-1.075h0c.013-.1.022-.215.028-.305v-.894a.5.5,0,0,0-.015-.148l-.013-.138a.964.964,0,0,0-.024-.155c-.009-.052-.011-.084-.017-.127l-.032-.159a.551.551,0,0,0-.021-.116l-.041-.163-.026-.105c-.015-.056-.032-.112-.049-.168s-.019-.064-.028-.095-.041-.116-.06-.174l-.03-.084-.071-.181c-.011-.024-.019-.047-.03-.073-.026-.062-.054-.123-.082-.185-.011-.019-.019-.041-.028-.06l-.1-.191-.026-.049c-.034-.067-.071-.133-.108-.2a.35.35,0,0,1-.021-.039c-.041-.069-.082-.138-.125-.215l-.015-.026c-.045-.071-.092-.142-.14-.215v-.015l-.155-.215h0a11.675,11.675,0,0,0-3.3-2.879h0c-1.9-1.157-3.9-2.23-5.91-3.259-1.563-.8-3.139-1.572-4.691-2.341-.486-.243-.985-.473-1.494-.682A11.062,11.062,0,0,0,88.483,6a7.65,7.65,0,0,0-1.262.43c-.765.338-1.053.791-1.038,1.29.037,1.4,2.365,3.176,3.225,3.9l.159.14.045.041.112.105.049.049.107.105.043.045c.045.045.086.09.129.135l.017.019c.049.054.1.108.144.163l.022.024.118.142.032.041.105.135.028.037c.041.054.082.11.12.166h0c.088.125.172.252.254.381h0c.041.062.08.127.118.193h0a6.9,6.9,0,0,1,.94,4.515,4.932,4.932,0,0,1-1.329,2.681h-.013c-.062.067-.127.129-.2.191H90.4c-.067.062-.138.123-.215.183l-.039.03c-.067.054-.138.107-.215.161l-.017.013c-.073.054-.15.105-.23.159l-.056.034c-.08.052-.161.1-.247.153a1.14,1.14,0,0,0-.282.215.471.471,0,0,0-.1.144,55.3,55.3,0,0,0-18.834-4.253c.153-.907.333-1.752.456-2.227a3.655,3.655,0,0,1,.108-.355,9.834,9.834,0,0,1,.905-1.673,9.675,9.675,0,0,1,3.01-2.9,9,9,0,0,1,1.72-.6l.2-.058.082-.021a16.693,16.693,0,0,0,3.511-1.271c.658-.381,1.088-.832,1.058-1.387a1.077,1.077,0,0,0-.017-.14,1.036,1.036,0,0,0-.026-.1,1.476,1.476,0,0,0-.056-.163c-.043-.095-.086-.189-.131-.282-.015-.032-.03-.062-.047-.092l-.09-.178-.064-.112c-.028-.049-.056-.1-.086-.146s-.049-.08-.075-.118-.054-.086-.082-.127-.058-.082-.086-.123l-.082-.112c-.032-.043-.064-.082-.1-.123s-.052-.069-.08-.1L80.1,5.245l-.077-.088L79.9,5.034l-.075-.077L79.7,4.834l-.071-.067-.14-.12-.067-.058-.153-.12-.06-.047-.166-.12-.056-.039c-.058-.041-.118-.08-.178-.118l-.045-.03L78.571,4l-.039-.021c-.069-.041-.138-.08-.215-.116l-.026-.015-.228-.112h-.013c-.082-.039-.161-.075-.243-.11h0a11.66,11.66,0,0,0-4.3-.843h0c-1.72-.049-3.468-.019-5.214.052-2.268.09-4.539.247-6.777.387-.664.043-1.339.11-2.008.215a10.729,10.729,0,0,0-5.975,2.619,7.524,7.524,0,0,0-.828.95c-.585.8-.51,1.4-.082,1.866.933,1.015,3.543,1.352,4.577,1.542l.215.043.06.013.148.034.069.017.144.039.062.017.176.054H58.1l.215.071h.032l.172.062.047.019.159.064.043.017.187.082h0c.138.064.275.131.408.2h0l.2.107h0a6.88,6.88,0,0,1,3.068,3.44,4.945,4.945,0,0,1,.189,2.984V17.7c-.021.088-.047.176-.075.262a.03.03,0,0,1,0,.015h0L62.475,18q-.645.069-1.29.153-1.075.142-2.15.327t-2.083.454q-.529.113-1.056.236A55.015,55.015,0,0,0,43.174,23.9a9.4,9.4,0,0,1-.288-1.021v-.03c-.015-.125-.028-.252-.039-.376a5.741,5.741,0,0,1-.032-.744,10.021,10.021,0,0,1,.116-1.6c.03-.2.067-.391.107-.585.06-.284.131-.563.215-.838A9.015,9.015,0,0,1,44,16.951,7.833,7.833,0,0,1,45.062,15.7l.2-.215a24.224,24.224,0,0,0,2.15-2.4c.054-.073.1-.146.153-.215l.065-.095c.041-.062.08-.125.116-.185s.047-.077.069-.116c.4-.7.525-1.335.129-1.806a1.335,1.335,0,0,0-.215-.2l-.254-.181c-.03-.021-.06-.039-.092-.058l-.163-.107-.112-.065-.146-.084-.125-.064L46.7,9.839l-.135-.062-.127-.058-.144-.056-.12-.047-.15-.054-.114-.039-.161-.047-.105-.028c-.056-.017-.114-.03-.17-.043l-.1-.021L45.2,9.347l-.088-.015L44.916,9.3l-.077-.011-.2-.021H44.57a1.839,1.839,0,0,1-.215-.013H43.77l-.252.015H43.5l-.264.026h0a11.749,11.749,0,0,0-4.147,1.421h0c-1.606.86-3.186,1.819-4.745,2.812-1.832,1.163-3.636,2.378-5.42,3.563-.43.284-.86.583-1.266.9a11.28,11.28,0,0,0-4.164,5.317,7.409,7.409,0,0,0-.31,1.464c-.1.881.189,1.363.682,1.589a1.552,1.552,0,0,0,.215.077l.1.026.112.022.064.011a2.648,2.648,0,0,0,.269.026h.017a12.951,12.951,0,0,0,4.145-1.049l.2-.067.06-.019.144-.043.069-.019c.047-.015.095-.028.144-.039l.062-.017.181-.043h.026l.215-.045h.032c.06-.013.12-.022.181-.032h.052l.172-.024h.045l.2-.024h0c.153-.015.3-.026.456-.03h.215a6.938,6.938,0,0,1,4.371,1.438,5.024,5.024,0,0,1,1.157,1.333,54,54,0,0,0-6.033,4.96,50.435,50.435,0,0,0-7.217,8.574q-.6.884-1.144,1.782a10.149,10.149,0,0,1-.617-.989c-.069-.127-.135-.254-.2-.383a.253.253,0,0,0-.011-.024,9.608,9.608,0,0,1-.989-4.033,8.239,8.239,0,0,1,.329-1.709,18.611,18.611,0,0,0,.75-4.085h0v-.26a1.211,1.211,0,0,0-.019-.215,1.479,1.479,0,0,0-.473-1l-.043-.032-.065-.041a1.15,1.15,0,0,0-.462-.153c-.105,0-.215-.022-.31-.028h-.9l-.144.015-.142.013-.15.022-.131.019-.155.032a1.191,1.191,0,0,0-.12.024l-.161.039-.107.026-.168.049-.095.03c-.058.017-.116.039-.174.058l-.084.03-.178.071-.075.03-.183.082-.062.03-.191.095-.052.026-.2.107-.039.024c-.069.039-.135.08-.215.123l-.026.017c-.071.043-.142.09-.215.138h-.015l-.215.155h0a11.7,11.7,0,0,0-2.879,3.3h0c-.694,1.129-1.354,2.29-1.991,3.47-.157.288-.31.576-.462.86s-.316.6-.471.9c-.116.215-.23.445-.344.669-.8,1.567-1.574,3.145-2.346,4.7q-.249.5-.473,1.008c-1.088,2.462-1.761,5.19-.94,7.77a7.824,7.824,0,0,0,.279.744,1.671,1.671,0,0,0,.845.959l.062.024a1.137,1.137,0,0,0,.389.056c1.4-.037,3.176-2.365,3.9-3.225.045-.054.092-.105.14-.157.013-.017.028-.032.043-.049l.1-.107.049-.052.088-.08.049-.047.133-.125.019-.019.163-.144.026-.022c.047-.041.092-.08.14-.116l.041-.034.135-.105.037-.028.163-.118h0q.187-.131.381-.252h0c.064-.041.127-.08.191-.116h0a6.9,6.9,0,0,1,4.5-.94,5.26,5.26,0,0,1,.748.178,46.618,46.618,0,0,0-2.9,12.313q-.09.907-.144,1.815c-.026.4-.045.808-.06,1.213s-.026.808-.03,1.215c0,.808,0,1.619.024,2.429.024.737.067,1.473.12,2.208-.172-.041-.316-.077-.43-.11l-.088-.026L15.22,71.4H15.2c-.23-.1-.454-.2-.677-.316h-.011l-.049-.026a9.81,9.81,0,0,1-3.831-3.569,4.192,4.192,0,0,1-.279-.793,26.888,26.888,0,0,0-1.681-4.835c-.372-.617-.811-1.015-1.344-.987a1.15,1.15,0,0,0-.408.1c-.095.041-.189.084-.282.129-.03.013-.06.03-.088.045l-.183.092-.11.064-.148.086-.116.073-.129.084-.118.086c-.039.026-.08.054-.116.082l-.12.095-.1.082L5.283,62l-.09.08-.12.114-.08.077c-.041.041-.082.084-.12.127s-.047.047-.069.073-.082.09-.12.138l-.058.069-.12.15-.047.062c-.041.054-.08.107-.118.163l-.041.056c-.041.058-.08.118-.118.178l-.03.047-.116.191-.022.039c-.041.069-.077.138-.116.215l-.015.028c-.039.073-.075.148-.112.226v.015c-.039.08-.075.161-.11.243h0A11.36,11.36,0,0,0,2.8,68.6h0q-.019.742-.024,1.49c-.013,3.485.247,7.035.464,10.5A21.527,21.527,0,0,0,3.52,83a9.606,9.606,0,0,0,3.5,6.392,2.6,2.6,0,0,0,.232.157c.075.045.15.084.215.118a1.842,1.842,0,0,0,.215.082,1.376,1.376,0,0,0,.389.064h.092c1.589-.123,2.034-3.655,2.262-4.913.013-.069.028-.138.043-.215l.013-.062a.579.579,0,0,1,.034-.146c.013-.047.011-.047.017-.071l.039-.142a.239.239,0,0,1,.017-.064c.017-.058.034-.116.054-.174V84c.024-.069.045-.138.071-.215a.189.189,0,0,1,0-.032c.019-.056.041-.114.062-.17l.019-.049.064-.159a.359.359,0,0,0,.017-.043c.028-.062.054-.125.082-.185v-.011c.064-.138.131-.275.2-.408h0l.107-.2h0a6.873,6.873,0,0,1,3.44-3.068,5.009,5.009,0,0,1,2.208-.318l.1.473q.135.6.284,1.2c.086.357.178.712.273,1.075.024.084.045.17.069.254q.144.529.3,1.058c.174.591.355,1.18.546,1.769q.477,1.468,1.032,2.913c.073.193.148.385.215.578q.26.559.5,1.142c.08.191.159.381.241.572q.368.86.759,1.7t.811,1.679q.51,1.013,1.053,2.008l.273.494c.146.262.295.522.443.78.1.181.215.359.314.537q.374.632.763,1.256c-.645.228-1.228.415-1.61.522l-.168.045-.043.011a1.867,1.867,0,0,1-.215.045,9.889,9.889,0,0,1-2.283.019,9.578,9.578,0,0,1-3.631-1.129,9.475,9.475,0,0,1-1.462-1.268l-.215-.2h0c-.252-.243-.514-.5-.783-.75l-.129-.12-.344-.312-.009-.019c-.228-.2-.456-.393-.684-.57-.181-.142-.361-.271-.54-.389l-.148-.095c-.787-.484-1.5-.662-2.019-.174a1.076,1.076,0,0,0-.144.163q-.092.125-.181.252l-.058.09c-.037.056-.073.11-.107.166l-.064.114-.084.144-.064.127c-.024.045-.047.088-.069.133l-.062.135-.058.127c-.019.047-.037.1-.056.144s-.032.08-.047.12-.037.1-.054.153-.026.075-.037.112-.032.107-.049.161l-.028.105c-.015.056-.03.114-.043.17s-.015.064-.021.1-.024.12-.037.181,0,.058-.015.088a1.082,1.082,0,0,0-.028.191A.193.193,0,0,1,9.3,97.3c0,.067-.015.133-.021.2v.067a1.8,1.8,0,0,1-.013.215v.585a1.412,1.412,0,0,0,.015.252v.017L9.3,98.9h0a11.753,11.753,0,0,0,1.421,4.145h0c.983,1.819,2.079,3.61,3.225,5.375,1.041,1.615,2.111,3.21,3.16,4.788.316.475.645.948,1.006,1.406a11.043,11.043,0,0,0,5.3,4.051,7.547,7.547,0,0,0,1.376.286,1.457,1.457,0,0,0,1.473-.484c.819-1.161-.378-4.02-.77-5.115-.024-.067-.045-.133-.067-.2l-.019-.06c-.015-.047-.03-.095-.043-.144l-.019-.069a1.3,1.3,0,0,1-.039-.142.092.092,0,0,0-.017-.064c-.015-.06-.028-.118-.043-.178v-.028c-.017-.071-.03-.142-.045-.215v-.034c-.013-.058-.022-.118-.032-.178v-.052l-.026-.17v-.047c0-.067-.017-.133-.024-.2v-.011c-.015-.153-.024-.3-.03-.456h0v-.215h0a6.942,6.942,0,0,1,1.438-4.371,4.945,4.945,0,0,1,2.492-1.658h.015c.086-.024.172-.045.26-.064l.125.155q.819,1.017,1.681,2,.2.232.413.464,1.245,1.387,2.58,2.692c.146.144.295.29.443.43q1.116,1.075,2.285,2.09a56.585,56.585,0,0,0,7.835,5.646,15.791,15.791,0,0,1-1.213,1.29l-.026.021c-.2.15-.408.3-.621.43a9.778,9.778,0,0,1-5.055,1.561,8.557,8.557,0,0,1-1.754-.329l-.286-.073-.6-.15-.153-.037a16.462,16.462,0,0,0-2.457-.443,5.212,5.212,0,0,0-.54-.024h0c-.834,0-1.468.228-1.653.86a.5.5,0,0,1-.022.095c-.006.032-.013.073-.019.11-.011.105-.021.215-.028.31v.894a.553.553,0,0,0,.013.146l.013.14a.9.9,0,0,0,.024.153c.009.049.011.086.019.129s.019.105.03.157.015.08.024.118.026.107.039.163l.026.105c.015.056.032.112.049.168s.019.064.03.095.039.116.06.174.017.056.028.084l.071.181c.011.024.019.047.03.073.026.062.054.123.084.185a.152.152,0,0,0,.028.06c.03.064.062.129.095.191l.026.052c.034.067.071.131.11.2a.348.348,0,0,0,.022.039c.039.069.08.138.123.215l.017.026c.043.071.09.142.138.215v.015l.155.215h0a11.745,11.745,0,0,0,3.3,2.881h0c1.486.914,3.029,1.769,4.594,2.58,1.991,1.045,4.02,2.036,6.02,3.023.525.262,1.064.507,1.615.731a10.562,10.562,0,0,0,7.155.684,7.437,7.437,0,0,0,.752-.282,2.006,2.006,0,0,0,.813-.587c.022-.03.045-.062.065-.095l.017-.026c.83-1.438-2.1-3.655-3.085-4.493l-.159-.14-.045-.041-.11-.105-.052-.049-.105-.105L52.219,130l-.129-.135-.017-.019c-.047-.054-.1-.107-.144-.163a.112.112,0,0,0-.021-.024l-.116-.142c-.013-.013-.021-.028-.034-.041l-.105-.135-.028-.037c-.041-.054-.082-.11-.12-.166h0c-.088-.125-.174-.252-.254-.381h0q-.06-.095-.116-.194h0a6.9,6.9,0,0,1-.942-4.515,4.964,4.964,0,0,1,1.142-2.475q.989.4,2,.765a47.456,47.456,0,0,0,18.49,2.7c-.135.707-.273,1.314-.366,1.645a1.758,1.758,0,0,1-.071.215,9.834,9.834,0,0,1-.86,1.6c-.037.056-.073.11-.112.163-.105.155-.215.305-.329.454-.034.043-.067.086-.1.127-.1.129-.215.256-.318.378a9.363,9.363,0,0,1-2.2,1.843,17.386,17.386,0,0,1-2.756.9l-.368.11-.092.028a12.417,12.417,0,0,0-2.15.832l-.249.142-.08.052c-.7.449-1.075,1-.783,1.686v.015c.039.09.08.181.123.267.015.034.034.067.052.1s.056.114.086.17l.067.114.084.144c.024.041.052.08.075.12s.054.084.082.127.058.08.088.12.052.075.08.112.064.082.1.123.052.069.08.1l.105.123c.026.03.052.06.08.088s.075.082.116.123l.075.077.127.123.073.067c.045.041.09.082.138.12l.069.058c.049.041.1.082.151.12l.062.047c.054.041.107.082.163.12l.056.039c.058.041.118.08.178.118l.047.03c.062.041.127.08.191.116l.039.024c.069.039.138.077.215.114l.028.015c.073.039.148.075.215.112h.015c.08.039.159.075.241.11h0a11.668,11.668,0,0,0,4.3.843h0c1.72.049,3.466.019,5.214-.052,2.268-.09,4.539-.247,6.777-.387.512-.032,1.03-.08,1.546-.146l.31-.043a11.065,11.065,0,0,0,5.917-2.447,7.383,7.383,0,0,0,1.041-1.146c.611-.834.5-1.458.019-1.935l-.013-.013a2.953,2.953,0,0,0-.23-.193c-1.105-.808-3.337-1.1-4.274-1.273l-.215-.043-.06-.013-.146-.034-.071-.017-.142-.039-.064-.017-.176-.054h-.026l-.215-.071h-.03l-.174-.062-.047-.019-.159-.064-.043-.017-.187-.082h0c-.138-.064-.275-.131-.408-.2h0l-.2-.107h0a6.881,6.881,0,0,1-3.068-3.44,4.945,4.945,0,0,1-.189-2.984v-.017c.024-.088.047-.174.075-.262a.136.136,0,0,1,0-.015c.021-.071.047-.14.073-.215a56.951,56.951,0,0,0,8.72-2.692c.226-.088.451-.181.677-.273a58.392,58.392,0,0,0,8.2-4.167q.449-.277.894-.561l.258-.166c.43,1.094.819,2.255.985,2.855q.032.11.052.194c.017.075.03.131.034.168a9.919,9.919,0,0,1-.039,2.728,9.479,9.479,0,0,1-1.075,3.186,6.36,6.36,0,0,1-.871,1.051l-.095.1-.2.215-.215.215a12.811,12.811,0,0,0-2.687,3.4c-.022.06-.043.118-.06.176a1.949,1.949,0,0,0-.049.215,1.135,1.135,0,0,0,.09.75v.013a1.224,1.224,0,0,0,.071.112,1.165,1.165,0,0,0,.258.256c.084.062.168.123.254.181l.088.058c.056.037.11.073.168.107l.11.064.148.084.123.064.138.069.133.062.127.058.144.056.12.047.153.054.112.039.161.047.105.03.17.041.1.021.181.037.088.015.191.03.077.011.2.019h.067l.215.013h.6a1.411,1.411,0,0,0,.252-.015H98.6l.267-.026h0a11.753,11.753,0,0,0,4.145-1.421h0c2.036-1.1,4.033-2.341,6-3.621,1.4-.912,2.795-1.84,4.16-2.754a21.683,21.683,0,0,0,2.017-1.5,10.345,10.345,0,0,0,3.483-4.945,7.4,7.4,0,0,0,.243-1.236,1.5,1.5,0,0,0-.417-1.423,1.2,1.2,0,0,0-.105-.077h0c-1.187-.759-3.988.413-5.07.8l-.2.067-.009.032-.144.043-.069.021-.142.039-.064.015-.181.043H112.5l-.215.043h-.032l-.181.03h-.052l-.17.024H111.8l-.2.024h0c-.15.015-.3.026-.456.03h-.215a6.881,6.881,0,0,1-4.373-1.438,4.926,4.926,0,0,1-1.655-2.49v-.017c-.024-.086-.045-.176-.067-.264v-.015c-.019-.09-.037-.181-.052-.273a.364.364,0,0,0,0-.047c-.013-.086-.024-.172-.034-.262v-.019c-.011-.092-.017-.185-.024-.279v-.357a1.152,1.152,0,0,0-.052-.372q1.232-1.075,2.4-2.2,1.129-1.1,2.193-2.255t2.055-2.365q1.322-1.621,2.511-3.343c.267-.387.527-.78.785-1.176.312-.482.619-.965.914-1.456q.54-.9,1.041-1.812c.077-.14.15-.282.215-.43a31,31,0,0,1,2.6,2.23.584.584,0,0,1,.052.052,2.718,2.718,0,0,1,.215.215,9.867,9.867,0,0,1,1,1.621c.056.114.11.23.163.346a9.61,9.61,0,0,1,.839,3.709,3.691,3.691,0,0,1-.09.714.333.333,0,0,1,0,.045c-.028.135-.058.277-.095.43a22.755,22.755,0,0,0-.877,4.6c0,.77.2,1.37.722,1.6a1.29,1.29,0,0,0,.35.095c.105.011.215.021.312.028h.9l.146-.015.14-.013.153-.021.129-.019.157-.032.118-.021.163-.041.105-.026.168-.049.095-.03c.06-.017.116-.039.174-.058l.084-.03.181-.071.073-.03.185-.082.06-.028.191-.1.052-.026.2-.108a.215.215,0,0,1,.037-.021c.069-.041.138-.082.215-.125l.026-.015.215-.14h.015l.215-.155h0a11.7,11.7,0,0,0,2.879-3.3h0c1.213-1.969,2.32-4.04,3.384-6.132.759-1.49,1.5-2.993,2.232-4.472a21.318,21.318,0,0,0,1.062-2.5,11.225,11.225,0,0,0,.686-4.573,7.66,7.66,0,0,0-.617-2.447c-.479-1.09-1.2-1.208-1.961-.873a3.138,3.138,0,0,0-.282.142l-.15.092-.056.034-.123.084a15.481,15.481,0,0,0-2.629,2.711c-.045.054-.092.105-.14.159l-.043.047c-.032.037-.067.073-.1.107l-.052.054-.1.1c-.017.015-.032.032-.047.047l-.133.125-.021.019-.163.144-.026.024-.14.114-.041.034-.135.105-.037.028-.163.12h0c-.125.088-.252.172-.378.252h0c-.062.041-.127.08-.191.116h0a6.913,6.913,0,0,1-4.515.94,4.945,4.945,0,0,1-2.681-1.329l-.011-.013c-.064-.062-.129-.127-.191-.2v-.011a2.577,2.577,0,0,1-.181-.215l-.032-.039c-.054-.067-.107-.138-.161-.215a.075.075,0,0,1-.011-.017c-.056-.073-.107-.15-.159-.23-.013-.019-.026-.037-.037-.056-.052-.08-.1-.161-.151-.247-.144-.249-.284-.368-.43-.4a.355.355,0,0,0-.15,0q.682-2.01,1.182-4.1c.127-.458.245-.92.361-1.382q.342-1.391.615-2.795.082-.43.155-.86.148-.86.269-1.72c.041-.288.077-.576.114-.86.071-.578.133-1.161.185-1.744.026-.292.049-.585.071-.879q.129-1.759.142-3.55c.013-.372.019-.744.021-1.116a29.712,29.712,0,0,1,3.756.7l.088.026.069.024h.024a10.09,10.09,0,0,1,1.215.619,9.709,9.709,0,0,1,3.352,3.3,6.125,6.125,0,0,1,.458,1.23l.032.105c.026.09.052.181.08.273a16.324,16.324,0,0,0,1.557,4.188,2.666,2.666,0,0,0,.181.239l.021.026a1.253,1.253,0,0,0,1.01.518,1.194,1.194,0,0,0,.406-.1c.1-.043.191-.086.282-.131l.09-.045c.06-.03.123-.06.181-.092l.11-.062.148-.088.116-.073.131-.084.118-.086.114-.082.123-.1c.034-.026.069-.052.1-.08l.123-.105.088-.077c.043-.039.082-.08.123-.118l.077-.075c.043-.041.082-.084.123-.127l.067-.071Z" transform="translate(-2.18 -2.164)" />
        <path class="bad1" d="M135.68,77.747c2.2-2.569,2.107-6.207,2.053-9.4-.034-2.126-.155-4.253-.286-6.377a43.875,43.875,0,0,0-.5-5.338,11.4,11.4,0,0,0-2.012-4.872c-.787-1.034-2.247-2.651-3.7-2.04-1.163.49-1.585,2.019-1.853,3.128a20.409,20.409,0,0,1-.894,3.679,6.258,6.258,0,0,1-4.068,3.625,4.431,4.431,0,0,1-2.58-.187c-.542-.215-1.174-.774-1.784-.531l.69.391A49.579,49.579,0,0,0,113.8,41.735l-.2.768a22.5,22.5,0,0,1,3.348-1.182,8.065,8.065,0,0,1,3.87.2,7.585,7.585,0,0,1,1.935.776,8.25,8.25,0,0,1,1.376,1.206,18.4,18.4,0,0,0,2.881,2.481c.955.6,2.15.892,2.95-.092a6.211,6.211,0,0,0,1.163-2.445,9.571,9.571,0,0,0-1.133-6.385,74.942,74.942,0,0,0-4.455-7.368c-1.537-2.333-2.984-4.872-5.08-6.764a10.269,10.269,0,0,0-3.113-1.98c-.985-.389-2.442-.845-3.455-.314-1.946,1.019-.621,4.188-.08,5.661a6.983,6.983,0,0,1-.527,6.521,4.5,4.5,0,0,1-2.984,1.873c-.828.131-2.068-.054-2.049,1.161l.959-.4A59,59,0,0,0,94.22,22.927l.2.768a22.16,22.16,0,0,1,2.322-2.713,8.16,8.16,0,0,1,3.691-1.81,6.3,6.3,0,0,1,2.06-.215,13.76,13.76,0,0,1,1.832.415,16.891,16.891,0,0,0,3.517.645,2.211,2.211,0,0,0,2.348-1.174,5.051,5.051,0,0,0,.037-2.378,8.1,8.1,0,0,0-3.1-4.762,42.782,42.782,0,0,0-7.359-4.328A52.984,52.984,0,0,0,91.8,3.654a11.425,11.425,0,0,0-4.164-.58,6.359,6.359,0,0,0-3.52,1.09c-1.72,1.423.236,3.515,1.374,4.551.66.6,1.4,1.122,2,1.782a7.028,7.028,0,0,1,1.557,2.795,5.119,5.119,0,0,1-.645,4.483,4.6,4.6,0,0,1-.924.914,4,4,0,0,0-1.116.905L87,19.336a56.465,56.465,0,0,0-18.982-4.274l.542.712a10.428,10.428,0,0,1,1.034-3.511,9.264,9.264,0,0,1,2.455-2.8c1.875-1.4,4.478-1.271,6.45-2.556a1.948,1.948,0,0,0,1.028-2.311,6.19,6.19,0,0,0-1.249-1.974A8.333,8.333,0,0,0,73.257.234,43.044,43.044,0,0,0,64.969.171a62.814,62.814,0,0,0-8.31.66,10.444,10.444,0,0,0-6.168,3.2c-.63.744-1.243,1.731-.694,2.7a3.644,3.644,0,0,0,2.1,1.4c1.66.565,3.466.533,5.037,1.365,2.167,1.146,3.995,3.655,3.115,6.2l.542-.413a55.147,55.147,0,0,0-19.881,5.975l.826.335a8.069,8.069,0,0,1,.892-6.736,30.439,30.439,0,0,1,2.32-2.488,6.684,6.684,0,0,0,1.746-2.7c.415-1.769-1.739-2.7-3.15-3a8.952,8.952,0,0,0-5.375.737,47.232,47.232,0,0,0-6.751,3.883,75.743,75.743,0,0,0-6.493,4.405,11.52,11.52,0,0,0-3.932,5.2,4.2,4.2,0,0,0-.168,3.036,1.987,1.987,0,0,0,1.733.985c1.935.131,3.655-1.015,5.5-1.361a6.067,6.067,0,0,1,6.259,2.384c.069-.256.135-.512.2-.768a53.343,53.343,0,0,0-14.62,15.555h.97A9.821,9.821,0,0,1,19.177,37.5a6.568,6.568,0,0,1,.015-3.354,29.834,29.834,0,0,0,.725-3.33,3.9,3.9,0,0,0-.275-2.513c-.77-1.247-2.941-.86-4.1-.473A8.893,8.893,0,0,0,11.444,31a41.859,41.859,0,0,0-3.629,6.145C6.623,39.421,5.4,41.722,4.374,44.08a12.572,12.572,0,0,0-1.213,6.893c.273,1.754,1.232,4.141,3.4,3.107,1.608-.761,2.52-2.412,3.758-3.618A6.473,6.473,0,0,1,16.5,48.727l-.391-.69a49.444,49.444,0,0,0-3.016,21.341l.712-.54a7.235,7.235,0,0,1-2.636-1.374,7.3,7.3,0,0,1-2.378-2.849c-.72-1.873-.86-4.208-2.232-5.768-1.337-1.5-3.365-.039-4.395,1.133A9.39,9.39,0,0,0,.118,65.432a57.079,57.079,0,0,0,.1,8.269,49.128,49.128,0,0,0,.733,8.007A10,10,0,0,0,4.194,87.43a2.315,2.315,0,0,0,2.4.628,2.829,2.829,0,0,0,1.29-1.524C8.558,85,8.545,83.309,9.1,81.75c.847-2.38,3.038-4.36,5.663-4.2l-.542-.413a62.564,62.564,0,0,0,8,19.614l.335-.826a9.064,9.064,0,0,1-3.268.677,9.03,9.03,0,0,1-4.027-.991,11.5,11.5,0,0,1-2.316-2.025,10.827,10.827,0,0,0-2.634-2.045,1.9,1.9,0,0,0-2.556.484,6.39,6.39,0,0,0-1.03,2.15A8.782,8.782,0,0,0,7.4,99.825a48.638,48.638,0,0,0,4.149,7.162,56.485,56.485,0,0,0,4.674,6.723,10.207,10.207,0,0,0,5.979,3.6,2.231,2.231,0,0,0,2.346-.712,3.347,3.347,0,0,0,.252-2.419c-.288-1.675-1.213-3.186-1.348-4.887-.215-2.651,1.032-5.439,3.767-6.132l-.546-.146a57.9,57.9,0,0,0,15.521,13.573c-.037-.295-.075-.589-.114-.881a8.327,8.327,0,0,1-2.447,2.07,9,9,0,0,1-3.84,1.075,12.121,12.121,0,0,1-3.117-.623,9.8,9.8,0,0,0-3.375-.406,1.852,1.852,0,0,0-1.744,1.344,5.732,5.732,0,0,0,.062,2.4,8.079,8.079,0,0,0,2.879,4.4,37.706,37.706,0,0,0,6.88,4.149,82.2,82.2,0,0,0,7.413,3.616,10.85,10.85,0,0,0,7.622.542,2.563,2.563,0,0,0,1.879-1.612,2.609,2.609,0,0,0-.587-2.017c-1.03-1.443-2.617-2.3-3.711-3.666-1.589-1.989-2.193-5.059-.467-7.149l-.546.144a48.718,48.718,0,0,0,20.64,3.481l-.542-.712a8.626,8.626,0,0,1-1.178,3.24,8.948,8.948,0,0,1-2.715,2.733,13.263,13.263,0,0,1-3.238,1.088,8.976,8.976,0,0,0-2.956,1.309,1.815,1.815,0,0,0-.682,2.257,6.409,6.409,0,0,0,1.376,2.023,8.747,8.747,0,0,0,5.149,2.23,46.644,46.644,0,0,0,8.219,0,61.251,61.251,0,0,0,8.015-.645,10.4,10.4,0,0,0,6.254-3.272c.619-.744,1.176-1.7.632-2.649a3.634,3.634,0,0,0-2.04-1.374c-1.673-.578-3.5-.537-5.085-1.38-2.3-1.228-3.943-3.75-3.029-6.388l-.393.393a57.869,57.869,0,0,0,18.883-7.918l-.823-.335a12.686,12.686,0,0,1,1.107,3.683,9.348,9.348,0,0,1-.765,4.375c-.967,2.15-3.375,3.322-4.339,5.515a1.855,1.855,0,0,0,.606,2.47,6.5,6.5,0,0,0,2.262,1.026,9.334,9.334,0,0,0,6.048-.97,63.108,63.108,0,0,0,7.445-4.45c2.4-1.576,4.962-3.029,6.912-5.13a10.408,10.408,0,0,0,2-3.01,5.046,5.046,0,0,0,.473-3.517c-.722-1.823-3.339-1.056-4.7-.606a21.656,21.656,0,0,1-2.47.806,7.03,7.03,0,0,1-3.214-.108,5.143,5.143,0,0,1-3.279-2.447,4.528,4.528,0,0,1-.46-1.4c-.071-.445-.028-.9-.131-1.339-.047.183-.095.366-.144.548a53.3,53.3,0,0,0,12.214-15.153l-.768.2A16.184,16.184,0,0,1,117,96.946a8.815,8.815,0,0,1,1.66,3.655,5.8,5.8,0,0,1,.155,1.98,15.772,15.772,0,0,1-.385,1.662,16.212,16.212,0,0,0-.645,3.58,2.227,2.227,0,0,0,1.133,2.333,5.028,5.028,0,0,0,2.636.013,8.306,8.306,0,0,0,4.689-3.242,43.529,43.529,0,0,0,4.173-7.14,53.573,53.573,0,0,0,3.713-7.955,11.358,11.358,0,0,0,.58-4.347,5.866,5.866,0,0,0-1.213-3.517c-1.636-1.651-3.87.86-4.865,2.03-1.453,1.7-2.991,3.1-5.375,3.281a4.683,4.683,0,0,1-3.76-1.331c-.57-.585-.879-1.671-1.808-1.686l.542.712a62.117,62.117,0,0,0,3.137-19.156l-.563.561a11.8,11.8,0,0,1,5.252,1.544,9.122,9.122,0,0,1,2.4,2.294,7.78,7.78,0,0,1,1.015,2.52,22.273,22.273,0,0,0,.952,2.879,3.686,3.686,0,0,0,1.4,1.843c1.314.725,3.044-.759,3.87-1.7.473-.542-.318-1.339-.793-.793a5.629,5.629,0,0,1-1.569,1.277c-.475.26-.871.413-1.29-.062a3.568,3.568,0,0,1-.473-.776c-.8-1.617-.888-3.528-1.735-5.11a9.864,9.864,0,0,0-4.285-3.941,14.835,14.835,0,0,0-4.73-1.075.569.569,0,0,0-.561.561,61.072,61.072,0,0,1-.74,9.479,62.061,62.061,0,0,1-2.365,9.378.568.568,0,0,0,.542.712c.084,0,.46.69.535.789a5.644,5.644,0,0,0,.587.675,5.555,5.555,0,0,0,2.926,1.473,7.6,7.6,0,0,0,5.786-1.569c1.408-1.075,2.262-2.726,3.717-3.75a1.721,1.721,0,0,1,1.075-.443c.578.062.808.9.952,1.352a8.336,8.336,0,0,1,.146,4.233c-.548,2.681-1.976,5.119-3.191,7.542s-2.477,4.874-3.922,7.192a9,9,0,0,1-4.278,3.984,5.467,5.467,0,0,1-2.292.305.747.747,0,0,1-.793-.725,5.547,5.547,0,0,1,.112-1.834c.215-1.189.591-2.341.819-3.528a7.749,7.749,0,0,0-.4-3.827,8.847,8.847,0,0,0-1.853-3.33,25.5,25.5,0,0,0-2.769-2.365.565.565,0,0,0-.77.2,52.311,52.311,0,0,1-12.04,14.925.559.559,0,0,0-.144.546c.146.623.075,1.277.258,1.907a5.5,5.5,0,0,0,1.72,2.675,7.569,7.569,0,0,0,5.768,1.606,41.266,41.266,0,0,0,4.377-1.26c.548-.127,1.8-.43,2.15.226a2.907,2.907,0,0,1-.153,1.9,7.438,7.438,0,0,1-.707,1.666c-1.327,2.313-3.565,3.795-5.73,5.237-2.365,1.569-4.719,3.139-7.168,4.567-1.993,1.163-4.132,2.417-6.514,2.4a5.45,5.45,0,0,1-2.206-.456,4.473,4.473,0,0,1-1.036-.6c-.46-.389-.269-.86,0-1.333a15.847,15.847,0,0,1,2.567-3.01,7.873,7.873,0,0,0,1.935-3.027,10.4,10.4,0,0,0,.531-4.272,13.731,13.731,0,0,0-1.131-3.735.568.568,0,0,0-.823-.335A56.759,56.759,0,0,1,77.5,121.129c-.626.144-.774.363-.927.967a5.536,5.536,0,0,0-.123,2.042,6.416,6.416,0,0,0,1.664,3.455,8.616,8.616,0,0,0,5.106,2.606,9.566,9.566,0,0,1,3.236.935c.447.264.752.593.533,1.139a4.859,4.859,0,0,1-1.539,1.72c-2.5,1.972-5.8,2.1-8.849,2.3-3.343.215-6.7.43-10.047.327-2.309-.064-4.887-.546-6.426-2.436A4.132,4.132,0,0,1,59.3,132.8c-.172-.673.8-1.09,1.29-1.314,1.432-.645,3.01-.875,4.47-1.443a8.392,8.392,0,0,0,3.44-2.935,9.466,9.466,0,0,0,1.681-4.07.568.568,0,0,0-.542-.709,47.945,47.945,0,0,1-20.349-3.44.544.544,0,0,0-.546.144c-2.479,3-1.3,7.407,1.488,9.772.548.467,1.109.916,1.625,1.419a3.994,3.994,0,0,1,1.348,1.894c.14.905-1.32,1.182-1.959,1.329a8.746,8.746,0,0,1-3.913-.086,32.868,32.868,0,0,1-7.065-3.038c-2.384-1.193-4.754-2.421-7.033-3.805a9.994,9.994,0,0,1-4.162-4.085,5.341,5.341,0,0,1-.477-2.079,2.668,2.668,0,0,1,.067-.97c.168-.43.718-.447,1.112-.454a14.481,14.481,0,0,1,3.67.664,8.158,8.158,0,0,0,3.345.3,10.384,10.384,0,0,0,3.612-1.236,9.089,9.089,0,0,0,2.472-2.135.57.57,0,0,0-.114-.881,57.082,57.082,0,0,1-15.295-13.4.557.557,0,0,0-.546-.144c-3.8.963-5.319,5.31-4.3,8.832.417,1.449,1.329,2.978,1.163,4.532-.123,1.144-1.382.815-2.189.593a8.271,8.271,0,0,1-3.087-1.679,25.251,25.251,0,0,1-4.554-5.773c-1.5-2.251-2.973-4.515-4.3-6.867-1.062-1.87-2.111-3.887-2.017-6.1a5.388,5.388,0,0,1,.482-2.021,4.2,4.2,0,0,1,.568-.967c.484-.557,1.116-.155,1.634.183,1.866,1.215,3.064,3.236,5.16,4.1a10.445,10.445,0,0,0,4.072.787A10,10,0,0,0,22.864,97a.57.57,0,0,0,.335-.826,61.62,61.62,0,0,1-7.893-19.35.572.572,0,0,0-.542-.413c-3.745-.215-6.521,3.072-7.112,6.508-.12.7-.241,1.4-.43,2.083a3.655,3.655,0,0,1-.94,1.935c-.705.525-1.707-.623-2.139-1.1a8.318,8.318,0,0,1-1.623-2.739,24.465,24.465,0,0,1-1.045-7.039c-.168-2.67-.318-5.345-.314-8.019,0-2.165.047-4.457,1.163-6.381a5.631,5.631,0,0,1,1.4-1.619,5.59,5.59,0,0,1,.929-.576c.645-.318.989-.071,1.352.512,1.152,1.853,1.058,4.255,2.29,6.052a9.5,9.5,0,0,0,5.214,3.883.565.565,0,0,0,.709-.542,48.783,48.783,0,0,1,2.971-21.044.568.568,0,0,0-.393-.69,7.307,7.307,0,0,0-5.786.879A10.427,10.427,0,0,0,8.468,50.87c-.585.694-2.677,3.367-3.569,1.9-1.2-1.98-.763-4.73-.069-6.787A51.033,51.033,0,0,1,7.8,39.634c1.036-2.07,2.113-4.109,3.3-6.1a11.175,11.175,0,0,1,3.76-4.2,5.663,5.663,0,0,1,1.731-.645c.492-.1,1.608-.295,2.021.069.628.553.172,2.227.037,2.881-.228,1.086-.576,2.15-.761,3.242a9.274,9.274,0,0,0,1.817,6.39.57.57,0,0,0,.97,0A51.937,51.937,0,0,1,34.883,26.126a.576.576,0,0,0,.2-.77c-1.879-3.01-5.822-3.642-8.961-2.485a17.694,17.694,0,0,1-2.58.8c-.533.11-1.651.331-1.95-.327a2.775,2.775,0,0,1,.112-1.6,7.31,7.31,0,0,1,.611-1.612A10.073,10.073,0,0,1,24.141,17.7a35.1,35.1,0,0,1,5.779-4.235c2.077-1.372,4.171-2.72,6.34-3.939A11.462,11.462,0,0,1,42,7.634a5.506,5.506,0,0,1,1.959.4,5.418,5.418,0,0,1,.955.507c.568.374.6.737.286,1.361-1.049,2.06-3.311,3.212-4.25,5.336a9.553,9.553,0,0,0-.5,6.665.572.572,0,0,0,.826.335,53.663,53.663,0,0,1,19.313-5.82A.593.593,0,0,0,61.127,16c1.264-3.655-1.935-7.185-5.265-8.125-1.5-.43-3.163-.391-4.536-1.2-2.21-1.3,2.5-3.857,3.584-4.233a27.722,27.722,0,0,1,7.448-1c2.7-.166,5.4-.305,8.1-.269,2.1.028,4.321.2,6.1,1.434a5.347,5.347,0,0,1,1.483,1.546,2.6,2.6,0,0,1,.479.993c.03.54-.731.892-1.129,1.088a21.658,21.658,0,0,1-3.56,1.178,7.525,7.525,0,0,0-2.976,1.58,10.412,10.412,0,0,0-2.4,3.027,11.278,11.278,0,0,0-.985,3.459.572.572,0,0,0,.542.712A55.536,55.536,0,0,1,86.7,20.424a.563.563,0,0,0,.634-.258c.166-.247.6-.43.843-.6a5.869,5.869,0,0,0,.752-.671,5.611,5.611,0,0,0,1.428-3.07,7.7,7.7,0,0,0-1.767-5.771c-1-1.236-2.427-2.038-3.421-3.287a2.509,2.509,0,0,1-.6-1.1c-.075-.568.482-.815.929-.993a7.893,7.893,0,0,1,4.068-.4c2.735.408,5.2,1.838,7.639,3.055,2.526,1.271,5.044,2.561,7.454,4.033,1.72,1.056,3.5,2.438,4.2,4.414a5.62,5.62,0,0,1,.305,2.294c-.08,1.112-1.5.86-2.313.722-1.236-.2-2.432-.585-3.655-.838a7.766,7.766,0,0,0-4.04.411,8.522,8.522,0,0,0-3.287,1.873,27.306,27.306,0,0,0-2.447,2.892.568.568,0,0,0,.2.768A58.019,58.019,0,0,1,108.386,36.25a.567.567,0,0,0,.959-.4,6.436,6.436,0,0,0,1.793-.215,5.551,5.551,0,0,0,2.61-1.649,7.553,7.553,0,0,0,1.668-5.869c-.215-1.741-1.172-3.281-1.385-5.024a2.011,2.011,0,0,1,.112-1.247c.325-.5,1.122-.305,1.6-.215a8.026,8.026,0,0,1,3.173,1.481c2.137,1.6,3.52,3.965,4.973,6.155,1.533,2.311,3.047,4.637,4.405,7.058,1.056,1.879,2.066,3.967,1.823,6.183a5.45,5.45,0,0,1-.768,2.232c-.307.505-.572.808-1.208.574a5.7,5.7,0,0,1-1.561-1.047c-1.013-.86-1.883-1.9-2.935-2.711a8.073,8.073,0,0,0-3.709-1.378,8.313,8.313,0,0,0-3.416.069,28.237,28.237,0,0,0-3.5,1.264.563.563,0,0,0-.2.768,48.774,48.774,0,0,1,6.837,17.828.563.563,0,0,0,.69.393c.176-.071,1.1.5,1.322.578a5.354,5.354,0,0,0,1.991.288,6.385,6.385,0,0,0,4.072-1.853,8.243,8.243,0,0,0,2.034-3.188c.4-1.116.467-2.316.765-3.459a5,5,0,0,1,.727-1.767c.645-.836,1.44-.086,2.012.456a8.776,8.776,0,0,1,2.3,4.085,24.326,24.326,0,0,1,.666,5.016c.12,1.907.243,3.816.316,5.725a47.252,47.252,0,0,1-.019,5.968,8.158,8.158,0,0,1-1.651,4.586C134.418,77.5,135.209,78.3,135.68,77.747Z" transform="translate(0.001 0.001)" />
        <g class="bad2" transform="translate(55.685 2.543)">
          <path class="bad3" d="M259.2,14.921a1.154,1.154,0,0,1,.2-1.492c1.505-1.361,4.73-2.58,6.14-.43a.927.927,0,0,1-.305,1.253c-1.6.912-3.655,1.608-5.472.86A5.216,5.216,0,0,1,259.2,14.921Z" transform="translate(-259.002 -11.83)" />
        </g>
        <g class="bad2" transform="translate(63.007 2.225)">
          <path class="bad3" d="M293.106,12.412a1.593,1.593,0,0,1,.462-1.628,3.563,3.563,0,0,1,3.363-.024,1.892,1.892,0,0,1,.267.228,1.834,1.834,0,0,1,.28,1.739,2.061,2.061,0,0,1-.189.43,1.393,1.393,0,0,1-.75.6,1.539,1.539,0,0,1-.3.064,3.87,3.87,0,0,1-2.892-1.094A2.466,2.466,0,0,1,293.106,12.412Z" transform="translate(-293.058 -10.35)" />
        </g>
        <g transform="translate(50.137 0.611)">
          <path class="bad1" d="M243.027,19.776a.74.74,0,0,1,.135-.568c2.285-3.945-1.118-8-5.031-8.718-1.5-.275-6.36-.86-4.5-3.408,2.032-2.773,5.536-3.575,8.815-3.782,3.96-.247,8.03-.55,11.99-.43,3.13.09,6.28,1,7.615,4.111.961,2.245-5.205,2.984-6.48,3.745a9.823,9.823,0,0,0-3.917,4.56c-.232.557-1.434,6.357-.514,6.357a12.64,12.64,0,0,1-4.04-.43c-.568-.129-1.223-.282-1.959-.482a8.944,8.944,0,0,1-1.112-.381C243.584,20.176,243.122,20.077,243.027,19.776Z" transform="translate(-233.212 -2.843)" />
          <path class="bad1" d="M249.244,13.381c1.129-2.257,2.257-5.267,5.267-6.772,1.12-.559,1.2-2.58.08-3.726h-.17c-3.96-.112-8.03.191-11.99.43-3.274.215-6.779,1.008-8.815,3.782-1.864,2.541,2.988,3.133,4.5,3.408a7.317,7.317,0,0,1,5.431,4.3C245.9,15.282,248.147,15.359,249.244,13.381Z" transform="translate(-233.195 -2.855)" />
          <path class="bad1" d="M297.836,7.1c-1.311-3.057-4.373-3.984-7.445-4.1,1.116,1.15,1.041,3.167-.08,3.726-3.01,1.5-4.139,4.515-5.267,6.772-1.1,1.974-3.343,1.9-5.7,1.423a5.014,5.014,0,0,1-.4,4.418.74.74,0,0,0-.135.568c.095.3.557.4,1,.583a8.945,8.945,0,0,0,1.112.381c.735.2,1.391.353,1.959.482a12.64,12.64,0,0,0,4.04.43c-.92,0,.282-5.8.514-6.357a9.823,9.823,0,0,1,3.917-4.584C292.63,10.08,298.8,9.34,297.836,7.1Z" transform="translate(-268.995 -2.966)" />
        </g>
        <g transform="translate(20.974 7.072)">
          <path class="bad1" d="M112.09,54.713a.735.735,0,0,1-.166-.559c0-4.558-4.971-6.373-8.716-5.035-1.445.516-5.943,2.429-5.59-.7.374-3.418,3.01-5.865,5.74-7.68,3.307-2.2,6.678-4.493,10.165-6.375,2.754-1.488,5.934-2.277,8.649-.247,1.954,1.462-3.01,5.186-3.739,6.482a9.832,9.832,0,0,0-1.109,5.915c.075.6,1.935,6.235,2.735,5.762a12.8,12.8,0,0,1-3.711,1.653c-.557.174-1.2.368-1.935.563a9.182,9.182,0,0,1-1.152.226C112.769,54.781,112.32,54.93,112.09,54.713Z" transform="translate(-97.589 -32.891)" />
          <path class="bad1" d="M114.247,51.133c-.153-2.518-.679-5.689,1.174-8.5.69-1.045-.252-2.827-1.8-3.266l-.148.077c-3.487,1.881-6.858,4.18-10.165,6.375-2.733,1.815-5.375,4.261-5.74,7.68-.344,3.133,4.154,1.219,5.59.7a7.288,7.288,0,0,1,6.852,1.01C112.3,54.452,114.283,53.39,114.247,51.133Z" transform="translate(-97.553 -37.977)" />
          <path class="bad1" d="M167.654,34.116c-2.666-1.993-5.779-1.266-8.5.17,1.544.43,2.485,2.221,1.8,3.266-1.853,2.808-1.327,5.979-1.174,8.5.037,2.257-1.935,3.32-4.225,4.085a5.016,5.016,0,0,1,1.864,4.025.735.735,0,0,0,.166.559c.232.215.682.069,1.161,0a9.182,9.182,0,0,0,1.152-.226c.737-.2,1.38-.389,1.935-.563a12.8,12.8,0,0,0,3.711-1.653c-.8.462-2.66-5.16-2.735-5.762a9.832,9.832,0,0,1,1.109-5.915C164.638,39.3,169.609,35.578,167.654,34.116Z" transform="translate(-143.081 -32.893)" />
        </g>
        <g transform="translate(3.613 28.038)">
          <path class="bad1" d="M33.137,153.327c-.14-.032-.277-.153-.43-.4-2.266-3.943-7.475-3.025-10.055.006-.991,1.167-3.932,5.074-5.2,2.191-1.385-3.148-.327-6.583,1.133-9.522,1.765-3.554,3.537-7.23,5.614-10.6,1.643-2.664,4-4.945,7.368-4.539,2.423.29-.019,6,0,7.484a9.815,9.815,0,0,0,2,5.676c.363.482,4.788,4.423,5.248,3.625a12.855,12.855,0,0,1-2.386,3.287c-.4.43-.86.918-1.4,1.456a9.459,9.459,0,0,1-.886.772C33.763,153.054,33.449,153.407,33.137,153.327Z" transform="translate(-16.805 -130.411)" />
          <path class="bad1" d="M30.721,160.594c-1.391-2.107-3.44-4.588-3.225-7.955.075-1.251-1.632-2.324-3.186-1.935l-.092.142c-2.077,3.373-3.848,7.05-5.614,10.6-1.46,2.939-2.518,6.375-1.133,9.522,1.268,2.883,4.21-1.023,5.2-2.191a7.289,7.289,0,0,1,6.439-2.552C30.7,164.447,31.882,162.529,30.721,160.594Z" transform="translate(-16.82 -146.278)" />
          <path class="bad1" d="M58.886,130.462c-3.3-.393-5.637,1.8-7.276,4.4,1.554-.391,3.262.682,3.186,1.935-.2,3.358,1.84,5.839,3.225,7.955,1.161,1.935-.026,3.846-1.617,5.646a5.012,5.012,0,0,1,3.627,2.554c.144.249.282.37.43.4.312.071.626-.282,1.008-.578a9.461,9.461,0,0,0,.886-.772c.54-.538,1-1.028,1.4-1.456a12.754,12.754,0,0,0,2.386-3.287c-.46.8-4.885-3.143-5.248-3.625a9.815,9.815,0,0,1-2-5.676C58.866,136.463,61.309,130.757,58.886,130.462Z" transform="translate(-44.127 -130.415)" />
        </g>
        <g transform="translate(0.598 58.713)">
          <path class="bad1" d="M19.717,292.227a.731.731,0,0,1-.568-.135c-3.945-2.285-8,1.118-8.718,5.031-.275,1.5-.86,6.36-3.408,4.5-2.773-2.032-3.575-5.536-3.78-8.815-.249-3.947-.553-8.017-.441-11.971.09-3.13,1-6.278,4.111-7.613,2.245-.963,2.984,5.2,3.745,6.478a9.845,9.845,0,0,0,4.569,3.917c.557.234,6.357,1.436,6.357.514a12.641,12.641,0,0,1-.43,4.04c-.129.57-.282,1.223-.482,1.961a9.027,9.027,0,0,1-.381,1.109C20.117,291.678,20.026,292.141,19.717,292.227Z" transform="translate(-2.779 -273.111)" />
          <path class="bad1" d="M13.341,310.608c-2.257-1.129-5.267-2.257-6.772-5.267-.559-1.12-2.58-1.2-3.726-.077v.168c-.112,3.96.191,8.03.441,11.99.2,3.274,1.006,6.779,3.78,8.815,2.541,1.864,3.133-2.988,3.408-4.5a7.317,7.317,0,0,1,4.3-5.431C15.242,313.951,15.315,311.7,13.341,310.608Z" transform="translate(-2.81 -297.716)" />
          <path class="bad1" d="M7.03,273.189c-3.055,1.309-3.982,4.371-4.1,7.445,1.15-1.118,3.167-1.043,3.726.077,1.5,3.01,4.515,4.139,6.772,5.267,1.974,1.1,1.9,3.343,1.423,5.7a5.014,5.014,0,0,1,4.416.4.731.731,0,0,0,.568.135c.3-.095.4-.557.583-1a9.03,9.03,0,0,0,.372-1.109c.2-.737.353-1.391.482-1.961a12.64,12.64,0,0,0,.43-4.04c0,.922-5.8-.279-6.357-.514a9.845,9.845,0,0,1-4.569-3.917C10.016,278.392,9.277,272.226,7.03,273.189Z" transform="translate(-2.898 -273.087)" />
        </g>
        <g transform="translate(7.063 91.783)">
          <path class="bad1" d="M54.673,437.436a.727.727,0,0,1-.559.166c-4.558,0-6.373,4.971-5.035,8.718.516,1.443,2.429,5.94-.7,5.59-3.418-.374-5.865-3.01-7.68-5.743-2.2-3.3-4.493-6.678-6.375-10.163-1.488-2.756-2.277-5.936-.247-8.649,1.462-1.956,5.186,3.01,6.482,3.737a9.832,9.832,0,0,0,5.915,1.109c.6-.075,6.235-1.935,5.764-2.735a12.847,12.847,0,0,1,1.651,3.711c.174.557.368,1.2.565,1.935a9.588,9.588,0,0,1,.215,1.152C54.741,436.755,54.89,437.2,54.673,437.436Z" transform="translate(-32.851 -426.902)" />
          <path class="bad1" d="M51.053,460.567c-2.518.151-5.689.677-8.5-1.176-1.045-.69-2.827.252-3.266,1.8.026.049.049.1.077.151,1.881,3.485,4.18,6.858,6.375,10.163,1.815,2.735,4.261,5.375,7.68,5.743,3.133.342,1.219-4.156.7-5.59a7.291,7.291,0,0,1,1.01-6.854C54.381,462.511,53.319,460.528,51.053,460.567Z" transform="translate(-37.906 -452.226)" />
          <path class="bad1" d="M34.076,427.41c-1.993,2.664-1.266,5.779.17,8.5.43-1.544,2.221-2.485,3.266-1.8,2.808,1.853,5.979,1.327,8.5,1.176,2.257-.039,3.32,1.935,4.085,4.223a5.016,5.016,0,0,1,4.025-1.864.727.727,0,0,0,.559-.166c.215-.232.069-.682,0-1.161a9.586,9.586,0,0,0-.215-1.152c-.2-.735-.391-1.38-.565-1.935a12.848,12.848,0,0,0-1.651-3.711c.46.8-5.16,2.66-5.764,2.735a9.832,9.832,0,0,1-5.915-1.109C39.262,430.424,35.538,425.464,34.076,427.41Z" transform="translate(-32.853 -426.948)" />
        </g>
        <g transform="translate(28.031 112.169)">
          <path class="bad1" d="M153.3,527.435c-.032.14-.153.28-.4.43-3.952,2.273-3.034,7.488,0,10.064,1.17.993,5.074,3.932,2.191,5.2-3.148,1.385-6.583.327-9.522-1.133-3.554-1.765-7.23-3.537-10.6-5.614-2.664-1.643-4.945-4-4.539-7.368.29-2.423,6,.019,7.484,0a9.828,9.828,0,0,0,5.676-2c.482-.366,4.423-4.79,3.625-5.25a12.819,12.819,0,0,1,3.287,2.386c.43.4.918.86,1.456,1.4a9.155,9.155,0,0,1,.772.884C153.022,526.81,153.375,527.126,153.3,527.435Z" transform="translate(-130.38 -521.759)" />
          <path class="bad1" d="M160.594,557.719c-2.107,1.391-4.588,3.44-7.955,3.225-1.249-.075-2.324,1.632-1.935,3.188.049.028.095.06.142.09,3.373,2.077,7.05,3.849,10.6,5.614,2.939,1.46,6.375,2.518,9.522,1.133,2.883-1.268-1.021-4.207-2.191-5.2a7.289,7.289,0,0,1-2.552-6.439C164.439,557.745,162.529,556.551,160.594,557.719Z" transform="translate(-146.271 -549.611)" />
          <path class="bad1" d="M130.422,528.97c-.393,3.3,1.8,5.637,4.4,7.278-.391-1.557.684-3.264,1.935-3.188,3.358.2,5.839-1.84,7.955-3.225,1.935-1.161,3.846.026,5.646,1.617a5.012,5.012,0,0,1,2.554-3.625c.249-.144.37-.284.4-.43.071-.31-.282-.626-.578-1.008a9.158,9.158,0,0,0-.772-.884c-.538-.542-1.028-1-1.456-1.4a12.717,12.717,0,0,0-3.287-2.386c.8.46-3.143,4.885-3.625,5.25a9.827,9.827,0,0,1-5.676,2C136.423,528.989,130.712,526.547,130.422,528.97Z" transform="translate(-130.376 -521.72)" />
        </g>
        <g transform="translate(58.703 118.378)">
          <path class="bad1" d="M292.164,552.477a.731.731,0,0,1-.135.568c-2.285,3.945,1.118,8,5.031,8.718,1.505.275,6.36.86,4.5,3.408-2.034,2.773-5.538,3.575-8.815,3.782-3.96.247-8.03.553-11.99.43-3.13-.09-6.278-1-7.613-4.111-.963-2.245,5.2-2.984,6.478-3.745a9.828,9.828,0,0,0,3.917-4.567c.234-.557,1.436-6.36.514-6.36a12.64,12.64,0,0,1,4.04.43c.57.129,1.223.282,1.961.482a9.017,9.017,0,0,1,1.109.381C291.607,552.077,292.072,552.174,292.164,552.477Z" transform="translate(-273.037 -550.6)" />
          <path class="bad1" d="M310.561,582.914c-1.129,2.258-2.257,5.267-5.267,6.772-1.118.559-1.2,2.58-.077,3.726h.168c3.96.114,8.03-.191,11.99-.43,3.274-.215,6.779-1.008,8.815-3.782,1.862-2.541-2.991-3.133-4.5-3.408a7.294,7.294,0,0,1-5.431-4.3C313.906,581.014,311.66,580.951,310.561,582.914Z" transform="translate(-297.669 -574.63)" />
          <path class="bad1" d="M273.143,565.311c1.309,3.057,4.371,3.986,7.445,4.1-1.118-1.15-1.041-3.167.077-3.726,3.01-1.505,4.139-4.515,5.267-6.772,1.1-1.974,3.343-1.9,5.7-1.423a5.014,5.014,0,0,1,.4-4.41.731.731,0,0,0,.135-.568c-.092-.3-.557-.4-1-.583a9.025,9.025,0,0,0-1.109-.381c-.737-.2-1.391-.353-1.961-.482a12.641,12.641,0,0,0-4.04-.43c.922,0-.279,5.8-.514,6.36a9.829,9.829,0,0,1-3.917,4.567C278.346,562.327,272.171,563.067,273.143,565.311Z" transform="translate(-273.039 -550.631)" />
        </g>
        <g transform="translate(91.774 108.79)">
          <path class="bad1" d="M437.4,506.128a.735.735,0,0,1,.168.559c0,4.56,4.969,6.373,8.716,5.035,1.443-.516,5.94-2.429,5.59.7-.374,3.418-3.01,5.865-5.743,7.68-3.3,2.2-6.678,4.493-10.163,6.375-2.756,1.488-5.936,2.277-8.649.247-1.956-1.462,3.01-5.186,3.737-6.482a9.832,9.832,0,0,0,1.109-5.915c-.075-.6-1.935-6.235-2.735-5.762a12.8,12.8,0,0,1,3.711-1.653c.557-.174,1.2-.368,1.935-.563a9.185,9.185,0,0,1,1.152-.226C436.715,506.059,437.164,505.913,437.4,506.128Z" transform="translate(-426.862 -506.013)" />
          <path class="bad1" d="M460.527,531.794c.15,2.52.677,5.689-1.176,8.5-.69,1.045.252,2.829,1.8,3.266.049-.026.1-.049.15-.077,3.485-1.881,6.858-4.18,10.163-6.375,2.735-1.815,5.375-4.261,5.743-7.68.342-3.133-4.156-1.219-5.59-.7a7.291,7.291,0,0,1-6.854-1.01C462.471,528.474,460.488,529.536,460.527,531.794Z" transform="translate(-452.186 -523.012)" />
          <path class="bad1" d="M427.348,526.719c2.664,1.993,5.779,1.266,8.5-.17-1.544-.43-2.485-2.221-1.8-3.266,1.853-2.808,1.327-5.977,1.176-8.5-.039-2.257,1.935-3.32,4.223-4.085a5.007,5.007,0,0,1-1.862-4.025.735.735,0,0,0-.168-.559c-.232-.215-.682-.069-1.161,0a9.183,9.183,0,0,0-1.152.226c-.735.2-1.38.389-1.935.563a12.8,12.8,0,0,0-3.711,1.653c.8-.462,2.66,5.16,2.735,5.762a9.832,9.832,0,0,1-1.109,5.915C430.358,521.534,425.393,525.257,427.348,526.719Z" transform="translate(-426.888 -506.006)" />
        </g>
        <g transform="translate(112.16 84.007)">
          <path class="bad1" d="M527.387,393.566c.14.032.279.151.43.4,2.273,3.952,7.488,3.034,10.064,0,.993-1.167,3.932-5.074,5.2-2.191,1.385,3.148.329,6.583-1.131,9.522-1.767,3.554-3.537,7.23-5.616,10.6-1.643,2.666-4,4.945-7.368,4.539-2.423-.29.019-6,0-7.484a9.844,9.844,0,0,0-2-5.676c-.365-.482-4.79-4.423-5.25-3.625a12.855,12.855,0,0,1,2.386-3.287c.4-.43.86-.918,1.4-1.456a9.162,9.162,0,0,1,.884-.772C526.762,393.848,527.078,393.493,527.387,393.566Z" transform="translate(-521.711 -390.736)" />
          <path class="bad1" d="M557.692,402.213c1.391,2.107,3.44,4.588,3.225,7.955-.075,1.249,1.632,2.322,3.188,1.935l.09-.142c2.079-3.373,3.848-7.05,5.616-10.6,1.46-2.939,2.516-6.375,1.131-9.522-1.268-2.883-4.207,1.023-5.2,2.191a7.3,7.3,0,0,1-6.45,2.552C557.717,398.364,556.533,400.278,557.692,402.213Z" transform="translate(-549.584 -390.783)" />
          <path class="bad1" d="M528.93,426.7c3.3.393,5.639-1.793,7.278-4.4-1.557.391-3.264-.682-3.188-1.935.2-3.36-1.84-5.841-3.225-7.955-1.161-1.935.026-3.846,1.617-5.646a5.012,5.012,0,0,1-3.625-2.554c-.144-.249-.284-.368-.43-.4-.31-.073-.626.282-1.008.576a9.161,9.161,0,0,0-.884.772c-.542.537-1,1.028-1.4,1.456a12.754,12.754,0,0,0-2.386,3.287c.46-.8,4.885,3.143,5.25,3.625a9.845,9.845,0,0,1,2,5.676C528.949,420.7,526.507,426.422,528.93,426.7Z" transform="translate(-521.68 -400.995)" />
        </g>
        <g transform="translate(118.371 50.145)">
          <path class="bad1" d="M552.468,243.067a.74.74,0,0,1,.568.135c3.945,2.285,8-1.118,8.718-5.031.275-1.505.86-6.36,3.408-4.5,2.773,2.032,3.575,5.536,3.782,8.815.247,3.96.553,8.03.43,11.99-.09,3.13-1,6.28-4.111,7.615-2.245.961-2.984-5.205-3.745-6.48a9.828,9.828,0,0,0-4.558-3.926c-.557-.232-6.36-1.434-6.36-.514a12.64,12.64,0,0,1,.43-4.04c.129-.568.282-1.223.482-1.959a8.936,8.936,0,0,1,.38-1.112C552.068,243.624,552.165,243.162,552.468,243.067Z" transform="translate(-550.594 -233.252)" />
          <path class="bad1" d="M582.869,249.284c2.255,1.129,5.265,2.257,6.77,5.267.559,1.12,2.58,1.2,3.726.077v-.168c.114-3.96-.191-8.03-.43-11.99-.215-3.274-1.008-6.779-3.782-8.815-2.541-1.864-3.133,2.988-3.408,4.5a7.293,7.293,0,0,1-4.3,5.431C580.967,245.941,580.9,248.187,582.869,249.284Z" transform="translate(-574.585 -233.235)" />
          <path class="bad1" d="M565.248,297.876c3.059-1.312,3.986-4.373,4.1-7.448-1.15,1.118-3.167,1.043-3.726-.077-1.5-3.01-4.515-4.139-6.77-5.267-1.974-1.1-1.9-3.343-1.425-5.7a5.014,5.014,0,0,1-4.416-.4.74.74,0,0,0-.568-.135c-.3.095-.4.557-.583,1a8.948,8.948,0,0,0-.38,1.112c-.2.735-.353,1.391-.482,1.959a12.639,12.639,0,0,0-.43,4.04c0-.92,5.8.282,6.36.514A9.828,9.828,0,0,1,561.5,291.4C562.272,292.67,563,298.837,565.248,297.876Z" transform="translate(-550.57 -269.035)" />
        </g>
        <g transform="translate(108.782 20.98)">
          <path class="bad1" d="M506.09,112.09a.727.727,0,0,1,.559-.166c4.56,0,6.372-4.971,5.035-8.716-.516-1.445-2.429-5.943.7-5.59,3.418.376,5.865,3.01,7.68,5.743,2.2,3.3,4.493,6.678,6.375,10.165,1.488,2.754,2.277,5.934.247,8.649-1.462,1.954-5.186-3.01-6.482-3.739a9.828,9.828,0,0,0-5.912-1.109c-.6.075-6.235,1.935-5.764,2.735a12.8,12.8,0,0,1-1.653-3.711c-.174-.557-.368-1.2-.563-1.935a9.178,9.178,0,0,1-.226-1.152C506.023,112.778,505.875,112.328,506.09,112.09Z" transform="translate(-505.976 -97.596)" />
          <path class="bad1" d="M531.754,114.278c2.52-.15,5.689-.677,8.5,1.176,1.045.69,2.829-.252,3.268-1.8-.028-.049-.052-.1-.08-.148-1.881-3.487-4.18-6.861-6.375-10.165-1.815-2.735-4.261-5.375-7.68-5.743-3.133-.342-1.219,4.156-.7,5.6a7.288,7.288,0,0,1-1.01,6.852C528.437,112.334,529.5,114.316,531.754,114.278Z" transform="translate(-522.973 -97.584)" />
          <path class="bad1" d="M526.682,167.694c2-2.666,1.266-5.779-.168-8.5-.43,1.544-2.223,2.485-3.268,1.8-2.808-1.853-5.977-1.327-8.5-1.176-2.257.039-3.317-1.935-4.085-4.223a5.016,5.016,0,0,1-4.025,1.864.727.727,0,0,0-.559.166c-.215.232-.067.682,0,1.161a9.189,9.189,0,0,0,.226,1.152c.2.735.389,1.38.563,1.935a12.8,12.8,0,0,0,1.653,3.711c-.462-.8,5.16-2.66,5.764-2.735a9.828,9.828,0,0,1,5.912,1.109C521.5,164.678,525.219,169.653,526.682,167.694Z" transform="translate(-505.968 -143.119)" />
        </g>
        <g transform="translate(84.001 3.613)">
          <path class="bad1" d="M393.534,33.146c.032-.14.151-.279.4-.43,3.952-2.266,3.034-7.484,0-10.064-1.167-.993-5.074-3.932-2.191-5.2,3.148-1.385,6.583-.327,9.522,1.133,3.554,1.765,7.23,3.537,10.6,5.614,2.666,1.643,4.945,4,4.539,7.368-.29,2.423-6-.019-7.484,0a9.828,9.828,0,0,0-5.676,2c-.479.365-4.423,4.79-3.625,5.25a12.807,12.807,0,0,1-3.285-2.386c-.43-.4-.92-.86-1.458-1.4a9.165,9.165,0,0,1-.772-.884C393.815,33.771,393.461,33.457,393.534,33.146Z" transform="translate(-390.706 -16.805)" />
          <path class="bad1" d="M402.173,30.761c2.107-1.391,4.588-3.44,7.955-3.225,1.249.075,2.322-1.632,1.935-3.186l-.142-.092c-3.373-2.077-7.05-3.848-10.6-5.614-2.939-1.46-6.375-2.518-9.522-1.133-2.883,1.268,1.023,4.208,2.191,5.2a7.3,7.3,0,0,1,2.552,6.45C398.333,30.735,400.238,31.922,402.173,30.761Z" transform="translate(-390.745 -16.852)" />
          <path class="bad1" d="M426.661,58.926c.393-3.3-1.793-5.637-4.4-7.276.391,1.554-.682,3.262-1.935,3.186-3.36-.2-5.841,1.84-7.955,3.225-1.935,1.161-3.846-.026-5.646-1.617a5.012,5.012,0,0,1-2.554,3.627c-.249.142-.368.282-.4.43-.073.312.282.626.576,1.008a9.166,9.166,0,0,0,.772.884c.538.542,1.028,1,1.458,1.4a12.706,12.706,0,0,0,3.285,2.386c-.8-.46,3.145-4.885,3.625-5.25a9.827,9.827,0,0,1,5.676-2C420.66,58.906,426.371,61.349,426.661,58.926Z" transform="translate(-400.957 -44.158)" />
        </g>
        <path class="bad4" d="M169.012,114.368c-5.749-25.924-33.359-45.057-60.679-41.436A54.874,54.874,0,0,0,77.862,87.509a50.434,50.434,0,0,0-7.23,8.613c-15.34,22.7-6.689,53.93,13.25,71.233,10.156,8.66,22.194,13.175,35.361,12.416,22.575-1.881,43.644-18.06,48.921-40.127a53,53,0,0,0,1.911-13.794,45.681,45.681,0,0,0-1.062-11.481Zm-1.969,11.5a49.916,49.916,0,0,1-1.8,13.016c-4.984,20.823-24.86,36.085-46.156,37.859-12.423.709-23.781-3.55-33.363-11.713C66.91,148.71,58.755,119.242,73.22,97.82a47.588,47.588,0,0,1,6.82-8.127,51.782,51.782,0,0,1,28.749-13.76c25.778-3.416,51.814,14.637,57.252,39.1A43.091,43.091,0,0,1,167.043,125.866Z" transform="translate(-49.295 -56.906)" />
        <path class="bad5" d="M475.152,417.174a2.724,2.724,0,0,0-.062-.69,3.37,3.37,0,0,0-3.644-2.49,3.318,3.318,0,0,0-1.832.877,3.011,3.011,0,0,0-.43.516,3.352,3.352,0,0,0,.8,4.281,2.969,2.969,0,0,0,2.124.744,3.3,3.3,0,0,0,2.939-2.41,3.1,3.1,0,0,0,.11-.828Z" transform="translate(-367.941 -324.965)" />
        <path class="bad5" d="M486.51,202.294a2.712,2.712,0,0,0-.062-.69,3.374,3.374,0,0,0-3.655-2.49,3.3,3.3,0,0,0-1.83.875,3.121,3.121,0,0,0-.43.518,3.349,3.349,0,0,0,.8,4.278,2.959,2.959,0,0,0,2.124.746,3.3,3.3,0,0,0,2.939-2.41A3.19,3.19,0,0,0,486.51,202.294Z" transform="translate(-376.851 -156.284)" />
        <path class="bad5" d="M207.594,469.684a2.827,2.827,0,0,0-.064-.69,3.37,3.37,0,0,0-3.644-2.49,3.317,3.317,0,0,0-1.832.877,3.01,3.01,0,0,0-.43.516,3.352,3.352,0,0,0,.8,4.281,2.969,2.969,0,0,0,2.124.744,3.3,3.3,0,0,0,2.939-2.41A3.193,3.193,0,0,0,207.594,469.684Z" transform="translate(-157.905 -366.186)" />
        <path class="bad5" d="M102.555,359.651a2.7,2.7,0,0,0-.064-.688,3.371,3.371,0,0,0-3.655-2.49,3.287,3.287,0,0,0-1.83.875,2.925,2.925,0,0,0-.43.518,3.369,3.369,0,0,0,.8,4.289,2.958,2.958,0,0,0,2.124.746,3.316,3.316,0,0,0,2.937-2.41A3.2,3.2,0,0,0,102.555,359.651Z" transform="translate(-75.444 -279.812)" />
        <path class="bad5" d="M374.609,447.478a4.32,4.32,0,0,0-.1-1.112,5.425,5.425,0,0,0-5.876-4.012,5.3,5.3,0,0,0-2.958,1.41,4.808,4.808,0,0,0-.7.834c-1.486,2.2-.645,5.222,1.29,6.9a4.762,4.762,0,0,0,3.423,1.2,5.326,5.326,0,0,0,4.73-3.885,5.069,5.069,0,0,0,.194-1.335Z" transform="translate(-285.91 -347.216)" />
        <path class="bad5" d="M164.676,376.608a4.435,4.435,0,0,0-.1-1.112,5.427,5.427,0,0,0-5.876-4.012,5.317,5.317,0,0,0-2.95,1.413,4.9,4.9,0,0,0-.7.834c-1.483,2.2-.645,5.22,1.29,6.895a4.784,4.784,0,0,0,3.425,1.2,5.333,5.333,0,0,0,4.73-3.887A5.253,5.253,0,0,0,164.676,376.608Z" transform="translate(-121.117 -291.583)" />
        <path class="bad5" d="M274.41,506.138a4.437,4.437,0,0,0-.1-1.112,5.426,5.426,0,0,0-5.874-4.012,5.317,5.317,0,0,0-2.952,1.413,4.895,4.895,0,0,0-.7.834c-1.486,2.2-.645,5.22,1.29,6.895a4.775,4.775,0,0,0,3.423,1.2,5.333,5.333,0,0,0,4.73-3.887A5.068,5.068,0,0,0,274.41,506.138Z" transform="translate(-207.26 -393.264)" />
        <path class="bad5" d="M514.75,281.506a4.415,4.415,0,0,0-.1-1.112,5.423,5.423,0,0,0-5.876-4.012,5.287,5.287,0,0,0-2.95,1.41,4.81,4.81,0,0,0-.7.834c-1.486,2.2-.645,5.222,1.29,6.9a4.773,4.773,0,0,0,3.423,1.2,5.329,5.329,0,0,0,4.73-3.885A5.068,5.068,0,0,0,514.75,281.506Z" transform="translate(-395.928 -216.927)" />
        <path d="M289.106,299.8a6.054,6.054,0,0,0-3.1-1.443,6.138,6.138,0,0,0-7.071,5.846v.114a7.035,7.035,0,0,0,.045.86,6,6,0,0,0,4.332,5.289c3.2.815,6.523-1.4,7.428-4.956a7.584,7.584,0,0,0,.159-.8A5.459,5.459,0,0,0,289.106,299.8Z" transform="translate(-218.967 -234.154)" />
        <path class="bad6" d="M295.16,323.809a1.679,1.679,0,1,1-3.236-.823,2,2,0,0,1,.215-.516,1.958,1.958,0,0,1,.323-.419,1.651,1.651,0,0,1,2.139-.148,1.742,1.742,0,0,1,.546.832A2,2,0,0,1,295.16,323.809Z" transform="translate(-229.111 -252.445)" />
        <path class="bad6" d="M314.283,315.213a1.226,1.226,0,0,1-.505.733.985.985,0,0,1-1.453-.37,1.585,1.585,0,0,1-.105-.839,1.425,1.425,0,0,1,.512-1.032.974.974,0,0,1,1.389.591A1.219,1.219,0,0,1,314.283,315.213Z" transform="translate(-245.08 -246.177)" />
        <path d="M419.582,261.568a6.061,6.061,0,0,0-3.414-.112,6.136,6.136,0,0,0-4.208,8.153l.041.105a7.1,7.1,0,0,0,.378.77,6,6,0,0,0,6.061,3.165c3.259-.505,5.448-3.851,4.887-7.473a7.818,7.818,0,0,0-.168-.8,5.457,5.457,0,0,0-3.578-3.81Z" transform="translate(-323.067 -205.092)" />
        <path class="bad6" d="M429.711,288.967a1.68,1.68,0,1,1-3.3.512,2.024,2.024,0,0,1-.011-.557,1.936,1.936,0,0,1,.133-.514,1.66,1.66,0,0,1,1.907-.974,1.719,1.719,0,0,1,.83.55A2.01,2.01,0,0,1,429.711,288.967Z" transform="translate(-334.712 -225.625)" />
        <path class="bad6" d="M443.144,274.749a1.243,1.243,0,0,1-.176.875.987.987,0,0,1-1.484.228,1.561,1.561,0,0,1-.43-.729,1.417,1.417,0,0,1,.067-1.15.97.97,0,0,1,1.505,0A1.213,1.213,0,0,1,443.144,274.749Z" transform="translate(-346.158 -214.788)" />
        <path d="M288.582,209.892a6.061,6.061,0,0,0-3.414-.11,6.134,6.134,0,0,0-4.208,8.151l.041.107a7.311,7.311,0,0,0,.378.77,6.007,6.007,0,0,0,6.061,3.163c3.259-.505,5.448-3.851,4.887-7.473a7.957,7.957,0,0,0-.168-.8A5.461,5.461,0,0,0,288.582,209.892Z" transform="translate(-220.232 -164.527)" />
        <path class="bad6" d="M298.711,237.277a1.68,1.68,0,1,1-3.3.512,2.02,2.02,0,0,1-.011-.557,1.906,1.906,0,0,1,.133-.512,1.659,1.659,0,0,1,1.907-.976,1.72,1.72,0,0,1,.83.553A2,2,0,0,1,298.711,237.277Z" transform="translate(-231.877 -185.048)" />
        <path class="bad6" d="M312.144,223.061a1.238,1.238,0,0,1-.176.873.989.989,0,0,1-1.483.23,1.583,1.583,0,0,1-.43-.729,1.421,1.421,0,0,1,.067-1.152.97.97,0,0,1,1.505,0,1.212,1.212,0,0,1,.518.778Z" transform="translate(-243.323 -174.211)" />
        <path d="M205.085,192.536a4.39,4.39,0,0,0-2.509-.09,4.58,4.58,0,0,0-3.074,6.087l.032.077a5.1,5.1,0,0,0,.279.576,4.415,4.415,0,0,0,4.459,2.378,4.7,4.7,0,0,0,3.575-5.577,5.841,5.841,0,0,0-.127-.6,4.085,4.085,0,0,0-2.636-2.855Z" transform="translate(-156.366 -150.96)" />
        <path class="bad6" d="M212.585,213a1.236,1.236,0,1,1-2.425.376,1.6,1.6,0,0,1,0-.417,1.517,1.517,0,0,1,.1-.383,1.205,1.205,0,0,1,1.4-.725,1.262,1.262,0,0,1,.611.413A1.524,1.524,0,0,1,212.585,213Z" transform="translate(-164.965 -166.297)" />
        <path class="bad6" d="M222.4,202.358a.931.931,0,0,1-.127.645.716.716,0,0,1-1.09.168,1.187,1.187,0,0,1-.314-.546,1.075,1.075,0,0,1,.047-.86.707.707,0,0,1,1.107,0A.922.922,0,0,1,222.4,202.358Z" transform="translate(-173.332 -158.176)" />
        <path d="M387.779,188.346a4.515,4.515,0,0,0-2.552-.084,4.59,4.59,0,0,0-3.148,6.1l.032.08a5.716,5.716,0,0,0,.282.576,4.492,4.492,0,0,0,4.532,2.365,4.729,4.729,0,0,0,3.655-5.59,5.311,5.311,0,0,0-.125-.6,4.085,4.085,0,0,0-2.677-2.849Z" transform="translate(-299.693 -147.672)" />
        <path class="bad6" d="M395.378,208.834a1.256,1.256,0,1,1-2.468.383,1.585,1.585,0,0,1,0-.415,1.5,1.5,0,0,1,.1-.385,1.239,1.239,0,0,1,1.425-.729,1.29,1.29,0,0,1,.621.413,1.49,1.49,0,0,1,.32.733Z" transform="translate(-308.425 -163.026)" />
        <path class="bad6" d="M405.414,198.18a.92.92,0,0,1-.131.645.737.737,0,0,1-1.109.172,1.18,1.18,0,0,1-.318-.544,1.075,1.075,0,0,1,.049-.86.729.729,0,0,1,1.129,0A.909.909,0,0,1,405.414,198.18Z" transform="translate(-316.975 -154.901)" />
        <path d="M158.686,260.751a6.069,6.069,0,0,0-3.1-1.443,6.138,6.138,0,0,0-7.069,5.846v.114a7.071,7.071,0,0,0,.045.86,6,6,0,0,0,4.332,5.287c3.2.817,6.523-1.4,7.428-4.945a7.622,7.622,0,0,0,.159-.8A5.461,5.461,0,0,0,158.686,260.751Z" transform="translate(-116.587 -203.501)" />
        <path class="bad6" d="M164.737,284.761a1.68,1.68,0,1,1-3.238-.826,2.112,2.112,0,0,1,.215-.516,1.96,1.96,0,0,1,.322-.419,1.651,1.651,0,0,1,2.139-.148,1.737,1.737,0,0,1,.544.832A2.006,2.006,0,0,1,164.737,284.761Z" transform="translate(-126.727 -221.791)" />
        <path class="bad6" d="M183.861,276.166a1.238,1.238,0,0,1-.505.735.987.987,0,0,1-1.453-.372,1.554,1.554,0,0,1-.105-.836,1.426,1.426,0,0,1,.512-1.034.973.973,0,0,1,1.387.591A1.21,1.21,0,0,1,183.861,276.166Z" transform="translate(-142.697 -215.526)" />
        <g class="bad2" transform="translate(42.615 37.872)">
          <path class="bad7" d="M198.21,177.362a19.3,19.3,0,0,0,3.532,3.8c.479.374.983.727,1.5,1.062a25.079,25.079,0,0,0,3.238,1.769,28.446,28.446,0,0,0,3.489,1.314q1.737.525,3.515.888t3.578.557c8.531.821,17.066-.645,24.48-5.8.535-.393,1.041-.793,1.531-1.193,1.5-1.053,2.513-2.625,3.973-3.524-2.247-.449-4.042,1.236-5.8,2.133q-.916.49-1.849.931a40.809,40.809,0,0,1-21.7,3.793q-1.825-.189-3.633-.546c-1.337-.258-2.647-.576-3.945-.961q-.974-.288-1.935-.623t-1.924-.72c-2.561-.645-4.919-3.107-7.4-3.3A6.3,6.3,0,0,0,198.21,177.362Z" transform="translate(-198.21 -176.152)" />
        </g>
        <g transform="translate(41.652 37.128)">
          <path class="bad1" d="M193.73,173.453a9.041,9.041,0,0,0,5.54,4.659c10.447,3.031,21.678,6.177,31.957,1.666,1.043-.43,2.068-.892,3.089-1.376,3.062-1.449,6.069-3.057,9.219-4.25a2.3,2.3,0,0,0,.955-.871c.372-.7-1.116-.634-1.471-.456q-2.064.961-4.214,1.774t-4.364,1.464a53.1,53.1,0,0,1-39.775-3.343c-.112-.112-.226.112-.43.273a5.687,5.687,0,0,0-.507.46Z" transform="translate(-193.73 -172.69)" />
        </g>
        <g class="bad2" transform="translate(58.2 42.138)">
          <path class="bad3" d="M284.9,197.7c.174.168.062.393-.049.393-4.605.785-10.784,1.683-14.153-1.686,4.268-.9,8.987-.215,13.283.95C284.112,197.4,284.473,197.51,284.9,197.7Z" transform="translate(-270.7 -195.99)" />
        </g>
        <g class="bad2" transform="translate(48.396 39.224)">
          <path class="bad3" d="M233.894,185.232c-2.475,1.653-5.955-.03-8.428-1.155-.215-.112-.449-.561-.335-.673,2.58-2.135,6.4-.338,8.6,1.529A1.322,1.322,0,0,1,233.894,185.232Z" transform="translate(-225.101 -182.437)" />
        </g>
        <g class="bad2" transform="translate(49.757 84.109)">
          <path class="bad3" d="M233.614,397.06c1.428-3.266,5.248-6.185,8.843-4.5.9.449.9,1.688,1.245,2.711.389-.679.722-1.387,1.075-2.077a14.331,14.331,0,0,1,1.163-1.982,5.535,5.535,0,0,0,1.09,1.982,7.211,7.211,0,0,1,1.21,2.049c.378-.645.7-1.354,1.041-2.042a13.719,13.719,0,0,1,1.152-1.989c.338.675.679,1.471,1.075,2.275a15.028,15.028,0,0,0,1.064,2.331c.561-1.348,1.01-3.143,2.133-3.257a4.119,4.119,0,0,1,3.79,1.505,9.869,9.869,0,0,1,1.217,1.849c1.058,2.032,1.733,4.167,3.193,5.85-2.247-1.234-5.055.114-7.525-.66a6.858,6.858,0,0,1-1.589-.546,4.345,4.345,0,0,1-2.245-2.494c-.335,1.236-.449,2.808-1.46,3.707a15.69,15.69,0,0,1-1.122-3.93c-.9,1.46-1.574,3.031-2.365,4.605-.226-1.574-1.348-2.922-1.348-4.605-.9,1.348-1.574,2.808-2.365,4.156a10.788,10.788,0,0,1-.879-3.27c-.821,2.634-2.872,3.12-5.375,3.1-.63,0-1.266-.069-1.881-.125s-1.206-.12-1.75-.157a3.64,3.64,0,0,0-1.572.449c.673-1.46,1.234-3.034,1.866-4.536C233.408,397.329,233.509,397.2,233.614,397.06Z" transform="translate(-231.43 -391.21)" />
        </g>
        <path d="M234.177,393.059a12.643,12.643,0,0,1,.593-1.21,7.094,7.094,0,0,1,7.291-3.9c1.46.114,1.8,1.8,2.133,3.034.131-.226.256-.449.378-.673a27.552,27.552,0,0,1,1.868-3.259c.449,1.462,1.8,2.472,2.247,3.932.787-1.236,1.348-2.7,2.247-3.932.338.675.673,1.462,1.053,2.247l.318.757c.215.505.43,1,.645,1.49a8.359,8.359,0,0,1,.58-1.1c.768-.806.993-2.378,1.892-2.378,3.369,0,4.717,4.042,6.039,6.708l.43.86c.43.86.888,1.7,1.29,2.541a2.641,2.641,0,0,0-1.124-.563c-2.808-.785-5.728-.112-8.221-1.69a5.384,5.384,0,0,1-.821-.591,4.162,4.162,0,0,1-1.178-1.649c-.338,1.234-.449,2.58-1.574,3.369a8.89,8.89,0,0,1-.793-2.672c-.045-.307-.08-.617-.11-.927-.215.282-.447.563-.645.86a5.074,5.074,0,0,0-.516.907c-.116.193-.228.389-.338.587-.329.591-.645,1.2-.965,1.808a5.214,5.214,0,0,0-.576-2.133c-.1-.226-.2-.449-.288-.679a4.441,4.441,0,0,1-.372-1.456c-.335.449-.561.9-.927,1.4-.144.234-.282.471-.415.709s-.267.479-.4.722c-.172.325-.34.656-.507.991a10.5,10.5,0,0,1-.675-3.257,4.11,4.11,0,0,1-2.98,3.12,8.533,8.533,0,0,1-.875.215,5.851,5.851,0,0,1-.83.215c-2.055.043-4.3-.069-5.986,1.391.449-1.572,1.01-3.034,1.5-4.571.092-.247.2-.5.312-.746C233.973,393.371,234.074,393.216,234.177,393.059Z" transform="translate(-182.175 -303.835)" />
        <path class="bad5" d="M85.9,207.242a2.436,2.436,0,0,1-2.208-2.273c-.3-4.272,1.838-11.18,7.243-10.75a1.956,1.956,0,0,1,1.683,2.131c-.559,3.833-2.066,8.148-5.669,10.189A11.161,11.161,0,0,1,85.9,207.242Z" transform="translate(-65.674 -152.448)" />
        <path class="bad5" d="M119.231,159.8a3.328,3.328,0,0,1-2.1-2.879,7.478,7.478,0,0,1,4.317-5.607,3.947,3.947,0,0,1,.722-.151,3.866,3.866,0,0,1,3.249,1.791,4.3,4.3,0,0,1,.475.877,2.95,2.95,0,0,1,.024,2.019,3.426,3.426,0,0,1-.279.58,8.165,8.165,0,0,1-5.571,3.378A6.1,6.1,0,0,1,119.231,159.8Z" transform="translate(-91.946 -118.659)" />
        <g class="bad2" transform="translate(107.496 90.177)">
          <path class="bad3" d="M504.261,419.43a1.551,1.551,0,0,1,1.406,1.447c.194,2.722-1.163,7.125-4.6,6.846a1.247,1.247,0,0,1-1.075-1.359c.357-2.442,1.318-5.192,3.614-6.493a6.579,6.579,0,0,1,.658-.441Z" transform="translate(-499.986 -419.43)" />
        </g>
        <g class="bad2" transform="translate(102.905 98.86)">
          <path class="bad3" d="M483,459.832a2.137,2.137,0,0,1,1.339,1.834,4.779,4.779,0,0,1-2.752,3.573,2.5,2.5,0,0,1-.46.1,2.442,2.442,0,0,1-2.07-1.142,2.767,2.767,0,0,1-.3-.559,1.888,1.888,0,0,1-.013-1.29,2.17,2.17,0,0,1,.178-.37,5.189,5.189,0,0,1,3.55-2.15A3.694,3.694,0,0,1,483,459.832Z" transform="translate(-478.631 -459.819)" />
        </g>
        <g class="bad2" transform="translate(117.055 24.466)">
          <path class="bad3" d="M544.476,114.2a1.15,1.15,0,0,1,1.483-.252c1.752,1.032,3.87,3.73,2.253,5.728a.929.929,0,0,1-1.29.084c-1.348-1.251-2.632-3.01-2.46-4.962A5.58,5.58,0,0,1,544.476,114.2Z" transform="translate(-544.448 -113.796)" />
        </g>
        <g class="bad2" transform="translate(119.878 31.039)">
          <path class="bad3" d="M558.22,144.642a1.574,1.574,0,0,1,1.692-.047,3.556,3.556,0,0,1,1.032,3.2,1.7,1.7,0,0,1-.135.325,1.833,1.833,0,0,1-1.576.789,2.025,2.025,0,0,1-.471-.052,1.4,1.4,0,0,1-.8-.533,1.551,1.551,0,0,1-.151-.267,3.87,3.87,0,0,1,.178-3.09,2.7,2.7,0,0,1,.226-.323Z" transform="translate(-557.576 -144.366)" />
        </g>
        <g class="bad2" transform="translate(6.903 40.631)">
          <path class="bad3" d="M33.1,195.058a1.151,1.151,0,0,1-.991-1.133c-.037-2.034,1.148-5.259,3.7-4.917a.929.929,0,0,1,.746,1.053c-.361,1.8-1.182,3.814-2.941,4.693A5.428,5.428,0,0,1,33.1,195.058Z" transform="translate(-32.106 -188.983)" />
        </g>
        <g class="bad2" transform="translate(10.655 36.381)">
          <path class="bad3" d="M50.484,173.24a1.587,1.587,0,0,1-.924-1.417,3.579,3.579,0,0,1,2.184-2.552,1.837,1.837,0,0,1,.348-.054,1.861,1.861,0,0,1,1.5.931,2.045,2.045,0,0,1,.2.43,1.389,1.389,0,0,1-.039.957,1.436,1.436,0,0,1-.148.269,3.87,3.87,0,0,1-2.724,1.464A2.967,2.967,0,0,1,50.484,173.24Z" transform="translate(-49.556 -169.217)" />
        </g>
        <g class="bad2" transform="translate(30.147 14.074)">
          <path class="bad3" d="M140.873,70.717a1.15,1.15,0,0,1-.623-1.37c.548-1.959,2.612-4.706,4.96-3.655a.931.931,0,0,1,.411,1.223c-.86,1.625-2.23,3.313-4.167,3.655a5.4,5.4,0,0,1-.581.146Z" transform="translate(-140.219 -65.46)" />
        </g>
        <g class="bad2" transform="translate(35.589 10.918)">
          <path class="bad3" d="M166.089,54.22a1.588,1.588,0,0,1-.479-1.623,3.562,3.562,0,0,1,2.827-1.817,1.935,1.935,0,0,1,.348.049,1.835,1.835,0,0,1,1.165,1.322,2.065,2.065,0,0,1,.073.469,1.406,1.406,0,0,1-.305.905,1.6,1.6,0,0,1-.215.215,3.87,3.87,0,0,1-3.031.617,2.8,2.8,0,0,1-.383-.138Z" transform="translate(-165.532 -50.78)" />
        </g>
      </g>
    </g>
  </g>
</svg>
