<svg xmlns="http://www.w3.org/2000/svg" width="166.557" height="166.05" viewBox="0 0 166.557 166.05">
  <defs>
    <style>
      .best1{fill:#bababa;}.best2{fill:gray;}.best3{fill:#fff;}.best4{fill:#582a1a;}.best5{fill:#452114;}.best6{fill:#757575;}.best7{fill:#525252;}.best8{fill:#3d3d3d;}.best9{fill:#2e2e2e;}.best10{fill:#915f14;}.best11{fill:#ffa724;}.best12{fill:#d98d1e;}.best13{fill:#d43131;}.best14,.best15{fill:#7208c0;}.best14{opacity:0.6;}.best16{fill:#303030;}.best17{fill:#283b12;}</style>
  </defs>
  <g transform="translate(-0.001 0)">
    <g transform="translate(0.001 0)">
      <path class="best1" d="M353.619,212.378l-7.049-.618,1.967,5.764,5.2-4.8a.2.2,0,0,0-.121-.35Z" transform="translate(-287.607 -175.732)" />
      <path class="best2" d="M352.34,218.313l.985,2.892,5.2-4.8a.2.2,0,0,0,.051-.219Z" transform="translate(-292.395 -179.409)" />
      <path class="best3" d="M349.4,213.846l5.885-.138-6.349-.478Z" transform="translate(-289.573 -176.952)" />
      <path class="best1" d="M346.714,257.51l-1.9,3.872,5.01.2a.145.145,0,0,0,.116-.237Z" transform="translate(-286.146 -213.699)" />
      <path class="best2" d="M344.85,270.727l5.01.2a.145.145,0,0,0,.134-.08l-4.182-2.081Z" transform="translate(-286.179 -223.043)" />
      <path class="best1" d="M318.742,173.366,314.9,176.59l3.874,1.9.2-5.01a.143.143,0,0,0-.235-.116Z" transform="translate(-261.325 -143.843)" />
      <path class="best2" d="M314.9,176.592l1.958.961,2.023-4.211a.146.146,0,0,0-.14.026Z" transform="translate(-261.325 -143.845)" />
      <path class="best1" d="M269.859,291.509a.143.143,0,0,0,.235.116l3.842-3.222-3.874-1.9Z" transform="translate(-223.947 -237.756)" />
      <path class="best2" d="M269.858,291.509a.138.138,0,0,0,.1.141l1.934-4.253-1.827-.9Z" transform="translate(-223.946 -237.756)" />
      <path class="best1" d="M233.576,208.924l3.222,3.842,1.9-3.872-5.01-.2a.143.143,0,0,0-.116.235Z" transform="translate(-193.809 -173.184)" />
      <path class="best2" d="M233.575,209.273l3.222,3.842.958-1.95-4.194-2.055A.14.14,0,0,0,233.575,209.273Z" transform="translate(-193.808 -173.533)" />
      <path class="best1" d="M308.606,294.038a.2.2,0,0,0,.35-.119l.618-7.049-5.764,1.965Z" transform="translate(-252.122 -238.063)" />
      <path class="best2" d="M303.84,293.585l4.791,5.208a.2.2,0,0,0,.219.053l-2.123-6.246Z" transform="translate(-252.146 -242.819)" />
      <path class="best1" d="M271.906,160.605l-.616,7.055,5.762-1.965-4.791-5.21a.2.2,0,0,0-.356.119Z" transform="translate(-225.134 -133.123)" />
      <path class="best2" d="M271.906,160.675l-.616,7.055,2.892-.985-2.135-6.246A.2.2,0,0,0,271.906,160.675Z" transform="translate(-225.134 -133.193)" />
      <rect class="best4" width="39.328" height="3.483" transform="matrix(0.946, -0.323, 0.323, 0.946, 3.721, 56.25)" />
      <rect class="best5" width="39.328" height="1.742" transform="matrix(0.946, -0.323, 0.323, 0.946, 4.284, 57.897)" />
      <path class="best1" d="M13.57,328.781a.534.534,0,0,0-.681-.34l-.647.221a.536.536,0,0,0-.34.681l1.13,3.314a.536.536,0,0,0,.681.34l.645-.219a.536.536,0,0,0,.34-.681Z" transform="translate(-9.854 -272.537)" />
      <path class="best1" d="M242.116,250.823a.536.536,0,0,0-.681-.34l-.645.221a.534.534,0,0,0-.34.681l1.131,3.314a.536.536,0,0,0,.681.34l.645-.219a.536.536,0,0,0,.34-.681Z" transform="translate(-199.518 -207.843)" />
      <path class="best2" d="M245.65,262.35l-1.65.567.565,1.657a.536.536,0,0,0,.681.34l.645-.219a.536.536,0,0,0,.34-.681Z" transform="translate(-202.487 -217.715)" />
      <path class="best2" d="M17.069,340.31l-1.659.567.565,1.657a.536.536,0,0,0,.681.34l.645-.219a.536.536,0,0,0,.34-.681Z" transform="translate(-12.788 -282.411)" />
      <path class="best6" d="M1.172,334.2A1.729,1.729,0,0,0,.095,336.4l.01.032A1.73,1.73,0,0,0,2.3,337.509l.886-.3L2.058,333.9Z" transform="translate(-0.001 -277.092)" />
      <path class="best7" d="M.55,344.48l.01.032a1.73,1.73,0,0,0,2.195,1.079l.886-.3-.563-1.649Z" transform="translate(-0.457 -285.175)" />
      <path class="best8" d="M257,191.772a9.14,9.14,0,1,0,11.6,5.7A9.14,9.14,0,0,0,257,191.772Z" transform="translate(-208.133 -158.737)" />
      <path class="best9" d="M254.731,222.66a8.625,8.625,0,1,0,15.482,7.605C267.28,231.565,256.807,226.309,254.731,222.66Z" transform="translate(-210.658 -184.778)" />
      <path class="best1" d="M288.7,227.27a3.045,3.045,0,1,0,3.865,1.9A3.045,3.045,0,0,0,288.7,227.27Z" transform="translate(-237.868 -188.468)" />
      <path class="best2" d="M291.529,238.375c-1.436-.437-1.691-2.419-2.319-1.138a2.584,2.584,0,1,0,4.638,2.278C294.478,238.237,291.529,238.375,291.529,238.375Z" transform="translate(-239.763 -196.522)" />
      <path class="best3" d="M281.008,167.352l.772-.008-4.26-4.733Z" transform="translate(-230.304 -134.944)" />
      <path class="best3" d="M300.49,228.637a9.188,9.188,0,0,1,3.343,1.849A3.066,3.066,0,0,0,300.49,228.637Z" transform="translate(-249.366 -189.707)" />
      <path class="best3" d="M336.864,179.845l.192-4.345-.236.376Z" transform="translate(-279.515 -145.641)" />
      <path class="best3" d="M239.776,209.909l.318-.466-4.514-.213Z" transform="translate(-195.5 -173.633)" />
      <path class="best3" d="M355.81,260.584l3.234,2.84-3.073-3.444Z" transform="translate(-295.275 -215.748)" />
      <rect class="best10" width="4.454" height="2.84" transform="matrix(0.299, -0.954, 0.954, 0.299, 160.364, 38.831)" />
      <rect class="best10" width="1.994" height="3.656" transform="matrix(0.299, -0.954, 0.954, 0.299, 143.12, 21.795)" />
      <rect class="best10" width="1.994" height="3.656" transform="matrix(0.299, -0.954, 0.954, 0.299, 137.225, 40.616)" />
      <path class="best1" d="M278,9.8s13.463.706,16.911,1.871l75.9,21.337L372.27,27.7S318.286.957,309.315.189C288.523-1.59,278,9.8,278,9.8Z" transform="translate(-230.703 0)" />
      <rect class="best11" width="4.454" height="18.541" transform="translate(142.646 33.279) rotate(-72.62)" />
      <rect class="best12" width="2.227" height="18.541" transform="translate(142.646 33.28) rotate(-72.62)" />
      <rect class="best10" width="4.454" height="4.048" transform="matrix(0.299, -0.954, 0.954, 0.299, 142.666, 33.291)" />
      <path class="best11" d="M811.937,136.337l-1.967,8.687,3.489,1.092,3.4-8.238,1.905-8.706-3.489-1.092Z" transform="translate(-672.166 -106.289)" />
      <path class="best12" d="M823.309,139.9l-3.079,8.338,1.744.546,3.4-8.238,1.906-8.706-1.744-.546Z" transform="translate(-680.68 -108.953)" />
      <path class="best11" d="M843.239,100.154a2.719,2.719,0,1,0,1.9,3.44A2.779,2.779,0,0,0,843.239,100.154Z" transform="translate(-696.753 -83.001)" />
      <path class="best12" d="M853.083,100.82,851.46,106a2.719,2.719,0,1,0,1.623-5.184Z" transform="translate(-706.597 -83.667)" />
      <path class="best13" d="M848.532,105.963a1.749,1.749,0,1,0,1.222,2.212A1.79,1.79,0,0,0,848.532,105.963Z" transform="translate(-702.344 -87.887)" />
      <path class="best11" d="M949.349,204.8a2.719,2.719,0,1,0,1.9,3.44A2.781,2.781,0,0,0,949.349,204.8Z" transform="translate(-784.81 -169.842)" />
      <path class="best12" d="M947.726,219.125a2.778,2.778,0,0,0,3.522-1.744l-5.421-1.7A2.783,2.783,0,0,0,947.726,219.125Z" transform="translate(-784.81 -178.985)" />
      <path class="best13" d="M954.692,210.6a1.749,1.749,0,1,0,1.222,2.212,1.788,1.788,0,0,0-1.222-2.212Z" transform="translate(-790.442 -174.724)" />
      <path class="best11" d="M802.469,230.214a2.719,2.719,0,1,0,1.9,3.44A2.778,2.778,0,0,0,802.469,230.214Z" transform="translate(-662.92 -190.933)" />
      <path class="best12" d="M812.313,230.88l-1.623,5.184a2.719,2.719,0,1,0,1.623-5.184Z" transform="translate(-672.764 -191.599)" />
      <path class="best13" d="M807.812,236.023a1.749,1.749,0,1,0,1.222,2.212A1.79,1.79,0,0,0,807.812,236.023Z" transform="translate(-668.552 -195.819)" />
      <path class="best3" d="M296.66,16.083s17.963-6.766,27.211-3.91c3.042.939,61.505,23.285,61.505,23.285S329.806,10.511,325.583,9.795C311.111,7.336,296.66,16.083,296.66,16.083Z" transform="translate(-246.188 -7.767)" />
      <path class="best14" d="M774.258,486.727a3.946,3.946,0,0,0-5.652,3.484,18.207,18.207,0,0,1-10.576,3.683c.1.274.927,2.623,1.021,2.892A15.885,15.885,0,0,1,769.671,493a3.949,3.949,0,1,0,4.578-6.266Z" transform="translate(-629.063 -403.597)" />
      <path class="best14" d="M765.224,707.03a3.915,3.915,0,0,0-1.409.873,18.212,18.212,0,0,1-10.082-4.873L752.41,705.8A15.892,15.892,0,0,1,762.6,710.63a3.949,3.949,0,1,0,2.625-3.6Z" transform="translate(-624.399 -583.42)" />
      <path class="best14" d="M631.05,837.342a3.965,3.965,0,0,0-1.615-.378,18.218,18.218,0,0,1-3.683-10.574l-2.892,1.021a15.862,15.862,0,0,1,3.791,10.618,3.947,3.947,0,1,0,4.4-.687Z" transform="translate(-516.89 -685.792)" />
      <path class="best14" d="M407.626,820.74a15.882,15.882,0,0,1-4.83,10.189,3.912,3.912,0,0,0-1.443.216,3.973,3.973,0,1,0,4.172,1,18.207,18.207,0,0,1,4.873-10.084Z" transform="translate(-330.856 -681.104)" />
      <path class="best14" d="M242.181,694.957a3.914,3.914,0,0,0-1.174-.868,3.973,3.973,0,1,0,2.242,3.656,18.207,18.207,0,0,1,10.576-3.683L252.8,691.17A15.9,15.9,0,0,1,242.181,694.957Z" transform="translate(-195.271 -573.578)" />
      <path class="best14" d="M251.192,471.113a3.971,3.971,0,1,0-1.216,2.722,18.212,18.212,0,0,1,10.082,4.873l1.324-2.771A15.857,15.857,0,0,1,251.192,471.113Z" transform="translate(-201.867 -387.548)" />
      <path class="best14" d="M424.575,310.692a3.965,3.965,0,1,0-2.789,1.068,18.216,18.216,0,0,1,3.685,10.576l2.892-1.021A15.9,15.9,0,0,1,424.575,310.692Z" transform="translate(-346.805 -252.157)" />
      <path class="best15" d="M641.124,312.06a3.939,3.939,0,0,0-1.531,6.452A18.22,18.22,0,0,1,634.72,328.6l2.77,1.322a15.892,15.892,0,0,1,4.828-10.189,3.913,3.913,0,0,0,1.444-.216,3.952,3.952,0,0,0-2.637-7.452Z" transform="translate(-526.732 -258.779)" />
      <circle class="best14" cx="38.571" cy="38.571" r="38.571" transform="translate(39.384 105.388) rotate(-45)" />
      <circle class="best15" cx="33.455" cy="33.455" r="33.455" transform="translate(57.33 75.469) rotate(-5.67)" />
      <path class="best15" d="M712.78,416.668l2.673,2.673a19.464,19.464,0,0,1,9.878-9.878l-2.673-2.673A22.279,22.279,0,0,1,712.78,416.668Z" transform="translate(-591.511 -337.581)" />
      <path class="best15" d="M772.646,367.53a4.866,4.866,0,1,0,4.866,4.866A4.866,4.866,0,0,0,772.646,367.53Z" transform="translate(-637.154 -305)" />
      <path class="best14" d="M540.138,314.75a22.267,22.267,0,0,1-.419,13.963l3.779.114a19.461,19.461,0,0,1,.417-13.963Z" transform="translate(-447.895 -261.2)" />
      <path class="best15" d="M526.389,262.206a4.866,4.866,0,1,0,6.879.206A4.866,4.866,0,0,0,526.389,262.206Z" transform="translate(-435.563 -216.497)" />
      <path class="best14" d="M333.093,395.49l-2.753,2.591a22.231,22.231,0,0,1,9.579,10.169l2.753-2.593A19.454,19.454,0,0,1,333.093,395.49Z" transform="translate(-274.138 -328.203)" />
      <path class="best15" d="M296.848,356.278a4.864,4.864,0,1,0,4.711,5.009A4.864,4.864,0,0,0,296.848,356.278Z" transform="translate(-242.182 -295.661)" />
      <path class="best15" d="M248.532,606.16l-.112,3.779a22.272,22.272,0,0,1,13.963.417c.01-.357.1-3.421.112-3.779A19.461,19.461,0,0,1,248.532,606.16Z" transform="translate(-206.155 -503.031)" />
      <path class="best15" d="M196.087,589.8a4.866,4.866,0,1,0,3.485-1.325A4.866,4.866,0,0,0,196.087,589.8Z" transform="translate(-161.46 -488.349)" />
      <path class="best15" d="M329.15,777.279l2.591,2.751a22.231,22.231,0,0,1,10.169-9.579l-2.593-2.751A19.418,19.418,0,0,1,329.15,777.279Z" transform="translate(-273.15 -637.087)" />
      <path class="best15" d="M294.945,821.5a4.864,4.864,0,1,0,3.4,1.53A4.866,4.866,0,0,0,294.945,821.5Z" transform="translate(-240.606 -681.732)" />
      <path class="best15" d="M540.237,839.4a19.461,19.461,0,0,1-.417,13.963l3.779.112a22.272,22.272,0,0,1,.417-13.963Z" transform="translate(-447.978 -696.589)" />
      <path class="best15" d="M523.684,920.133a4.864,4.864,0,1,0,6.877.206A4.864,4.864,0,0,0,523.684,920.133Z" transform="translate(-433.319 -762.488)" />
      <path class="best15" d="M704.141,766.4l-2.751,2.591a19.491,19.491,0,0,1,9.579,10.169l2.751-2.593A22.277,22.277,0,0,1,704.141,766.4Z" transform="translate(-582.059 -636.009)" />
      <path class="best15" d="M760.164,823.419a4.866,4.866,0,1,0,4.718,5.009,4.866,4.866,0,0,0-4.718-5.009Z" transform="translate(-626.675 -683.325)" />
      <path class="best15" d="M773.172,606.06c-.01.357-.1,3.421-.112,3.779a19.461,19.461,0,0,1,13.963.417l.112-3.779A22.272,22.272,0,0,1,773.172,606.06Z" transform="translate(-641.536 -502.948)" />
      <path class="best15" d="M854,592.546a4.864,4.864,0,1,0,6.877.206A4.864,4.864,0,0,0,854,592.546Z" transform="translate(-707.44 -490.636)" />
      <path class="best16" d="M624.034,520.792a6.654,6.654,0,0,0-11.292-1.084l-2.865,3.8a6.653,6.653,0,0,0,5.264,10.661l4.74.036a6.657,6.657,0,0,0,6.026-9.577Z" transform="translate(-504.992 -429.089)" />
      <path class="best16" d="M417.94,424.834c14.812,5.158,35.485,20.112,35.485,20.112l3.316-3.937s-19.458-14.73-36.77-17.849a12.057,12.057,0,0,1-2.031,1.674Z" transform="translate(-346.834 -351.166)" />
      <path class="best16" d="M692.269,587.271a2.731,2.731,0,0,0-3.171,3.161c9.57,3.233,13.817,16.5,13.817,16.5l.57-3.855S700.786,592.633,692.269,587.271Z" transform="translate(-571.824 -487.32)" />
      <path class="best3" d="M444.873,572.437c6.452,0,11.681-4.332,11.681-9.677H433.19C433.19,568.106,438.42,572.437,444.873,572.437Z" transform="translate(-359.489 -467.015)" />
      <path class="best17" d="M484.159,567.068c2,0,3.629-1.929,3.629-4.308H480.53C480.53,565.139,482.155,567.068,484.159,567.068Z" transform="translate(-398.775 -467.015)" />
      <path class="best3" d="M516.94,686.7c3.478,3.044,1.919,7.785,1.919,7.785s10.606-6.787,19.518-6.295C528.519,683.015,520.426,685.1,516.94,686.7Z" transform="translate(-428.991 -568.374)" />
      <path class="best15" d="M752.9,221.3c.271,1.438,6.246,35.32-26.031,45.606l1.567,4.917c36.674-11.687,29.6-51.09,29.535-51.486Z" transform="translate(-603.204 -182.853)" />
      <path class="best15" d="M107.8,339.3l-5.155.231c.017.4,2.23,40.373,40.613,43.287l.391-5.147C109.862,375.107,107.863,340.76,107.8,339.3Z" transform="translate(-85.178 -281.573)" />
      <path class="best14" d="M867.237,164.476l-7.059-2.191c-2.178-.681-4.653,1.072-5.528,3.9l-.073.238c-.876,2.828.18,5.667,2.36,6.341L864,174.949c2.178.681,4.653-1.074,5.528-3.9l.073-.238C870.473,167.987,869.416,165.149,867.237,164.476Z" transform="translate(-708.928 -134.552)" />
      <path class="best15" d="M877.879,176.082,873.1,174.6c-1.473-.456-3.148.727-3.743,2.639l-.051.162c-.59,1.912.124,3.833,1.6,4.289l4.777,1.478c1.472.454,3.146-.727,3.743-2.641l.051-.16C880.067,178.457,879.353,176.536,877.879,176.082Z" transform="translate(-721.238 -144.816)" />
      <path class="best14" d="M81.637,277.807c-.876-2.828-3.35-4.575-5.529-3.9l-7.062,2.185c-2.178.681-3.233,3.513-2.36,6.341l.075.238c.874,2.829,3.35,4.575,5.528,3.9l7.062-2.185c2.178-.681,3.233-3.513,2.36-6.341Z" transform="translate(-55.086 -227.185)" />
      <path class="best15" d="M91.551,288.815c-.592-1.912-2.266-3.093-3.743-2.639l-4.777,1.478c-1.473.456-2.188,2.382-1.6,4.289l.049.162c.592,1.912,2.266,3.095,3.743,2.639L90,293.265c1.473-.456,2.188-2.382,1.6-4.289Z" transform="translate(-67.408 -237.407)" />
    </g>
  </g>
</svg>
