<svg xmlns="http://www.w3.org/2000/svg" width="148.494" height="145.385" viewBox="-30 -50 200 200">
  <defs>
    <style>.good1{fill:#12b47a;}.good2,.good4{fill:#15a064;}.good2,.good3{opacity:0.63;}.good5{fill:#3970c6;}.good6{fill:#fff;}.good7{fill:#071d35;}.good8{fill:#ef5974;}</style>
  </defs>
  <g transform="translate(0.01 0)">
    <g transform="translate(-0.01 0)">
      <g transform="translate(0)">
        <path class="good1" d="M183.466,112.738a58.38,58.38,0,0,0-18.3-11.066l1.181.515c-14.855-5.285-31.2-5.766-45.276,1.992A67.753,67.753,0,0,0,97.74,126.242a44.687,44.687,0,0,0-7.419,26.06c.339,14.218,7.417,27.076,18.152,36.165,9.824,8.311,22.541,13.443,35.489,13.324,12.858-.115,25.119-5.775,34.382-14.544,19.549-18.5,25.623-51.316,6.877-72.644q-.848-.959-1.74-1.868C176.41,106.569,192.881,122.238,183.466,112.738Z" transform="translate(-70.664 -76.901)" />
        <path class="good1" d="M268.369,0C263.7,0,258.762-.022,254.3,1.522c-2.64.913-6.812,4.082-4.717,7.356,1.614,2.514,5.744,3.134,8.415,3.569a69.99,69.99,0,0,0,13.324.692,46.548,46.548,0,0,0,10.6-1.192c2.131-.574,6.777-3.232,5.74-6.055s-5.872-3.826-8.4-4.43A49.688,49.688,0,0,0,268.632,0Z" transform="translate(-194.853 0)" />
        <path class="good2" d="M295.913,47.4c4.785,2.392,4.309,7.9,4.548,12.447,1.435-.241,4.785,0,5.983.716.957-6.464.239-11.49,7.177-13.163h0c-5.028-2.634-13.165-2.155-18.911-1.916a8.125,8.125,0,0,0,3.591,3.349Z" transform="translate(-230.609 -35.441)" />
        <path class="good1" d="M2.946,165.72c-1.459,4.435-3.023,9.12-2.954,13.841.043,2.8,1.74,7.756,5.514,6.784,2.891-.746,4.772-4.476,6.014-6.879a69.949,69.949,0,0,0,4.824-12.439,46.3,46.3,0,0,0,2.175-10.44c.12-2.2-.95-7.447-3.956-7.343-3.045.109-5.47,4.378-6.834,6.594a48.648,48.648,0,0,0-4.691,9.639c-.022.076-.057.159-.08.244Z" transform="translate(0.01 -116.783)" />
        <path class="good2" d="M46.1,217.53c3.771-3.8,8.848-1.625,13.243-.435.217-1.44,1.5-4.548,2.553-5.459C56.059,208.7,51.059,207.816,51.64,200.7h0c-4.074,3.95-6.164,11.83-7.73,17.365a8.128,8.128,0,0,0,4.306-2.366Z" transform="translate(-34.357 -157.048)" />
        <path class="good1" d="M613.066,145.712c1.459,4.433,3.023,9.117,2.951,13.837-.044,2.8-1.74,7.76-5.514,6.788-2.888-.748-4.772-4.478-6.018-6.882a70.054,70.054,0,0,1-4.824-12.439,46.541,46.541,0,0,1-2.175-10.44c-.122-2.2.951-7.447,3.958-7.343s5.468,4.378,6.834,6.594a49.534,49.534,0,0,1,4.709,9.644c.024.076.057.159.083.244C614.858,151.169,611.272,140.255,613.066,145.712Z" transform="translate(-467.526 -101.125)" />
        <path class="good2" d="M571.937,197.536c-3.774-3.8-8.85-1.625-13.246-.435-.218-1.442-1.5-4.55-2.551-5.461,5.842-2.925,10.844-3.813,10.259-10.929h0c4.076,3.95,6.162,11.83,7.73,17.365a8.151,8.151,0,0,1-4.306-2.366Z" transform="translate(-435.179 -141.406)" />
        <path class="good1" d="M177.088,607.77c4.552,1.024,9.368,2.129,14.059,1.6,2.78-.311,7.554-2.486,6.22-6.142-1.022-2.8-4.918-4.315-7.428-5.322a69.937,69.937,0,0,0-12.85-3.6,47.412,47.412,0,0,0-10.605-1.159c-2.2.094-7.319,1.668-6.923,4.648.4,3.014,4.883,5.022,7.221,6.166a49.533,49.533,0,0,0,10.057,3.754c.076.015.163.041.248.057C182.695,609.03,171.483,606.515,177.088,607.77Z" transform="translate(-124.838 -464.123)" />
        <path class="good2" d="M226.962,560.633c-4.145-3.384-2.473-8.652-1.71-13.141-1.455-.083-4.67-1.05-5.679-2.012-2.351,6.09-2.754,11.158-9.894,11.271h0c4.324,3.669,12.373,4.989,18.033,6.012a8.088,8.088,0,0,0-2.773-4.056Z" transform="translate(-164.073 -426.84)" />
        <path class="good1" d="M536.857,466.811c2.636-3.843,5.437-7.908,6.7-12.46.742-2.7.492-7.934-3.4-8.047-2.982-.091-5.829,2.967-7.7,4.928a70.289,70.289,0,0,0-8.106,10.59,46.548,46.548,0,0,0-5,9.424c-.729,2.077-1.161,7.414,1.755,8.156s6.471-2.675,8.4-4.422a49.7,49.7,0,0,0,7.214-7.947c.046-.065.1-.137.15-.217C540.1,462.076,533.609,471.552,536.857,466.811Z" transform="translate(-405.97 -349.232)" />
        <path class="good2" d="M517.35,466.554c-4.683,2.6-8.952-.911-12.832-3.284-.618,1.318-2.71,3.948-3.978,4.528,4.785,4.448,9.352,6.695,6.8,13.365h0c5-2.651,9.224-9.637,12.273-14.514a8.122,8.122,0,0,0-4.8,1.07Z" transform="translate(-391.672 -362.51)" />
        <path class="good1" d="M115.089,65.023c-2.61,2.342-5.394,4.811-7.116,7.915-1.024,1.84-1.77,5.716,1.048,6.494,2.175.594,4.785-1.131,6.507-2.227a52.517,52.517,0,0,0,7.808-6.307,35.219,35.219,0,0,0,5.342-5.994c.9-1.392,2.175-5.22.174-6.273s-5.209.8-6.934,1.74a36.922,36.922,0,0,0-6.684,4.526C115.185,64.936,115.137,64.977,115.089,65.023Z" transform="translate(-83.767 -45.633)" />
        <path class="good2" d="M144.522,106.893c3.882-1.066,6.379,2.264,8.8,4.687a9.666,9.666,0,0,1,3.713-2.61c-2.708-4.091-5.644-6.547-2.6-10.971h0c-4.132,1.051-8.454,5.409-11.553,8.426a6.176,6.176,0,0,0,3.7.072Z" transform="translate(-111.802 -76.685)" />
        <path class="good1" d="M389.442,584.155c3.43-1.727,7.075-3.534,9.787-6.318,1.609-1.651,3.508-5.524.755-7.158-2.118-1.253-5.383-.178-7.51.487a57.789,57.789,0,0,0-10.053,4.417,38.31,38.31,0,0,0-7.356,4.8c-1.357,1.209-3.791,4.883-1.986,6.577s5.729.652,7.817.152a40.312,40.312,0,0,0,8.354-2.858c.067-.028.128-.063.194-.1Z" transform="translate(-291.431 -446.106)" />
        <path class="good2" d="M411.246,553.448c-4.406,0-6.09-4.219-7.947-7.478a10.28,10.28,0,0,1-4.667,1.688c1.686,5.109,4.074,8.539-.411,12.341h0c4.667.074,10.479-3.289,14.611-5.585a6.636,6.636,0,0,0-3.876-1.135Z" transform="translate(-311.606 -427.224)" />
        <path class="good1" d="M471.487,54.443c2.61,2.342,5.394,4.809,7.114,7.913,1.027,1.84,1.773,5.714-1.048,6.494-2.175.6-4.785-1.129-6.505-2.227a52.406,52.406,0,0,1-7.808-6.307,35.3,35.3,0,0,1-5.342-5.992c-.9-1.392-2.175-5.22-.174-6.277s5.209.807,6.932,1.74a37.232,37.232,0,0,1,6.686,4.528l.146.13C474.7,57.325,468.261,51.557,471.487,54.443Z" transform="translate(-357.336 -37.35)" />
        <path class="good2" d="M473.39,96.292c-3.882-1.064-6.377,2.264-8.8,4.689a9.474,9.474,0,0,0-3.713-2.61c2.71-4.1,5.638-6.553,2.593-10.981h0c4.132,1.051,8.454,5.411,11.553,8.426a6.076,6.076,0,0,1-3.7.072Z" transform="translate(-360.638 -68.383)" />
        <path class="good1" d="M613.071,320.372c-.842,3.4-1.716,7.021-3.647,9.994-1.146,1.77-4.219,4.248-6.229,2.125-1.544-1.633-1.248-4.765-1.087-6.792a52.263,52.263,0,0,1,1.9-9.853,35,35,0,0,1,2.784-7.53c.8-1.446,3.587-4.361,5.459-3.095s1.74,4.976,1.718,6.936a36.736,36.736,0,0,1-.857,8.026c-.013.063-.033.124-.046.189C612.027,324.566,614.1,316.177,613.071,320.372Z" transform="translate(-471.044 -238.594)" />
        <path class="good2" d="M576.265,347.134c-.883-3.928-5-4.567-8.265-5.566a9.385,9.385,0,0,0,.557-4.5c4.894.468,8.43,1.9,10.91-2.867h0c1.018,4.15-.807,10-2.014,14.157a6.068,6.068,0,0,1-1.8-3.23Z" transform="translate(-444.46 -261.513)" />
        <path class="good1" d="M17.323,355.673c1.044,3.352,2.125,6.906,4.23,9.766,1.248,1.7,4.456,3.989,6.342,1.753,1.444-1.723.966-4.826.683-6.845a52.66,52.66,0,0,0-2.475-9.724,35.372,35.372,0,0,0-3.225-7.349c-.887-1.4-3.832-4.148-5.629-2.773s-1.44,5.07-1.3,7.025a36.881,36.881,0,0,0,1.327,7.965c.015.057.037.12.057.183C18.606,359.8,16.039,351.545,17.323,355.673Z" transform="translate(-12.379 -266.15)" />
        <path class="good2" d="M55.807,380.724c.652-3.974,4.713-4.859,7.926-6.046a9.474,9.474,0,0,1-.822-4.463c-4.846.757-8.3,2.395-11.06-2.214h0c-.77,4.2,1.394,9.935,2.845,14.011a6.136,6.136,0,0,0,1.607-3.33Z" transform="translate(-40.445 -287.961)" />
        <path class="good1" d="M81.736,493.555c2.014,2.1,4.132,4.35,6.755,5.692,1.557.8,4.785,1.32,5.361-1.04.435-1.816-1.068-3.945-2.023-5.34a43.686,43.686,0,0,0-5.437-6.307,29.037,29.037,0,0,0-5.116-4.272c-1.179-.716-4.383-1.664-5.22.024s.8,4.3,1.625,5.7a30.612,30.612,0,0,0,3.932,5.437l.109.117C84.211,496.143,79.256,490.962,81.736,493.555Z" transform="translate(-59.332 -376.672)" />
        <path class="good2" d="M116.585,493.2c-.985-3.191,1.707-5.35,3.656-7.421a7.865,7.865,0,0,1-2.26-3.014c-3.33,2.358-5.285,4.852-9.041,2.443h0c.983,3.406,4.713,6.868,7.3,9.352a5.072,5.072,0,0,0-.037-3.071Z" transform="translate(-85.244 -377.762)" />
        <g class="good3" transform="translate(33.478 50.175)">
          <path class="good4" d="M237.5,259.37c.067.2.159.468.309.89.03.074.089.178.141.278C237.8,260.107,237.654,259.711,237.5,259.37Z" transform="translate(-219.321 -253.133)" />
          <path class="good4" d="M172.639,238.382c-.076-.176-.144-.337-.239-.563-1.087-3.067-3.68-6.331-7.027-7.012-3.647-.746-6.584,2.255-6.934,5.7a14.207,14.207,0,0,0,.381,5.22c.563,1.957,1.3,3.8.318,5.766-1.675,3.312-6.127,5.474-5.057,9.831.89,3.608,5,5.5,8.43,4.7,3.5-.816,6.025-4.035,7.736-7a24.707,24.707,0,0,0,2.61-6.588A19.877,19.877,0,0,0,172.639,238.382Z" transform="translate(-153.916 -230.692)" />
        </g>
        <path class="good2" d="M253.395,132.3c-2.223.555-5.281,1.388-6.949,2.777-3.334,2.78-1.944,5.283,1.668,5.84,3.615.833,8.341-.557,11.118-2.78,2.5-1.957,3.891-4.726.835-6.394-3.891-2.225-11.675,2.5-14.455,4.726Z" transform="translate(-191.36 -102.632)" />
        <path class="good2" d="M406.977,143.862c-1.586,3.173,11.123,7.919,12.7,3.48,1.262-3.552-5-4.937-7.469-4.952-1.888-.013-8.5.548-4.678,3.417Z" transform="translate(-317.978 -111.42)" />
        <path class="good2" d="M500.153,257.685c.833,4.169.833,6.668-.833,10.838-1.668,3.336-3.336,7.506,0,10.288,3.887,2.777,6.39-.559,8.047-3.615,2.5-5.281,3.891-14.455,0-19.459-1.111-1.668-4.172-3.891-6.114-1.944-1.392,1.111-.835,5.559-.559,7.227Z" transform="translate(-389.21 -198)" />
        <path class="good2" d="M295.517,498.654a21.543,21.543,0,0,1-7.5,2.223c-2.5.281-18.9-3.891-12.789,3.334,4.726,5.559,18.9,4.448,23.9.281,2.5-1.947,3.613-6.118,0-7.23-2.782-.833-5.838,1.947-8.06,3.615-.281.278-.835.555-1.114,1.111Z" transform="translate(-214.302 -388.99)" />
        <path class="good5" d="M416.41,223.622c.485,2.434,1.947,6.819,4.385,8.278,5.355,1.957,5.355-3.893,3.9-7.306-2.934-6.327-11.2-4.868-6.821,2.921Z" transform="translate(-325.84 -172.647)" />
        <path class="good5" d="M287.581,223.3c-.652.687-2.891,4.659-.474,4.785,1.6.087,3.282-1.757,4.132-2.917.6-.816,2.2-4.119.565-4.624-1.551-.481-3.465,1.7-4.219,2.754C286.791,224.122,289.717,220.305,287.581,223.3Z" transform="translate(-223.802 -172.523)" />
        <path class="good2" d="M461.86,426.224c-2.379-2.195-4.032-.894-5.2,1.122H456.6a58.357,58.357,0,0,1-3.615,5.152,9.594,9.594,0,0,0-1.129,1.231c-.074.091-.12.174-.189.265a.448.448,0,0,0-.046.046v.011c-4.567,6.146.6,8.5,5.783,4.132C460.471,435.676,466.03,430.117,461.86,426.224Z" transform="translate(-352.012 -332.629)" />
        <path class="good2" d="M186.507,446.652a6.913,6.913,0,0,0-.87-2.49,7.239,7.239,0,0,0-.729-1.346c-.152-.217-.309-.435-.492-.652a5.311,5.311,0,0,0-3.613-1.973c-2.593.154-2.967,1.836-2.947,2.86a2.247,2.247,0,0,0,.126.4c-.039-.05-.076-.1-.115-.148a.335.335,0,0,0,.013.115c.461,2.949,3.247,5.044,6.09,5.45,2.081.3,2.673-.785,2.547-2.142A.259.259,0,0,1,186.507,446.652Z" transform="translate(-139.171 -344.45)" />
        <path class="good2" d="M326.138,279.823c-2.943-3.8-4.483-1.688-5.363,1.325a.04.04,0,0,1,0,.011,48,48,0,0,1-2.636,6.427c-1.5,2.2-3.045,5.161-2.562,7.525,1.388,5,6.671,3.893,9.172.559C327.528,292.055,329.194,283.994,326.138,279.823Z" transform="translate(-246.867 -217.36)" />
        <path class="good5" d="M297.475,428.91a44.321,44.321,0,0,0-5.333.324c-3.752.568-1.688,3.863.616,4.837,2.436,1.029,13.328.831,9.326-3.745C301.076,428.986,299,428.873,297.475,428.91Z" transform="translate(-226.982 -335.619)" />
        <path class="good5" d="M344.717,434.481c-.022-.028-.05-.057-.07-.078-.074-.078-.148-.135-.217-.2a2.687,2.687,0,0,0,.191.27c.207.239.374.435.533.611A3.451,3.451,0,0,0,344.717,434.481Z" transform="translate(-269.516 -339.763)" />
        <path class="good2" d="M422.9,359.447c-2.406-.607-6.538,5.029-4.35,7.3C420.972,369.28,426.227,360.388,422.9,359.447Z" transform="translate(-327.033 -281.233)" />
        <path class="good6" d="M352.733,220.087c-3.48-9.526-.837-19.251,5.907-21.717s15.044,3.262,18.526,12.782.837,19.248-5.912,21.717S356.215,229.615,352.733,220.087Z" transform="translate(-274.813 -154.777)" />
        <path class="good6" d="M221.827,210.31c4.022-7.112,3.193-15.188-1.847-18.033s-12.382.613-16.4,7.728-3.191,15.188,1.849,18.035S217.812,217.426,221.827,210.31Z" transform="translate(-157.309 -149.678)" />
        <path d="M256.17,220.976a4.876,4.876,0,1,1,4.874,4.876A4.876,4.876,0,0,1,256.17,220.976Z" transform="translate(-200.452 -169.099)" />
        <path class="good6" d="M261.49,216.908a1.868,1.868,0,1,1,1.868,1.868A1.868,1.868,0,0,1,261.49,216.908Z" transform="translate(-204.615 -168.27)" />
        <circle class="good6" cx="0.837" cy="0.837" r="0.837" transform="translate(56.669 51.181)" />
        <path d="M361.58,230.425a4.876,4.876,0,1,1,4.876,4.868,4.876,4.876,0,0,1-4.876-4.868Z" transform="translate(-282.935 -176.486)" />
        <path class="good6" d="M366.62,245.6a.837.837,0,1,1,.837.837A.837.837,0,0,1,366.62,245.6Z" transform="translate(-286.879 -191.526)" />
        <path class="good6" d="M366.62,226.348a1.868,1.868,0,1,1,1.866,1.868,1.868,1.868,0,0,1-1.866-1.868Z" transform="translate(-286.879 -175.656)" />
        <path class="good7" d="M251.39,339.64c1.216,4.863,8.511,8.023,12.643,9.483,7.782,2.432,15.32.729,22.857-1.459h0c-1.216,6.81-3.889,14.1-9.726,18.724-5.348,4.376-12.887,3.16-14.831-4.132-.487-2.188,0-4.132-.244-6.323-.487-3.16-.731-2.917-3.647-5.348-1.947-2.188-6.442-4.687-7.051-10.942Z" transform="translate(-196.711 -265.77)" />
        <path class="good8" d="M244.81,405.544c-2.273,2.786-4.62,4.487-8.252,4.72-3.228.2-6.934-.452-9.959.957s-3.721,5.6-2.234,8.369c1.459,2.714,4.859,3.391,7.686,3.31a16.624,16.624,0,0,0,8.5-2.49c3.817-2.514,4.87-8.047,9.087-10.055,1.74-.82,3.7-1,5.387-1.914a5.932,5.932,0,0,0,2.347-2.342c.789-1.39-1.409-2.175-2.586-2.527-3.373-1-7.488-.837-9.974,1.973C244.712,405.663,245.769,404.46,244.81,405.544Z" transform="translate(-174.974 -315.357)" />
      </g>
    </g>
  </g>
</svg>
