<svg xmlns="http://www.w3.org/2000/svg" width="160.857" height="145.038" viewBox="0 0 160.857 145.038">
  <defs>
    <style>.worst1{fill:#ff534d;}.worst2{opacity:0.7;}.worst3{fill:#c40517;}.worst4{fill:#91c127;}.worst5{fill:#69930f;}.worst6{opacity:0.5;}.worst7{fill:#fff;}.worst8{fill:#e50728;}.worst9{fill:#f2f2f2;}</style>
  </defs>
  <g transform="translate(0.001 0.011)">
    <g transform="translate(-0.001 -0.011)">
      <g transform="translate(0 0)">
        <path class="worst1" d="M109.151,514.106a9.76,9.76,0,0,0-3.724,3.9c-.465,1.1-.752,2.549-1.907,2.859a2.015,2.015,0,0,1-1.2-.1,3.049,3.049,0,0,1,.284-5.831c.564-.145,1.129-.135,1.693-.231a8.51,8.51,0,0,0,3.267-1.556,50.725,50.725,0,0,0,12.405-12.085c.647-.9,1.663-1.934,2.673-1.471a2.361,2.361,0,0,1,.94,1.025l2.507,4.2a1.761,1.761,0,0,1,.318.824c.03,1.358-6.615,2.791-7.806,3.294A53.544,53.544,0,0,0,109.151,514.106Z" transform="translate(-81.428 -405.522)" />
        <path class="worst1" d="M572.923,126.539a9.617,9.617,0,0,0,2.043-4.964c.03-1.191-.241-2.643.728-3.348a2.022,2.022,0,0,1,1.155-.339,3.183,3.183,0,0,1,2.983,2.09,3.126,3.126,0,0,1-1.112,3.444c-.465.333-1.01.532-1.5.824a8.367,8.367,0,0,0-2.473,2.62,50.068,50.068,0,0,0-7.129,15.706c-.275,1.065-.843,2.4-1.952,2.329a2.389,2.389,0,0,1-1.247-.621l-3.877-3.01a1.768,1.768,0,0,1-.6-.653c-.529-1.257,5.141-4.971,6.066-5.869A52.748,52.748,0,0,0,572.923,126.539Z" transform="translate(-454.588 -95.712)" />
        <path class="worst1" d="M71.731,279.133a9.9,9.9,0,0,0-5.365-.788c-1.177.254-2.541.858-3.465.094a1.956,1.956,0,0,1-.6-1.029,3.126,3.126,0,0,1,1.347-3.356,3.213,3.213,0,0,1,3.649.254c.438.365.764.843,1.166,1.245a8.442,8.442,0,0,0,3.16,1.755,51.511,51.511,0,0,0,17.13,3.126c1.114.011,2.556.241,2.752,1.317a2.329,2.329,0,0,1-.314,1.345q-1.023,2.218-2.045,4.435a1.761,1.761,0,0,1-.5.728c-1.11.805-6.106-3.762-7.2-4.435A53.377,53.377,0,0,0,71.731,279.133Z" transform="translate(-50.51 -222.137)" />
        <path class="worst1" d="M333.868,64.657a2.212,2.212,0,0,0-.312-.826c-.472-.662-1.439-.7-2.154-1.1a2.54,2.54,0,0,1-1.157-2.682,3.373,3.373,0,0,1,1.943-2.31,3.649,3.649,0,0,1,3.134.017,2.9,2.9,0,0,1,1.6,2.6,11.13,11.13,0,0,1-.813,2.62,6.474,6.474,0,0,0,.878,5.049,19.639,19.639,0,0,0,3.478,3.967,27.5,27.5,0,0,1-8.088,3.137.775.775,0,0,1-.341.021c-.818-.188,1.43-3.95,1.6-4.531A12.018,12.018,0,0,0,333.868,64.657Z" transform="translate(-268.086 -46.597)" />
        <path class="worst1" d="M342.819,632.557a6.471,6.471,0,0,0-.907,1.864c-.154.653-.094,1.367-.228,2.047-.2,1.04-.877,2.028-.941,3.072a7.479,7.479,0,0,0,.681,2.682,2.82,2.82,0,0,1-.248,2.712,2.873,2.873,0,0,1-3.457.53,2.382,2.382,0,0,1-.893-2.959,16.884,16.884,0,0,1,1.559-2.323,8.167,8.167,0,0,0,1.053-3.342,22.2,22.2,0,0,0-2.12-12.851,1.1,1.1,0,0,1-.118-1.117c.273-.4.91-.453,1.433-.431a62.347,62.347,0,0,1,6.4.841c.846.124,4.326.026,4.366.771.045.694-2.468,2.6-2.946,3.177A47.97,47.97,0,0,0,342.819,632.557Z" transform="translate(-273.315 -505.356)" />
        <path class="worst1" d="M449.816,21.686a66.541,66.541,0,0,0,3.083-9.572,9.107,9.107,0,0,0,.465-3.448,13.219,13.219,0,0,0-1.189-3.2,4.13,4.13,0,0,1-.16-3.386C452.782.489,454.956-.231,456.7.047A3.932,3.932,0,0,1,459.615,1.9c.94,1.776-.273,4.243-2.2,5.455a5.556,5.556,0,0,0-1.236.877,3.4,3.4,0,0,0-.641,1.366,29.346,29.346,0,0,0-.9,4.588c-.141,1.241-.2,2.487-.427,3.724-.3,1.6-.869,3.171-1.193,4.77a14.547,14.547,0,0,0,1.1,9.237,2.647,2.647,0,0,1,.416,1.484,2.177,2.177,0,0,1-1.448,1.557,5.819,5.819,0,0,1-2.2.269,37.465,37.465,0,0,1-4.879-.414,4,4,0,0,1-2.838-1.3c-1.144-1.734,1.289-3.7,2.432-5.009a26.224,26.224,0,0,0,4.212-6.822Z" transform="translate(-359.57 0.011)" />
        <path class="worst1" d="M712.187,393.868a2.894,2.894,0,0,0,1.019-.03c.9-.237,1.288-1.161,1.981-1.721a3.239,3.239,0,0,1,3.367-.233,3.51,3.51,0,0,1,1.843,2.648,3.441,3.441,0,0,1-1.142,3.032,3.647,3.647,0,0,1-3.431.685,13.368,13.368,0,0,1-2.592-1.655,8.37,8.37,0,0,0-5.867-.824,23.824,23.824,0,0,0-5.611,2.056,25.079,25.079,0,0,1-.553-8.876.736.736,0,0,1,.1-.339c.5-.73,3.837,2.7,4.411,3.055A15.266,15.266,0,0,0,712.187,393.868Z" transform="translate(-569.17 -315.429)" />
        <path class="worst1" d="M75.373,392.874a2.332,2.332,0,0,0-.892-.011c-.8.188-1.183,1.072-1.817,1.586a2.61,2.61,0,0,1-2.949.094,3.382,3.382,0,0,1-1.475-2.633,3.548,3.548,0,0,1,1.151-2.88,2.97,2.97,0,0,1,3.03-.527A11.175,11.175,0,0,1,74.6,390.2a6.677,6.677,0,0,0,5.079,1.021,19.776,19.776,0,0,0,5-1.766,26.665,26.665,0,0,1,.026,8.585.753.753,0,0,1-.1.322c-.474.685-3.211-2.748-3.694-3.117A12.393,12.393,0,0,0,75.373,392.874Z" transform="translate(-55.397 -315.258)" />
        <path class="worst1" d="M68.551,198.348a8.585,8.585,0,0,0-1.808-1.725c-.707-.45-1.588-.705-2.338-1.14-1.149-.666-2.015-1.77-3.235-2.295a11.511,11.511,0,0,0-3.519-.53,4.083,4.083,0,0,1-3.126-1.458,2.7,2.7,0,0,1,.967-3.636,3.53,3.53,0,0,1,3.95.446,19.812,19.812,0,0,1,2.054,2.573,11.1,11.1,0,0,0,3.5,2.53,33.89,33.89,0,0,0,16.334,3.67,1.689,1.689,0,0,1,1.388.376c.354.448.119,1.1-.149,1.6a59.955,59.955,0,0,1-3.967,5.906c-.54.777-2.031,4.232-2.944,3.95-.848-.265-1.956-3.587-2.43-4.317A56.262,56.262,0,0,0,68.551,198.348Z" transform="translate(-43.974 -151.944)" />
        <path class="worst1" d="M142.31,184.223c3.95,15.988,8.7,23.17,19.965,32.667a42.835,42.835,0,0,0,14.564,8.427c7.458,2.34,15.554,1.881,23.209.278,16.677-3.48,32.556-12.757,41.5-27.086s9.845-33.9.128-47.741c-3.8-5.4-7.136-10.752-11.636-15.6-2.357-2.537-6.352-4.212-9.063-6.377-7.428-5.936-17.741-7.069-27.231-5.981-15.473,1.774-30.449,9.1-40.349,20.992s-14.3,28.375-10.458,43.294Z" transform="translate(-114.936 -99.411)" />
        <path class="worst1" d="M284.206,280.611c-1.5,2.257.16,5.18.476,7.866s-.784,5.331-.871,8.032c-.2,6.331,4.986,11.408,9.781,15.612a5.292,5.292,0,0,0,2.133,1.335,9.06,9.06,0,0,0,2.974-.188c3.9-.354,7.846,2.895,11.474,1.418,1.129-.461,2.037-1.334,3.154-1.817,2.378-1.027,5.193-.113,7.689-.816,2.761-.777,4.565-3.329,6.072-5.743,3.809-6.1,7.319-13.031,6.254-20.126-.984-6.561-5.679-11.893-10.172-16.822a16.642,16.642,0,0,0-4.6-3.95,13.624,13.624,0,0,0-5.812-1.176,34.755,34.755,0,0,0-22.152,7.379,20.24,20.24,0,0,0-4.138,4.223c-1.943,2.784-2.821,6.136-3.674,9.4Z" transform="translate(-229.598 -214.526)" />
        <g class="worst2" transform="translate(26.367 31.533)">
          <path class="worst1" d="M240.161,235.341a47.213,47.213,0,0,0,7.061-24.208q-5.859,9.281-11.715,18.561c-5.587,8.841-12.539,18.594-23.012,19.867-3.032.376-6.279,0-8.991,1.388-1.631.839-2.964,2.276-4.748,2.716-3.047.752-6.1-1.667-9.217-1.317-1.388.156-2.675.856-4.069.94a9.609,9.609,0,0,1-4.441-1.2c-12.277-5.583-25.512-12.08-31.185-24.2-3.279-7-3.536-15.006-3.01-22.705a44.289,44.289,0,0,1,2.257-12.414c2.218-6,6.484-11.007,10.667-15.875l7.962-9.268a56.966,56.966,0,0,0-15.7,12.994c-9.915,11.9-14.311,28.388-10.473,43.317l-.632-2.868c3.95,15.988,8.7,23.17,19.965,32.667a42.83,42.83,0,0,0,14.564,8.425c7.458,2.34,15.554,1.881,23.211.28C215.336,258.955,231.217,249.678,240.161,235.341Z" transform="translate(-140.175 -167.63)" />
        </g>
        <path class="worst3" d="M499.624,149.539a3.644,3.644,0,0,0,2.146,2.607c.555.31,1.146.551,1.693.873s.956.8,1.5,1.087a1.089,1.089,0,0,0,1.477-1.477c-.455-1.033-1.776-1.486-2.742-1.911a8.743,8.743,0,0,1-2.932-1.849c-.514-.545-1.249.043-1.149.67Z" transform="translate(-405.635 -120.691)" />
        <path class="worst3" d="M564.827,180.4c.647.89,1.631,2.033,2.844,2.009a1.186,1.186,0,0,0,.828-2,4.348,4.348,0,0,0-1.206-.752A10.814,10.814,0,0,1,566.23,179c-.807-.615-1.992.6-1.4,1.405Z" transform="translate(-458.455 -145.196)" />
        <path class="worst3" d="M587.05,230.374a2.3,2.3,0,0,0,.619.645.939.939,0,0,0,1.352-1.191,3.387,3.387,0,0,0-.6-.824.974.974,0,0,0-1.369,0A1,1,0,0,0,587.05,230.374Z" transform="translate(-476.405 -185.699)" />
        <path class="worst3" d="M235.625,224.656c.1-.087.348-.12.487-.2a3.247,3.247,0,0,0,.549-.451,7.745,7.745,0,0,0,.8-.9c.442-.564,1.1-1.84.354-2.417-.679-.525-1.778.132-2.291.623a5.845,5.845,0,0,0-.833,1.05,2.7,2.7,0,0,0-.325.64c-.06.173-.041.485-.1.615A.866.866,0,0,0,235.625,224.656Z" transform="translate(-190.135 -179.015)" />
        <path class="worst3" d="M202.621,285.584a7.36,7.36,0,0,1,.4-1.006,1.843,1.843,0,0,0,0-1.635,1.042,1.042,0,0,0-1.153-.468c-1.251.233-1.413,1.787-1.4,2.821a1.1,1.1,0,0,0,2.15.292Z" transform="translate(-162.759 -229.321)" />
        <path class="worst3" d="M185.209,364.452c0,.816-.222,1.99.64,2.483a.581.581,0,0,0,.681-.088,1.687,1.687,0,0,0,.4-1.283,12.1,12.1,0,0,0-.293-1.305c-.16-.814-1.428-.609-1.428.188Z" transform="translate(-150.351 -295.318)" />
        <path class="worst3" d="M198.867,409.717c-.288.986-.719,2.069-.248,3.06a.623.623,0,0,0,.848.222,4.225,4.225,0,0,0,1.249-2.773A.96.96,0,0,0,198.867,409.717Z" transform="translate(-161.089 -332.098)" />
        <path class="worst3" d="M188.658,454.242a2.677,2.677,0,0,0,.021,1.072,1.666,1.666,0,0,0,.4,1l-.22-.376c.047.118.092.239.135.359a.79.79,0,0,0,.734.564.759.759,0,0,0,.734-.564q.045-.293.079-.587c-.04.143-.079.288-.117.431a1.608,1.608,0,0,0,.049-1.249,2.087,2.087,0,0,0-.534-.984A.775.775,0,0,0,188.658,454.242Z" transform="translate(-153.136 -368.354)" />
        <path class="worst3" d="M273.522,221.2c.391-.188,1.191-.474.94-1.059s-.993-.22-1.4-.056a.61.61,0,1,0,.47,1.115Z" transform="translate(-221.334 -178.47)" />
        <path class="worst3" d="M211.875,258.838a1.836,1.836,0,0,0,.615-.831,2.681,2.681,0,0,0,.119-.3.991.991,0,0,0,0-.534c0,.139,0,.152-.009.038a.927.927,0,0,0-.662-.869.941.941,0,0,0-1.018.414c-.062.092-.058.083,0-.026a1.021,1.021,0,0,0-.26.444,3.229,3.229,0,0,0-.062.5,1.764,1.764,0,0,0,.156.873.814.814,0,0,0,1.112.292Z" transform="translate(-170.98 -208.104)" />
        <path class="worst3" d="M316.988,156.741a6.887,6.887,0,0,0,1.176-.45,3.12,3.12,0,0,0,.555-.457,1.379,1.379,0,0,0,.346-.956c-.041.154-.085.31-.126.466l.132-.2a.8.8,0,0,0-.69-1.2l-.239.017.466.126a1.405,1.405,0,0,0-1.012-.175,3.27,3.27,0,0,0-.673.261,6.8,6.8,0,0,0-.961.807,1.079,1.079,0,0,0-.166,1.281A1.052,1.052,0,0,0,316.988,156.741Z" transform="translate(-256.285 -124.926)" />
        <path class="worst3" d="M363.309,162.944a4.827,4.827,0,0,1,.9-.22,3.92,3.92,0,0,0,1-.365,1.016,1.016,0,0,0-.512-1.881,2.72,2.72,0,0,0-1.232.286,9.456,9.456,0,0,0-.837.527.9.9,0,0,0,.687,1.651Z" transform="translate(-294.053 -130.29)" />
        <path class="worst3" d="M417.08,136.674a9.6,9.6,0,0,0,.961.09,2.052,2.052,0,0,0,.564-.045,3.539,3.539,0,0,0,.591-.32.918.918,0,0,0,.418-1.031.94.94,0,0,0-.878-.67l-.275-.011.495.134a1.314,1.314,0,0,0-.914-.149,2.859,2.859,0,0,0-.5.205c-.284.132-.544.29-.816.444a.737.737,0,0,0-.335.82.752.752,0,0,0,.7.532Z" transform="translate(-338.044 -109.313)" />
        <path class="worst3" d="M451.643,155.889a13.135,13.135,0,0,0,1.36.038,1.97,1.97,0,0,0,1.362-.489.732.732,0,0,0,0-1.027c-.694-.7-1.8-.587-2.722-.613C450.293,153.76,450.3,155.829,451.643,155.889Z" transform="translate(-365.87 -124.866)" />
        <path class="worst3" d="M617.948,275.993a6.189,6.189,0,0,0,1.416,2.462,1.326,1.326,0,0,0,1.317.35l.056-.017-1.117-.3a2.261,2.261,0,0,0,1.258.655.737.737,0,0,0,.7-.532,2.194,2.194,0,0,0-.041-1.24q-.147.564-.3,1.117l.038-.038a1.414,1.414,0,0,0,.211-1.644,5.436,5.436,0,0,0-1.362-2.09,1.318,1.318,0,0,0-2.185,1.272Z" transform="translate(-501.675 -222.76)" />
        <path class="worst4" d="M650.659,352.8c.205.779.118,1.693.7,2.323a.856.856,0,0,0,1.2,0c.815-.863.346-2.158-.088-3.083-.485-1.035-2.086-.3-1.806.752Z" transform="translate(-528.245 -285.417)" />
        <path class="worst3" d="M652.332,391.912a2.068,2.068,0,0,0-.433.593,4.408,4.408,0,0,0-.2.675,1.206,1.206,0,0,0,.816,1.437l.026.009-.72-.719a2.362,2.362,0,0,0,.278.841.783.783,0,0,0,1.337,0,2.527,2.527,0,0,0,.376-.839l-.719.719.047-.009A1.174,1.174,0,0,0,654,393.49a5.841,5.841,0,0,0-.092-.792,2.071,2.071,0,0,0-.307-.623.815.815,0,0,0-1.262-.164Z" transform="translate(-529.083 -318.002)" />
        <path class="worst3" d="M674.892,362.363a2.619,2.619,0,0,0-.444,1.5,7,7,0,0,0,.041.715,1.561,1.561,0,0,0,.45.91l-.2-.348c.013.055.026.109.041.164a.733.733,0,0,0,1.4,0l.064-.164-.2.344a2.813,2.813,0,0,0,.337-3.134.87.87,0,0,0-1.488,0Z" transform="translate(-547.586 -293.854)" />
        <path class="worst3" d="M671.828,403.45a3.81,3.81,0,0,0-.169,2.364.389.389,0,0,0,.609.077,3.77,3.77,0,0,0,.4-2.329A.428.428,0,0,0,671.828,403.45Z" transform="translate(-545.204 -327.314)" />
        <path class="worst3" d="M658.286,437.321a1.619,1.619,0,0,1,.088.35v-.312a3.889,3.889,0,0,0-.169.687,1.693,1.693,0,0,0-.055.811v-.286l-.019.081c-.075.327.237.752.608.608a2.164,2.164,0,0,0,.376-.113.976.976,0,0,0,.256-.233,1.8,1.8,0,0,0,.286-.564,1.345,1.345,0,0,0-.3-1.243l.152.26a2.571,2.571,0,0,0-.213-.463c-.312-.514-1.232-.188-1.01.425Z" transform="translate(-534.329 -354.512)" />
        <path class="worst5" d="M335.323,411.418c.256.594.431,1.2.734,1.781a5.1,5.1,0,0,0,1.012,1.529.63.63,0,0,0,1.036-.275,3.314,3.314,0,0,0-.363-2.24,4.436,4.436,0,0,0-1.571-1.644c-.564-.408-1.061.354-.848.848Z" transform="translate(-272.209 -333.246)" />
        <path class="worst3" d="M337.651,443.806a1.541,1.541,0,0,0,.188,1.166,8.127,8.127,0,0,0,.852,1.155,3.627,3.627,0,0,0,2.163,1.552.725.725,0,0,0,.717-.717c.026-.9-.752-1.629-1.287-2.257a2.928,2.928,0,0,0-2.084-1.317.564.564,0,0,0-.542.412Z" transform="translate(-274.112 -359.986)" />
        <path class="worst3" d="M369.715,449.549c1.1.457,2.654,1.226,3.781.493a.775.775,0,0,0,.271-1.035c-.683-1.241-2.541-1.26-3.792-1.381a.967.967,0,0,0-.959.848A1,1,0,0,0,369.715,449.549Z" transform="translate(-299.597 -363.424)" />
        <path class="worst3" d="M383.662,468.191a2.728,2.728,0,0,0,.833.547,4.378,4.378,0,0,0,1.046.214,2.155,2.155,0,0,0,1.856-.564.642.642,0,0,0,0-.89,2.643,2.643,0,0,0-1.556-.512c-.267-.017-.534-.041-.8-.06a4.577,4.577,0,0,0-.884.072c-.515.058-1.027.773-.493,1.191Z" transform="translate(-311.312 -379.097)" />
        <path class="worst3" d="M411.859,455.052a7.777,7.777,0,0,0,2.268-.843,1.082,1.082,0,0,0,.44-1.343,1.1,1.1,0,0,0-1.27-.623,7.871,7.871,0,0,0-2.244.9C409.976,453.675,410.734,455.357,411.859,455.052Z" transform="translate(-333.313 -367.159)" />
        <path class="worst3" d="M450.309,442.413a2.444,2.444,0,0,0,.408-.658.714.714,0,0,0,.023-.275c-.043-.2-.047-.248-.011-.151v-.3a.492.492,0,0,0-.828-.342,3.155,3.155,0,0,1-.245.2c.026-.036.013-.03-.045.021a.751.751,0,0,0-.269.269,3.321,3.321,0,0,0-.241.73.658.658,0,0,0,.376.777.67.67,0,0,0,.822-.271Z" transform="translate(-364.607 -357.692)" />
        <path class="worst3" d="M367.905,349.61a6.589,6.589,0,0,0,1.651-2.332c.512-.856,1.292-1.55,1.366-2.558a1.018,1.018,0,0,0-1.275-.969c-1.031.214-1.715,1.437-2.231,2.276a4.071,4.071,0,0,0-.877,3.028.943.943,0,0,0,1.366.564Z" transform="translate(-297.543 -279.072)" />
        <path class="worst3" d="M406.415,332.557a4.271,4.271,0,0,1,1.279-.158.549.549,0,0,0,.468-.814,1.315,1.315,0,0,0-1.159-.643,1.762,1.762,0,0,0-1.23.514C405.294,331.867,405.808,332.811,406.415,332.557Z" transform="translate(-329.295 -268.689)" />
        <path class="worst3" d="M413.885,346.811a1.537,1.537,0,0,1,.154-.038c-.081.009-.073.011.026,0s.158-.019.239-.023h.122c.1.009.207.041.307.06a.628.628,0,0,0,.649-.22.608.608,0,0,0,.047-.685,1.8,1.8,0,0,0-1.979-.645.8.8,0,0,0,.427,1.55Z" transform="translate(-335.202 -280.25)" />
        <path class="worst3" d="M436.269,344.5l.388.156c.064.026.128.056.188.077a3.182,3.182,0,0,0,.352.055c-.09-.019-.047,0,.017.013a.94.94,0,0,0,.457-.011.771.771,0,0,0,.521-.434.8.8,0,0,0-.047-.666.772.772,0,0,0-.233-.288s-.214-.188-.1-.087a3.739,3.739,0,0,0-.835-.5.924.924,0,0,0-1.305.44.873.873,0,0,0,0,.707.965.965,0,0,0,.6.534Z" transform="translate(-353.658 -278.236)" />
        <g class="worst6" transform="translate(26.024 22.411)">
          <path class="worst1" d="M185.471,224.872a37.915,37.915,0,0,1-11.427-1.653,42.9,42.9,0,0,1-14.779-8.543c-10.945-9.23-15.623-16.272-19.338-29.8a.6.6,0,0,1-.188-.314q-.367-1.43-.638-2.884a.544.544,0,0,1-.009-.055c-2.564-13.94,1.608-29.356,11.228-40.908,9.67-11.615,24.524-19.346,40.753-21.2,7.994-.916,19.286-.6,27.686,6.108a36.579,36.579,0,0,0,3.677,2.445,25.5,25.5,0,0,1,5.455,4,101.661,101.661,0,0,1,9.273,12.168c.8,1.159,1.6,2.325,2.415,3.495a40.44,40.44,0,0,1,7.05,24.052,48.082,48.082,0,0,1-7.157,24.376c-8.5,13.6-23.768,23.576-41.9,27.363A59.4,59.4,0,0,1,185.471,224.872ZM140.309,181.41c3.794,15.345,8.227,22.6,19.75,32.317a41.655,41.655,0,0,0,14.352,8.308c6.5,2.039,13.985,2.125,22.9.265,17.807-3.717,32.787-13.49,41.1-26.815,9.194-14.737,9.254-34.087.147-47.055-.824-1.174-1.627-2.344-2.423-3.506a100.957,100.957,0,0,0-9.16-12.027,24.489,24.489,0,0,0-5.188-3.783,37.034,37.034,0,0,1-3.807-2.53c-8.06-6.442-19-6.724-26.764-5.844-15.915,1.823-30.472,9.392-39.946,20.764C141.875,152.778,137.8,167.826,140.309,181.41Z" transform="translate(-138.351 -119.133)" />
        </g>
        <path class="worst1" d="M548.077,184.025a73.691,73.691,0,0,0,9.8-5.079,10.262,10.262,0,0,0,3.055-2.332,15.179,15.179,0,0,0,1.635-3.423,4.718,4.718,0,0,1,2.545-2.771c1.817-.647,3.988.485,5.05,2.069a4.355,4.355,0,0,1,.694,3.728c-.707,2.118-3.536,3.1-5.906,2.551a5.69,5.69,0,0,0-1.6-.278,3.754,3.754,0,0,0-1.546.564,32.905,32.905,0,0,0-4.27,2.884c-1.08.86-2.1,1.787-3.243,2.577-1.475,1.016-3.13,1.794-4.635,2.793A16.765,16.765,0,0,0,543.2,195.4a2.95,2.95,0,0,1-.86,1.482,2.306,2.306,0,0,1-2.291.088,6,6,0,0,1-1.836-1.5,38.712,38.712,0,0,1-3.273-4.129,4.336,4.336,0,0,1-1.07-3.23c.519-2.246,3.856-1.881,5.729-2.018A28.746,28.746,0,0,0,548.077,184.025Z" transform="translate(-433.405 -138.212)" />
        <path class="worst1" d="M202.079,69.518c-1.409-2.159-3.04-4.338-5.4-5.412-1.552-.705-3.619-1.17-4.006-2.821a2.754,2.754,0,0,1,.2-1.674,4.409,4.409,0,0,1,8.344.69c.188.782.137,1.6.246,2.393a11.639,11.639,0,0,0,2.069,4.654,71.739,71.739,0,0,0,16.714,17.975c1.251.94,2.69,2.426,1.975,3.816a3.37,3.37,0,0,1-1.516,1.258l-6.143,3.3a2.572,2.572,0,0,1-1.2.4c-1.951-.024-3.674-9.4-4.338-11.1A74.189,74.189,0,0,0,202.079,69.518Z" transform="translate(-156.39 -46.216)" />
        <path class="worst1" d="M21.728,463.67a61.052,61.052,0,0,0-9.452,2.278,8.373,8.373,0,0,0-3.064,1.381,12.569,12.569,0,0,0-1.981,2.69,3.853,3.853,0,0,1-2.682,1.894c-1.708.156-3.45-1.36-4.138-3.01a4.117,4.117,0,0,1-.036-3.51c.956-1.734,3.611-1.96,5.62-.916a5.554,5.554,0,0,0,1.371.621,3.144,3.144,0,0,0,1.456-.149,26.794,26.794,0,0,0,4.225-1.6c1.089-.519,2.137-1.114,3.271-1.557,1.463-.564,3.051-.886,4.528-1.433a13.529,13.529,0,0,0,6.96-5.746,3.971,3.971,0,0,1,.993-1.129c2.325-1.83,2.315-.814,2.037.453-.167.769,1.01,1.129,1.388,1.778a40.038,40.038,0,0,1,2.248,4.458,4.23,4.23,0,0,1,.442,3.143c-.811,1.892-3.7.8-5.38.48A24.613,24.613,0,0,0,21.728,463.67Z" transform="translate(0.001 -367.377)" />
        <path class="worst1" d="M442.81,564.2a77.062,77.062,0,0,0,2.577,11.457,11.336,11.336,0,0,0,1.6,3.835,18.781,18.781,0,0,0,3.181,2.821,5.425,5.425,0,0,1,2.221,3.485c.162,2.024-1.676,3.762-3.666,4.266a5.177,5.177,0,0,1-4.181-.623c-2.058-1.439-2.287-4.58-1.01-6.726a5.406,5.406,0,0,0,.764-1.486,3.632,3.632,0,0,0-.158-1.725,35.553,35.553,0,0,0-1.84-5.229c-.606-1.369-1.3-2.7-1.811-4.108-.66-1.815-1.012-3.728-1.644-5.553a19.461,19.461,0,0,0-6.756-9.2,3.658,3.658,0,0,1-1.336-1.371,2.229,2.229,0,0,1,.564-2.293,6.005,6.005,0,0,1,2.144-1.285,41.489,41.489,0,0,1,5.357-1.783,5.075,5.075,0,0,1,3.762.073c2.248,1.3.893,4.471.493,6.367A27.906,27.906,0,0,0,442.81,564.2Z" transform="translate(-349.626 -445.208)" />
        <path class="worst1" d="M547.217,555.322a2.228,2.228,0,0,0,.673.576c.734.361,1.6-.062,2.423-.049a2.579,2.579,0,0,1,2.312,1.811,3.341,3.341,0,0,1-.593,2.946,3.625,3.625,0,0,1-2.761,1.465,2.958,2.958,0,0,1-2.658-1.533,11.115,11.115,0,0,1-.551-2.686,6.578,6.578,0,0,0-3.209-4.023,19.649,19.649,0,0,0-4.973-1.847,27.056,27.056,0,0,1,5.592-6.568.768.768,0,0,1,.29-.188c.809-.22.653,4.148.781,4.736A12.108,12.108,0,0,0,547.217,555.322Z" transform="translate(-436.706 -442.661)" />
        <path class="worst1" d="M560.521,484.8a87.3,87.3,0,0,0,9.533,8.871,12.847,12.847,0,0,0,3.875,2.528,21.131,21.131,0,0,0,4.691.658,6.181,6.181,0,0,1,4.227,1.841c1.413,1.742.807,4.424-.719,6.064a5.746,5.746,0,0,1-4.247,1.932c-2.8-.081-4.97-2.8-5.131-5.511a5.843,5.843,0,0,0-.224-1.8,4.158,4.158,0,0,0-1.223-1.475,40.246,40.246,0,0,0-4.962-3.653c-1.413-.882-2.885-1.682-4.236-2.652-1.744-1.255-3.262-2.782-4.983-4.065a22.292,22.292,0,0,0-11.982-4.326,4.211,4.211,0,0,1-2.088-.448,2.407,2.407,0,0,1-.9-2.426,6.314,6.314,0,0,1,1.177-2.445,44.388,44.388,0,0,1,3.828-4.819,5.527,5.527,0,0,1,3.516-2.176c2.887-.16,3.617,3.529,4.43,5.492A30.89,30.89,0,0,0,560.521,484.8Z" transform="translate(-440.138 -382.317)" />
        <path class="worst1" d="M542.512,425.907c2.421.941,5.032,1.759,7.582,1.262,1.676-.325,3.627-1.144,4.915-.036a2.765,2.765,0,0,1,.828,1.473,4.439,4.439,0,0,1-2.005,4.729,4.56,4.56,0,0,1-5.165-.461c-.609-.53-1.057-1.215-1.616-1.8a11.969,11.969,0,0,0-4.433-2.577,73.083,73.083,0,0,0-24.2-4.9c-1.576-.047-3.617-.41-3.862-1.951a3.254,3.254,0,0,1,.483-1.9q1.5-3.115,3.023-6.232a2.5,2.5,0,0,1,.732-1.02c1.6-1.11,8.549,5.5,10.09,6.488A75.655,75.655,0,0,0,542.512,425.907Z" transform="translate(-417.751 -334.806)" />
        <path class="worst1" d="M659.645,315.282a73.3,73.3,0,0,0,10.91.1,10.966,10.966,0,0,0,3.845-.621,18.731,18.731,0,0,0,3.337-2.223,5.334,5.334,0,0,1,3.69-1.238c1.851.276,2.942,2.257,2.874,4.123a4.513,4.513,0,0,1-7.911,3.057,4.913,4.913,0,0,0-1.129-.982,3.394,3.394,0,0,0-1.586-.22,34.239,34.239,0,0,0-5.152.54c-1.381.25-2.752.585-4.138.752-1.794.209-3.6.122-5.393.3a19.317,19.317,0,0,0-9.969,4.057,3.687,3.687,0,0,1-1.571.893,1.969,1.969,0,0,1-1.905-.98,5.068,5.068,0,0,1-.6-2.161,36.305,36.305,0,0,1-.218-5.1,4.661,4.661,0,0,1,1.033-3.3c1.744-1.714,4.232.139,5.831.888A25.375,25.375,0,0,0,659.645,315.282Z" transform="translate(-523.447 -252.719)" />
        <path class="worst1" d="M165.374,330.4c-1.588-.623-2.968-1.693-4.58-2.257a15.315,15.315,0,0,0-3.09-.609l-5.122-.653a5.982,5.982,0,0,0-2.24,0c-1.339.348-2.295,1.584-3.628,1.952a2.971,2.971,0,1,1,.192-5.641c1.153.4,1.975,1.467,3.134,1.851a6.36,6.36,0,0,0,2.633.081,41.144,41.144,0,0,1,7.268-.068,6.367,6.367,0,0,1,1.755.32,8.6,8.6,0,0,0,1.129.442,6.412,6.412,0,0,0,2.771-.5c1.482-.352,3.075-.009,4.543-.419,2.662-.743,4.3-3.771,7.037-4.168a10.566,10.566,0,0,1-.564,4.631,20.679,20.679,0,0,0-1.138,3.173,19.335,19.335,0,0,0,0,3.762,10.54,10.54,0,0,1-1.693,6.034,42.8,42.8,0,0,0-3.06-4.164A11.819,11.819,0,0,0,165.374,330.4Z" transform="translate(-116.031 -260.399)" />
        <path class="worst1" d="M147.081,521.42a16.456,16.456,0,0,0-3.247,2.148c-.957.888-1.606,1.954-2.522,2.868-1.4,1.4-3.386,2.41-4.591,3.912a14.637,14.637,0,0,0-1.975,4.415,6.42,6.42,0,0,1-3.271,3.841c-2.056.882-4.558.072-5.267-1.524s.239-3.681,1.99-4.968a39.569,39.569,0,0,1,4.627-2.391,19.717,19.717,0,0,0,5.043-4.232A45.612,45.612,0,0,0,148.895,505.1a2.3,2.3,0,0,1,1.046-1.727,2.6,2.6,0,0,1,2.41.32,72.975,72.975,0,0,1,7.763,5.509c1.014.752,5.831,2.923,5.088,4.054-.688,1.053-6.153,2.186-7.434,2.726A112.6,112.6,0,0,0,147.081,521.42Z" transform="translate(-102.276 -408.535)" />
        <path class="worst1" d="M546.653,566.695a3.559,3.559,0,0,1-3.16-1.881,5.636,5.636,0,0,1-.47-1.932,8.944,8.944,0,0,0-.134-.9,5.928,5.928,0,0,0-2.919-3.621,19.288,19.288,0,0,0-4.821-1.783.621.621,0,0,1,.327-1.2A20.272,20.272,0,0,1,540.6,557.3a7.166,7.166,0,0,1,3.5,4.422c.075.344.115.687.154,1.02a4.612,4.612,0,0,0,.346,1.522,2.328,2.328,0,0,0,2.092,1.191,3.009,3.009,0,0,0,2.278-1.217,2.723,2.723,0,0,0,.5-2.387,1.984,1.984,0,0,0-1.731-1.377,4.434,4.434,0,0,0-.781.088,2.989,2.989,0,0,1-1.907-.1,2.8,2.8,0,0,1-.867-.726c-1.465-1.693-3.256-6.96-3.7-8.841a.621.621,0,0,1,1.208-.284c.493,2.1,2.238,6.946,3.425,8.312a1.749,1.749,0,0,0,.48.427,2.034,2.034,0,0,0,1.149,0,5.12,5.12,0,0,1,1.01-.107,3.206,3.206,0,0,1,2.895,2.246,3.975,3.975,0,0,1-.69,3.5,4.213,4.213,0,0,1-3.247,1.71Z" transform="translate(-434.138 -446.664)" />
        <path class="worst1" d="M9.831,533.39c-.09,1.973,2.716,2.53,3.877,1.213a1.129,1.129,0,0,0,.167-1.305,1.071,1.071,0,0,0-1.473-.386c.171-.1-.433.314-.269.216-.122.073-.066.049-.277.1a.753.753,0,0,1-.495.011,2.17,2.17,0,0,1-.7-.329C10.307,532.64,9.848,533.02,9.831,533.39Z" transform="translate(-7.98 -432.553)" />
        <path class="worst3" d="M74.369,402.174a1.831,1.831,0,0,0,1.213,2.21,2.069,2.069,0,0,0,1.181.1,1.383,1.383,0,0,0,.767-.483,1.3,1.3,0,0,0,.248-.7c.011-.094-.047.209,0,.017A.814.814,0,0,0,77,402.292a.572.572,0,0,1-.113,0l.632.263q.248.354-.073-.079c-.079-.06-.158-.12-.235-.188a1.181,1.181,0,0,0-.585-.158l.177.021a1.693,1.693,0,0,0-.465-.051c.2.032.235.034.105,0-.1-.032-.094-.028,0,.013.166.12-.04-.036-.081-.058a1.239,1.239,0,0,0-.188-.105c-.088-.026.188.175.032,0-.051-.064-.03-.034.064.09a.9.9,0,0,1-.064-.118,1.017,1.017,0,0,0-1.84.241Z" transform="translate(-60.317 -325.919)" />
        <path class="worst3" d="M60.993,199.029a2.433,2.433,0,0,0,1.533.636,1.492,1.492,0,0,0,1.36-.927.666.666,0,0,0-.293-.715,2.337,2.337,0,0,0-.94-.273,3.123,3.123,0,0,1-.831-.139c-.775-.3-1.488.9-.83,1.424Z" transform="translate(-49.308 -160.401)" />
        <path class="worst3" d="M141.744,250.307a3.4,3.4,0,0,1,.893.752c.237.273.442.7.788.83a.365.365,0,0,0,.446-.265c.143-.4-.275-.988-.532-1.275a3.813,3.813,0,0,0-1.129-.843c-.521-.261-.972.491-.461.786Z" transform="translate(-114.904 -202.528)" />
        <path class="worst3" d="M116.426,498.684a5.006,5.006,0,0,0,1.881.132,28.582,28.582,0,0,1,3.762-.226,19.18,19.18,0,0,1,3.386.243,14.492,14.492,0,0,1,3.4,1.407.581.581,0,0,0,.585-1c-1.725-1.153-4.272-1.287-6.309-1.477-1.172-.109-2.411-.03-3.574-.2a8.018,8.018,0,0,0-3.136-.278.732.732,0,0,0,0,1.4Z" transform="translate(-94.099 -403.679)" />
        <path class="worst3" d="M342.834,727.681a1.317,1.317,0,0,0,.389,1.287,1.6,1.6,0,0,0,1.5.342,1.52,1.52,0,0,0,.675-.365,1.478,1.478,0,0,0,.376-.967,2.062,2.062,0,0,0-.188-1.375l.137.5c-.019-.166-.038-.333-.058-.5a.892.892,0,0,0-.626-.822.86.86,0,0,0-.961.391c-.07.143-.137.286-.205.429l.356-.357a1.576,1.576,0,0,0-.638.871,4.4,4.4,0,0,0-.188.668l.547-.713a.586.586,0,0,1,.292-.087,1.108,1.108,0,0,1-.158-.011c-.128,0-.1,0,.092.021-.35-.051-.389-.055-.117-.011a1.012,1.012,0,0,0-1.226.7Z" transform="translate(-278.317 -589.239)" />
        <path class="worst3" d="M363.1,656.992a12.584,12.584,0,0,0,5.4.643c1.334-.151,2.915-.31,3.435-1.71a.536.536,0,0,0-.245-.6c-1.082-.651-2.3-.062-3.461.077a14.634,14.634,0,0,1-4.644-.188.921.921,0,0,0-.489,1.774Z" transform="translate(-294.271 -531.813)" />
        <path class="worst3" d="M511.408,621.672c1.354-.418,3.371-.677,4.3-1.845a.738.738,0,0,0-.322-1.215c-1.454-.419-3.2.51-4.554.969C509.513,620.021,510.063,622.086,511.408,621.672Z" transform="translate(-414.133 -502.164)" />
        <path class="worst3" d="M186.434,537.294c.628.85,1.193,1.738,1.849,2.569.6.752,1.253,1.793,2.24,2.03a1,1,0,0,0,1.251-.952,4.719,4.719,0,0,0-1.488-2.633c-.681-.813-1.431-1.548-2.135-2.34-.811-.914-2.464.32-1.717,1.317Z" transform="translate(-151.213 -434.892)" />
        <path class="worst3" d="M266.379,614.026a14.164,14.164,0,0,0,2.109,1.663,3.393,3.393,0,0,0,2.545.752.983.983,0,0,0,.579-1.422c-.376-.818-1.317-1.065-2.094-1.373a12.947,12.947,0,0,0-2.573-.592c-.515-.09-1.048.564-.564.972Z" transform="translate(-216.121 -497.731)" />
        <path class="worst3" d="M645.739,519.948c.564-.7,1.629-1.232,1.6-2.236a.941.941,0,0,0-.466-.813,1.517,1.517,0,0,0-1.089-.132,2.334,2.334,0,0,0-.9.591,4.5,4.5,0,0,0-.912,1.228,1.128,1.128,0,0,0,.29,1.45,1.112,1.112,0,0,0,1.477-.088Z" transform="translate(-522.722 -419.524)" />
        <path class="worst3" d="M659.233,344.9a24.046,24.046,0,0,1,7.405-3.2c2.445-.564,4.968-.318,7.415-.766a.128.128,0,0,0,.03-.229c-4.7-2.1-11.5.512-15.339,3.352-.489.361-.051,1.176.489.835Z" transform="translate(-534.663 -275.999)" />
        <path class="worst3" d="M577.61,290.5c.188-.314.4-.624.577-.94a1.839,1.839,0,0,0,.312-.971.3.3,0,0,0-.438-.252,1.8,1.8,0,0,0-.69.752c-.188.314-.376.645-.547.967a.455.455,0,0,0,.786.459Z" transform="translate(-468.272 -234.072)" />
        <path class="worst3" d="M590.207,252.988c1.012-1.036,2.039-2.082,3.094-3.075s2.278-1.834,3.267-2.87c.188-.188,0-.6-.282-.485-2.709,1.08-5.1,3.589-6.7,5.95C589.326,252.882,589.894,253.305,590.207,252.988Z" transform="translate(-478.63 -200.162)" />
        <path class="worst3" d="M636.609,205.838c3.623-.711,6.892-3.339,9.969-5.223a5.662,5.662,0,0,1,4.035-.594,3.122,3.122,0,0,0,1.445-.039,1.5,1.5,0,0,0,1.08-2.069.541.541,0,0,0-.89-.235c-1.042,1.172-2.949.476-4.326.94a14.465,14.465,0,0,0-3.307,2.174c-2.577,1.776-5.605,2.991-8.088,4.834a.117.117,0,0,0,.09.213Z" transform="translate(-516.751 -160.361)" />
        <path class="worst3" d="M503.989,6.52a2.456,2.456,0,0,1,2.643,1.416c.3,1.074-.576,1.77-.737,2.748a.523.523,0,0,0,.632.632c1.693-.237,2-2.81,1.435-4.078a3.419,3.419,0,0,0-4.114-1.77c-.564.137-.466,1.1.141,1.046Z" transform="translate(-408.772 -4.338)" />
        <path class="worst3" d="M501.157,57.736a6.628,6.628,0,0,1-.222,1.177,2.339,2.339,0,0,0-.177,1.04.348.348,0,0,0,.512.207c.658-.495.752-1.661.816-2.425C502.143,57.14,501.214,57.143,501.157,57.736Z" transform="translate(-406.555 -46.512)" />
        <path class="worst3" d="M208.648,64.694a1.835,1.835,0,0,1,1.949.444c.521.463.613,1.129,1.129,1.525a.564.564,0,0,0,.681-.087c.807-.954-.258-2.274-1.129-2.75a3.233,3.233,0,0,0-3.128.032c-.553.3-.066,1.1.489.835Z" transform="translate(-168.799 -51.504)" />
        <path class="worst3" d="M261.7,142.159a85.275,85.275,0,0,0,5.611,7.373c1.747,2.045,3.538,5.116,6.081,6.171.436.188.722-.386.564-.726-1.138-2.342-3.941-3.95-5.675-5.893a83.178,83.178,0,0,1-5.84-7.349c-.314-.442-1.048-.028-.735.429Z" transform="translate(-212.415 -114.92)" />
        <path class="worst1" d="M341.083,62.986a1.877,1.877,0,0,1,.25-.228.188.188,0,0,1,.117-.021c-.1-.036-.115-.038-.049,0a.877.877,0,0,1,.444.29,2.489,2.489,0,0,1,.329.425c.109.209.094.4.263.6a.478.478,0,0,0,.47.124c.506-.124.626-.7.643-1.149a1.48,1.48,0,0,0-.814-1.317,1.93,1.93,0,0,0-2.291.8c-.269.376.354.856.638.493Z" transform="translate(-276.355 -49.98)" />
        <path class="worst3" d="M645.856,121.013c-.141-.056.107.064.092.068s-.156-.173-.085-.073a2.7,2.7,0,0,0,.239.29c.06.066.124.209.053.051.054.124.135.243.2.361-.058-.13-.055-.12.011.03a.735.735,0,0,0,.209.325,1.129,1.129,0,0,0,.29.228l-.322-.324a1.525,1.525,0,0,0,.22.28.82.82,0,0,0,1.147,0,1.463,1.463,0,0,0,.288-.5l-.233.4a1.536,1.536,0,0,0-.256-2.1,2.078,2.078,0,0,0-1.636-.613.8.8,0,0,0-.788.7.818.818,0,0,0,.576.882Z" transform="translate(-523.902 -96.962)" />
        <path class="worst1" d="M777.049,421.339a3.124,3.124,0,0,0,1.678,1.161c.615.158,1.642.149,1.971-.523a.6.6,0,0,0-.092-.717c-.72-.594-1.881-.2-2.584-.893-.651-.639-1.5.293-.972.973Z" transform="translate(-630.752 -341.12)" />
        <path class="worst3" d="M709.755,632c-.188,2.948,4.291,5.44,6.559,3.406a.627.627,0,0,0-.438-1.059,5.067,5.067,0,0,1-2.633-.656,5.5,5.5,0,0,1-1.606-2.2A1.018,1.018,0,0,0,709.755,632Z" transform="translate(-576.247 -512.307)" />
        <path class="worst3" d="M588.554,613.968a2.039,2.039,0,0,0,.246,1.834,2.116,2.116,0,0,0,1.81.867.779.779,0,0,0,.542-1.317,7.228,7.228,0,0,1-.681-.846,7.51,7.51,0,0,1-.581-.72.752.752,0,0,0-1.335.175Z" transform="translate(-477.754 -498.062)" />
        <path class="worst3" d="M500.4,732.708a4.885,4.885,0,0,0-.269,4.874c.649,1.076,2.285,2.306,3.536,1.5a.564.564,0,0,0,0-.952c-.858-.489-1.721-.5-2.242-1.486a4.1,4.1,0,0,1,.16-3.437c.276-.69-.833-1.129-1.185-.5Z" transform="translate(-405.618 -594.643)" />
        <path class="worst3" d="M132.021,669c.656-.154.931-.94,1.287-1.426.4-.542,1.046-.86,1.369-1.461a.656.656,0,0,0-.389-.956c-1.119-.31-2.116.664-2.68,1.516a1.994,1.994,0,0,0-.376,1.565C131.316,668.612,131.555,669.109,132.021,669Z" transform="translate(-106.513 -539.991)" />
        <path class="worst3" d="M8.021,521c.656-.154.931-.94,1.287-1.426.4-.542,1.046-.86,1.369-1.461a.657.657,0,0,0-.389-.956c-1.119-.31-2.116.664-2.68,1.516a2,2,0,0,0-.376,1.565c.085.376.324.873.79.762Z" transform="translate(-5.837 -419.829)" />
        <path class="worst3" d="M183.33,609.457a15.72,15.72,0,0,0,3.335-2.959,15.065,15.065,0,0,0,1.2-1.693,7.064,7.064,0,0,0,.692-1.892c.043-.143-.152-.211-.229-.1-.339.5-.752.89-1.083,1.4a15.453,15.453,0,0,1-1.347,1.794,16.849,16.849,0,0,1-2.979,2.746c-.419.3-.026,1,.412.7Z" transform="translate(-148.366 -489.379)" />
        <path class="worst3" d="M214.691,558.552c2.1-2.861,4.445-5.936,5.713-9.281.143-.376-.419-.564-.619-.261-1.956,3.019-3.442,6.326-5.477,9.318-.164.239.216.451.376.224Z" transform="translate(-173.964 -445.618)" />
        <path class="worst1" d="M107.054,586.234a3.036,3.036,0,0,1,.564-1.646,9.428,9.428,0,0,1,1.23-1.144.4.4,0,0,0-.386-.664c-1.446.261-2.223,2.157-2.2,3.453a.4.4,0,0,0,.794,0Z" transform="translate(-86.271 -473.154)" />
        <path class="worst3" d="M444.35,572.4a36.13,36.13,0,0,1,5.688,9.128c1.415,3.089,2.1,6.557,3.675,9.569.152.293.54.073.495-.209A57.5,57.5,0,0,0,450.9,579.77c-1.213-3.213-3.544-5.628-5.948-7.977A.427.427,0,0,0,444.35,572.4Z" transform="translate(-360.673 -464.138)" />
        <path class="worst3" d="M590.6,533.086c4.249,1.623,7.471,4.917,11.1,7.541,1.849,1.343,3.805,2.445,5.69,3.717,1.994,1.343,3.8,2.989,5.865,4.212.391.23.837-.322.493-.64-1.779-1.642-3.882-2.919-5.754-4.456-1.9-1.557-3.692-3.209-5.664-4.7-3.5-2.65-7.268-5.223-11.465-6.608-.6-.188-.829.717-.258.94Z" transform="translate(-479.25 -432.031)" />
        <path class="worst3" d="M703.015,515.305c.284.188.606.466.956.278a.35.35,0,0,0,.124-.478.523.523,0,0,0-.525-.235,4.17,4.17,0,0,0-.506.062c-.188.032-.175.282-.049.376Z" transform="translate(-570.703 -418.017)" />
        <path class="worst3" d="M148.72,345.427c0,.2-.081.474-.062.72a1.99,1.99,0,0,0,.293.873,1.433,1.433,0,0,0,.564.546c.444.239-.113-.132.171.143a.67.67,0,0,0,.339.162.451.451,0,0,0,.547-.312,1.1,1.1,0,0,0-.053-.636v.323a1.881,1.881,0,0,0-.109-1.129,2.159,2.159,0,0,0-.3-.551,4.526,4.526,0,0,1-.354-.41.556.556,0,0,0-1.029.278Z" transform="translate(-120.693 -280.014)" />
        <path class="worst3" d="M65.43,284.447a4.746,4.746,0,0,0,1.431,1.576,2.1,2.1,0,0,0,2.233.325.786.786,0,0,0-.188-1.422,10.952,10.952,0,0,0-1.469-.083,1.57,1.57,0,0,1-1.206-.865.465.465,0,0,0-.8.468Z" transform="translate(-53.074 -230.376)" />
        <path class="worst3" d="M168.259,351.94l.941.011c.339,0,.6,0,.814-.286a.355.355,0,0,0,0-.376c-.22-.29-.48-.29-.82-.29h-.94a.465.465,0,0,0,0,.929Z" transform="translate(-136.241 -284.975)" />
        <path class="worst3" d="M642.836,305.879a15.832,15.832,0,0,1,.839,1.838,2.564,2.564,0,0,0,.459.989l.241.188-.151-.12a1.7,1.7,0,0,0,.331.453.7.7,0,0,0,.972,0,1.4,1.4,0,0,0,.323-.48c.111-.246.1-.26-.043-.038l.188-.239a2.258,2.258,0,0,0-.011-1.667,4.1,4.1,0,0,0-1.793-2.272,1,1,0,0,0-1.352,1.351Z" transform="translate(-521.827 -247.128)" />
        <path class="worst1" d="M306.981,578.13a2.225,2.225,0,0,0-.284.835c-.056.809.67,1.443.971,2.2a2.542,2.542,0,0,1-.814,2.8,3.441,3.441,0,0,1-2.981.579,3.6,3.6,0,0,1-2.423-1.964,2.883,2.883,0,0,1,.421-3.009,11.389,11.389,0,0,1,2.3-1.529,6.514,6.514,0,0,0,2.541-4.464,19.194,19.194,0,0,0-.167-5.248,27.616,27.616,0,0,1,8.276,2.605.839.839,0,0,1,.278.188c.513.656-3.632,2.178-4.138,2.519A12.228,12.228,0,0,0,306.981,578.13Z" transform="translate(-244.547 -461.426)" />
        <path class="worst3" d="M306.164,625.948a2.548,2.548,0,0,0-.314,2.026c.126.529.628,1.258,1.24,1.245s.839-.587.974-1.08a4.3,4.3,0,0,0-.058-1.951,1.02,1.02,0,0,0-1.842-.241Z" transform="translate(-248.251 -507.82)" />
        <path class="worst7" d="M443.02,355.111a7.267,7.267,0,0,0,2.342,2.917,5.726,5.726,0,0,0,3.433.655,12.407,12.407,0,0,0,9.781-6.772,16.169,16.169,0,0,0,.786-12.014c-.079-.254-.2-.544-.459-.611-.4-.107-.681.387-.784.788-.591,2.319-.662,4.736-1.074,7.093a11.132,11.132,0,0,1-3,6.4c-1.766,1.633-4.676,2.242-6.651.856a24.04,24.04,0,0,1-2.314-2.338c-.692-.647-2.349-1.631-3.077-.606C441.4,352.312,442.622,354.383,443.02,355.111Z" transform="translate(-358.73 -275.453)" />
        <path class="worst3" d="M445.876,356.7a6.492,6.492,0,0,0,3.536,1.5,8.654,8.654,0,0,0,5.775-1.08,9.931,9.931,0,0,0,4.138-5.487c1.021-3.124.856-6.815.67-10.336q-5.113,4.05-10.468,7.486c-1.727,1.11-3.632,1.947-5.295,3.215-.993.752-.94,1.057-.175,2.37A9.309,9.309,0,0,0,445.876,356.7Z" transform="translate(-360.066 -277.1)" />
        <path class="worst8" d="M459.36,383.046A15.779,15.779,0,0,0,460,379.98c-.542.67-1.1,1.317-1.693,1.947a8.444,8.444,0,0,1-4.717,2.882,6.342,6.342,0,0,1-4.212-1.129c-1.059-.694-1.821-1.386-2.52-1.919a22.036,22.036,0,0,0-2.581,1.642c-.993.752-.941,1.057-.175,2.37a9.309,9.309,0,0,0,1.817,2.321,6.493,6.493,0,0,0,3.536,1.5,8.654,8.654,0,0,0,5.775-1.08A9.9,9.9,0,0,0,459.36,383.046Z" transform="translate(-360.098 -308.504)" />
        <ellipse cx="2.393" cy="2.364" rx="2.393" ry="2.364" transform="translate(91.06 71.903)" />
        <path d="M426.02,339.709l2.332,3.754,11.739-10.723Z" transform="translate(-345.886 -270.15)" />
        <path class="worst7" d="M321.974,369.03a5.5,5.5,0,0,1-1.734,2.3,4.71,4.71,0,0,1-2.7.63,9.975,9.975,0,0,1-8.071-4.74,11.732,11.732,0,0,1-1.149-9.055c.051-.188.133-.419.337-.482.316-.1.564.267.658.564.564,1.731.734,3.557,1.164,5.323a8.379,8.379,0,0,0,2.667,4.721,4.6,4.6,0,0,0,5.323.386,18.509,18.509,0,0,0,1.738-1.858c.523-.517,1.8-1.326,2.421-.579C323.14,366.85,322.254,368.464,321.974,369.03Z" transform="translate(-249.983 -290.388)" />
        <path class="worst3" d="M324.9,370.3a5.32,5.32,0,0,1-2.746,1.283,7.228,7.228,0,0,1-4.646-.589,7.718,7.718,0,0,1-3.533-3.988c-.94-2.323-.978-5.122-.984-7.791q4.244,2.861,8.653,5.25c1.424.771,2.974,1.33,4.351,2.223.824.532.79.762.245,1.785A7.038,7.038,0,0,1,324.9,370.3Z" transform="translate(-254.117 -291.649)" />
        <path class="worst8" d="M315.508,390.743a11.375,11.375,0,0,1-.638-2.293c.459.485.94.957,1.435,1.405a6.856,6.856,0,0,0,3.877,1.994,5.231,5.231,0,0,0,3.3-1.016c.813-.564,1.386-1.119,1.919-1.55a17.754,17.754,0,0,1,2.124,1.151c.824.532.79.762.245,1.785a7.037,7.037,0,0,1-1.343,1.826,5.32,5.32,0,0,1-2.746,1.283,7.228,7.228,0,0,1-4.646-.6A7.709,7.709,0,0,1,315.508,390.743Z" transform="translate(-255.643 -315.381)" />
        <path d="M332.629,390.556a1.912,1.912,0,1,0,1.936-1.757A1.851,1.851,0,0,0,332.629,390.556Z" transform="translate(-270.061 -315.664)" />
        <path d="M348.345,356.238l-1.691,2.93-9.8-7.648Z" transform="translate(-273.489 -285.398)" />
        <path class="worst8" d="M305.595,456.4a17.628,17.628,0,0,0,6.521,5.385c2.724,1.162,5.784,1.215,8.75,1.17s5.98-.167,8.963-.376a23.285,23.285,0,0,0,4.349-.592,12.516,12.516,0,0,0,9.049-12.672,6.293,6.293,0,0,0-2.588-5,.873.873,0,0,0-.551-.166.89.89,0,0,0-.564.474c-1.189,1.806-1.764,3.982-3.149,5.643a9.955,9.955,0,0,1-5.5,3.117,32.554,32.554,0,0,1-6.42.6c-3.512.1-7.091.241-10.479-.685a12.933,12.933,0,0,1-5.656-3.113,9.268,9.268,0,0,1-1.919-2.654c-.376-.8-.593-2.28-1.665-2.509-1.954-.416-2.489,3.019-2.458,4.277C302.335,452,303.943,454.375,305.595,456.4Z" transform="translate(-245.416 -360.6)" />
        <path d="M314.862,446.466a10.806,10.806,0,0,0,4.514,2.556c2.227.4,4.437-.752,6.689-.649,2.976.141,5.818,2.468,8.72,1.789,2.983-.7,4.65-4.247,7.372-5.748a1.6,1.6,0,0,1,1.157-.256c.734.188,1.025,1.166,1.151,1.99.461,3.03.339,6.328-1.181,8.865a10.144,10.144,0,0,1-6.6,4.422,38.055,38.055,0,0,1-7.928.534c-4.723.075-9.57.6-14.083-1.036-4.087-1.482-8.062-5.541-8.464-10.52C305.706,442.2,311.791,444.013,314.862,446.466Z" transform="translate(-248.59 -360.584)" />
        <path class="worst3" d="M350.1,503.938a10.935,10.935,0,0,0,5.412-2.889c-4.326-2-9.238-1.46-13.931-1.525-4.339-.06-8.671-.677-13.011-.574a18.865,18.865,0,0,0-5.878.777,13.653,13.653,0,0,0,5.4,3.709c4.514,1.636,9.36,1.112,14.083,1.036A37.954,37.954,0,0,0,350.1,503.938Z" transform="translate(-261.992 -405.087)" />
        <path class="worst7" d="M306.223,448.03l4.368-.692.5,7,3.655-3.911,2.058,5.878,4.2-4.415,1.928,5.248,3.4-4.465,3.914,5.139,2.056-4.962,5.415,3.867.909-5.25L342.546,454l-.843-5.524,3.01-.423c-.038-.64-.107-1.275-.2-1.9-.126-.824-.418-1.794-1.151-1.99a1.009,1.009,0,0,0-.41-.021,2.294,2.294,0,0,0-.246.055h-.026l-.085.028a2.948,2.948,0,0,0-.389.188c-2.722,1.5-4.388,5.049-7.372,5.748-2.176.51-4.326-.672-6.51-1.354a9,9,0,0,0-2.21-.435,6.988,6.988,0,0,0-.843.015,12.018,12.018,0,0,0-1.258.169c-.7.128-1.392.292-2.086.408-.278.045-.564.085-.833.109a7.288,7.288,0,0,1-.835.03,3.846,3.846,0,0,1-.416-.026c-.139-.015-.278-.032-.418-.056a4.972,4.972,0,0,1-.621-.152,12.561,12.561,0,0,1-3.9-2.4C311.877,444.067,306,442.282,306.223,448.03Z" transform="translate(-248.617 -360.585)" />
        <path d="M314.862,446.466a10.806,10.806,0,0,0,4.514,2.556c2.227.4,4.437-.752,6.689-.649,2.976.141,5.818,2.468,8.72,1.789,2.983-.7,4.65-4.247,7.372-5.748a1.6,1.6,0,0,1,1.157-.256c.734.188,1.025,1.166,1.151,1.99.461,3.03.339,6.328-1.181,8.865a10.144,10.144,0,0,1-6.6,4.422,38.055,38.055,0,0,1-7.928.534c-4.723.075-9.57.6-14.083-1.036-4.087-1.482-8.062-5.541-8.464-10.52C305.706,442.2,311.791,444.013,314.862,446.466Z" transform="translate(-248.59 -360.584)" />
        <path d="M314.862,446.466a10.806,10.806,0,0,0,4.514,2.556c2.227.4,4.437-.752,6.689-.649,2.976.141,5.818,2.468,8.72,1.789,2.983-.7,4.65-4.247,7.372-5.748a1.6,1.6,0,0,1,1.157-.256c.734.188,1.025,1.166,1.151,1.99.461,3.03.339,6.328-1.181,8.865a10.144,10.144,0,0,1-6.6,4.422,38.055,38.055,0,0,1-7.928.534c-4.723.075-9.57.6-14.083-1.036-4.087-1.482-8.062-5.541-8.464-10.52C305.706,442.2,311.791,444.013,314.862,446.466Z" transform="translate(-248.59 -360.584)" />
        <path d="M314.862,446.466a10.806,10.806,0,0,0,4.514,2.556c2.227.4,4.437-.752,6.689-.649,2.976.141,5.818,2.468,8.72,1.789,2.983-.7,4.65-4.247,7.372-5.748a1.6,1.6,0,0,1,1.157-.256c.734.188,1.025,1.166,1.151,1.99.461,3.03.339,6.328-1.181,8.865a10.144,10.144,0,0,1-6.6,4.422,38.055,38.055,0,0,1-7.928.534c-4.723.075-9.57.6-14.083-1.036-4.087-1.482-8.062-5.541-8.464-10.52C305.706,442.2,311.791,444.013,314.862,446.466Z" transform="translate(-248.59 -360.584)" />
        <path class="worst3" d="M350.1,503.938a10.935,10.935,0,0,0,5.412-2.889c-4.326-2-9.238-1.46-13.931-1.525-4.339-.06-8.671-.677-13.011-.574a18.865,18.865,0,0,0-5.878.777,13.653,13.653,0,0,0,5.4,3.709c4.514,1.636,9.36,1.112,14.083,1.036A37.954,37.954,0,0,0,350.1,503.938Z" transform="translate(-261.992 -405.087)" />
        <path class="worst7" d="M306.223,448.03l4.368-.692.5,7,3.655-3.911,2.058,5.878,4.2-4.415,1.928,5.248,3.4-4.465,3.914,5.139,2.056-4.962,5.415,3.867.909-5.25L342.546,454l-.843-5.524,3.01-.423c-.038-.64-.107-1.275-.2-1.9-.126-.824-.418-1.794-1.151-1.99a1.009,1.009,0,0,0-.41-.021,2.294,2.294,0,0,0-.246.055h-.026l-.085.028a2.948,2.948,0,0,0-.389.188c-2.722,1.5-4.388,5.049-7.372,5.748-2.176.51-4.326-.672-6.51-1.354a9,9,0,0,0-2.21-.435,6.988,6.988,0,0,0-.843.015,12.018,12.018,0,0,0-1.258.169c-.7.128-1.392.292-2.086.408-.278.045-.564.085-.833.109a7.288,7.288,0,0,1-.835.03,3.846,3.846,0,0,1-.416-.026c-.139-.015-.278-.032-.418-.056a4.972,4.972,0,0,1-.621-.152,12.561,12.561,0,0,1-3.9-2.4C311.877,444.067,306,442.282,306.223,448.03Z" transform="translate(-248.617 -360.585)" />
        <path class="worst9" d="M314.749,450.707l2.058,5.878,4.2-4.415,1.928,5.248,3.29-4.326a19.187,19.187,0,0,1-3.617-1.3,18.246,18.246,0,0,1-4-2.714,13.207,13.207,0,0,1-3.721-2.34c-3.01-2.4-8.893-4.185-8.668,1.563l4.368-.692.5,7Z" transform="translate(-248.617 -360.862)" />
        <path class="worst9" d="M417.038,491.337c-.993-.175-1.988-.376-2.968-.617l3.749,4.924,1.623-3.92C418.637,491.608,417.836,491.482,417.038,491.337Z" transform="translate(-336.184 -398.415)" />
        <path class="worst9" d="M458.444,500.192l.376-2.189q-1.958-.109-3.911-.333Z" transform="translate(-369.342 -404.057)" />
      </g>
    </g>
  </g>
</svg>
