<svg xmlns="http://www.w3.org/2000/svg" width="32" height="32" viewBox="0 0 32.743 32.743">
  <g transform="translate(0.5 0.5)">
    <path style="fill:none;stroke:#1b1a1a;stroke-miterlimit:10;" d="M17.871,33.743h0A15.871,15.871,0,0,1,2,17.871H2A15.871,15.871,0,0,1,17.871,2h0A15.871,15.871,0,0,1,33.743,17.871h0A15.871,15.871,0,0,1,17.871,33.743Z" transform="translate(-2 -2)" />
    <path style="fill:#1b1a1a;" d="M38.6,31.5h-2.5v8.062H32.378V31.5H30.61V28.342h1.768V26.3a3.481,3.481,0,0,1,3.745-3.749h2.753v3.065h-2a.743.743,0,0,0-.788.862v1.858h2.835Z" transform="translate(-19.981 -14.915)" />
  </g>
</svg>
