<svg xmlns="http://www.w3.org/2000/svg" xmlns:xlink="http://www.w3.org/1999/xlink" viewBox="0 0 319.12 259.39"><defs><style>.cls-1{fill:none;}.cls-2{fill:#7208c0;}.cls-3{clip-path:url(#clip-path);}.cls-4{fill:#fff;}.cls-5{clip-path:url(#clip-path-2);}.cls-6{fill:#ff534d;}</style><clipPath id="clip-path"><path class="cls-1" d="M155.39,56H154C49.23,61.25,31.65,171,31.65,171c20.73-22.76,42.19,1.49,42.19,1.49,19.86-20.16,41.31,3.88,41.31,3.88,21.14-20.84,34.54-3.47,38.57-.08l1,.76,1-.76c4.7-3.91,17.91-20.76,38.57.08,0,0,21.45-24,41.31-3.88,0,0,21.46-24.25,42.19-1.49C277.74,171,267.19,62.58,155.39,56Z"/></clipPath><clipPath id="clip-path-2"><rect class="cls-1" x="31.65" y="24.94" width="246.08" height="174.8"/></clipPath></defs><g id="Calque_2" data-name="Calque 2"><g id="Calque_1-2" data-name="Calque 1"><path class="cls-2" d="M157.93,220.19c0,.66-1.25,1.2-2.79,1.2h0c-1.55,0-2.8-.54-2.8-1.2V43.05c0-.67,1.25-1.2,2.8-1.2h0c1.54,0,2.79.53,2.79,1.2Z"/><g class="cls-3"><rect class="cls-2" x="31.65" y="24.94" width="246.08" height="174.8"/><rect class="cls-4" x="31.65" y="90.15" width="246.08" height="44.38"/><rect class="cls-4" x="129.03" y="24.94" width="51.32" height="174.8"/><g class="cls-5"><polygon class="cls-4" points="304.73 205.73 285.04 225.75 4.21 20.01 23.89 0 304.73 205.73"/><polygon class="cls-4" points="1.46 199.75 20.41 220.46 308.46 24.96 289.5 4.25 1.46 199.75"/><path class="cls-6" d="M176,118.74a21.79,21.79,0,0,0-1.37,9.5L313.11,229.73l6-6.11Z"/><path class="cls-6" d="M153.18,113.84a11.84,11.84,0,0,1,.82-1L19.15,14l-6,6.12,136.8,100.22A28.06,28.06,0,0,1,153.18,113.84Z"/><path class="cls-6" d="M156.69,106.14q1.6,2.13,3.13,4.3L304,12.57l-5.79-6.33L154.77,103.61Z"/><path class="cls-6" d="M146.36,126.21c-.32-.51-.65-1-1-1.54l-.29-.39c-.66-.9-1.34-1.77-2-2.66-.3-.4-.59-.81-.89-1.22L0,216.89l5.79,6.33L147.13,127.3A11.89,11.89,0,0,1,146.36,126.21Z"/><rect class="cls-6" x="137.77" y="5.94" width="33.85" height="212.79"/></g><rect class="cls-6" x="31.65" y="97.7" width="246.08" height="29.28"/></g><path class="cls-6" d="M183.48,232.34a4.25,4.25,0,0,1,3.47-4.41,3.92,3.92,0,0,1,4.5,3.76,42.87,42.87,0,0,1-.5,11.54,21.26,21.26,0,0,1-5.69,11.38,16.27,16.27,0,0,1-5.85,3.64,20.56,20.56,0,0,1-6.4,1.13,17.56,17.56,0,0,1-6.66-1.06,16.71,16.71,0,0,1-5.75-3.71,26.91,26.91,0,0,1-6.25-10.51,58,58,0,0,1-2.55-11,115.41,115.41,0,0,1-.76-21.71,4,4,0,0,1,4.29-3.89,4.12,4.12,0,0,1,3.69,4.31,109.29,109.29,0,0,0,.69,20.18,50.76,50.76,0,0,0,2.18,9.44,19.21,19.21,0,0,0,4.29,7.43,8.5,8.5,0,0,0,6.63,2.5,9.8,9.8,0,0,0,6.89-2.52,13.33,13.33,0,0,0,3.4-7.17A35,35,0,0,0,183.48,232.34Z"/></g></g></svg>
