<svg xmlns="http://www.w3.org/2000/svg" width="32" height="32" viewBox="0 0 32.187 32.187">
  <g transform="translate(0.5 0.5)">
    <path style="fill:none;stroke:#1b1a1a;stroke-miterlimit:10;" d="M17.594,33.187h0A15.594,15.594,0,0,1,2,17.594H2A15.594,15.594,0,0,1,17.594,2h0A15.594,15.594,0,0,1,33.187,17.594h0A15.594,15.594,0,0,1,17.594,33.187Z" transform="translate(-2 -2)" />
    <path style="fill:#1b1a1a;" d="M40.653,29.8a6.64,6.64,0,0,1-1.9.522,3.333,3.333,0,0,0,1.46-1.825,6.625,6.625,0,0,1-2.1.8,3.307,3.307,0,0,0-5.72,2.267,3.391,3.391,0,0,0,.084.752,9.388,9.388,0,0,1-6.822-3.46,3.318,3.318,0,0,0,1.026,4.413,3.314,3.314,0,0,1-1.5-.412v.047a3.318,3.318,0,0,0,2.654,3.245,3.417,3.417,0,0,1-.869.113,3.176,3.176,0,0,1-.624-.073,3.307,3.307,0,0,0,3.11,2.307,6.625,6.625,0,0,1-4.128,1.416,7.036,7.036,0,0,1-.788-.044,9.407,9.407,0,0,0,14.48-7.925v-.431A6.691,6.691,0,0,0,40.653,29.8Z" transform="translate(-16.306 -18.672)" />
  </g>
</svg>
