<svg xmlns="http://www.w3.org/2000/svg" viewBox="0 0 295.27 393.16">
  <defs>
    <style>.green1{isolation:isolate;}.green2,.green3,.green4{fill:#12b47a;}.green3{opacity:0.7;mix-blend-mode:screen;}.green4{opacity:0.4;mix-blend-mode:multiply;}</style>
  </defs>
  <g class="green1">
    <path class="green2" d="M232.14,240.76c-26.53,44.2-79.82,39.69-111.22-22C106.27,190,86.37,149.64,40.28,126.37c-101.1-51.06,10-181.94,93.79-100.1C218.1,108.33,265.77,184.72,232.14,240.76Z" />
    <path class="green3" d="M22.17,34.53c13-15.88,31.7-25.62,51.41-26.74C94.26,6.63,114.45,15.06,132,32.18c91.48,89.35,122.19,155.72,93.86,202.92a68.93,68.93,0,0,1-5.8,8.29c-11,13.49-25.51,20-40.84,18.37-21.08-2.26-41.35-19.61-55.61-47.61l-.79-1.55c-14.2-27.91-33.65-66.13-77.92-88.49C24.8,114,12.28,99.68,8.69,82.8,5.29,66.78,10.2,49.19,22.17,34.53Z" />
    <path class="green3" d="M135.84,229.56c-9.84-17.56-24.11-65-64.1-93.5C31,107.08-.61,90.12,20.12,70.85,38,54.22,67.5,89.79,122.54,145.69,200.67,225.06,162.26,276.71,135.84,229.56Z" />
    <path class="green4" d="M46.44,11.83C65.27,4.31,99-1.28,150.08,54.59,185,92.76,225,142.1,233.7,184c6.19,29.72-10.24,86.7-40.15,28.08-11.74-23,4-51.42-78.79-136.41-35.66-36.59-49-11.55-69.5-28C30.24,35.62,29.31,18.67,46.44,11.83Z" />
    <path class="green4" d="M26.3,64a16,16,0,1,1,22.45-2.27A16,16,0,0,1,26.3,64Z" />
    <path class="green4" d="M175.1,237.27a12.57,12.57,0,1,1,17.69-1.79A12.58,12.58,0,0,1,175.1,237.27Z" />
    <path class="green3" d="M144,218.77a8.71,8.71,0,1,1,12.25-1.24A8.72,8.72,0,0,1,144,218.77Z" />
    <path class="green3" d="M116.66,149.84a16.76,16.76,0,1,1,23.58-2.39A16.76,16.76,0,0,1,116.66,149.84Z" />
    <path class="green4" d="M119.92,145.84a11.6,11.6,0,1,1,16.32-1.65A11.59,11.59,0,0,1,119.92,145.84Z" />
    <path class="green3" d="M175.83,173.17a20.31,20.31,0,1,1,28.57-2.89A20.3,20.3,0,0,1,175.83,173.17Z" />
    <path class="green4" d="M179.78,168.33a14.06,14.06,0,1,1,19.78-2A14.05,14.05,0,0,1,179.78,168.33Z" />
    <path class="green3" d="M103.73,81.05c-5-4.06-3.24-14.38,3.85-23.07s16.87-12.45,21.83-8.4,3.24,14.38-3.85,23.07S108.7,85.1,103.73,81.05Z" />
    <path class="green4" d="M107.68,76.21c-3.43-2.81-2.24-10,2.67-16s11.67-8.62,15.11-5.82,2.25,10-2.66,16S111.12,79,107.68,76.21Z" />
    <path class="green4" d="M133.4,100.26a6.77,6.77,0,1,1,9.52-1A6.76,6.76,0,0,1,133.4,100.26Z" />
    <path class="green4" d="M159.85,168a4.83,4.83,0,1,1,6.8-.69A4.83,4.83,0,0,1,159.85,168Z" />
    <path class="green4" d="M71.1,61.9a10.64,10.64,0,1,1,15-1.51A10.63,10.63,0,0,1,71.1,61.9Z" />
    <path class="green3" d="M63.87,99.06A7.74,7.74,0,1,1,74.75,98,7.73,7.73,0,0,1,63.87,99.06Z" />
    <path class="green2" d="M240.07,196.47l1.16,1c.75.68,1.87,1.5,3.27,2.94a41.56,41.56,0,0,1,4.69,5.25,31.94,31.94,0,0,1,4.33,8.09,43.54,43.54,0,0,1,2.36,10.53c0,1.85.28,3.64.17,5.67s-.18,4.09-.47,6.07c-1,8.07-3.1,16.31-3.11,24.57a46.33,46.33,0,0,0,.41,6.2,49.83,49.83,0,0,0,1.12,6A60.08,60.08,0,0,0,258.11,284a77.83,77.83,0,0,0,12,17.63c2.13,2.32,4.18,4.36,6,6.11s3.59,3.18,5,4.32,2.59,2,3.37,2.62l1.21.91,0,0a1.06,1.06,0,0,1-1.26,1.71l-1.25-.91c-.81-.6-2-1.44-3.48-2.63s-3.22-2.63-5.2-4.35-4.06-3.82-6.27-6.18a80.16,80.16,0,0,1-12.66-18.07,62.52,62.52,0,0,1-4.45-11.73,52.9,52.9,0,0,1-1.28-6.4,49.53,49.53,0,0,1-.51-6.48c-.08-8.8,2-17.2,2.81-25a53,53,0,0,0,.14-11.18,40.41,40.41,0,0,0-2.26-9.47,28.44,28.44,0,0,0-3.94-7.13,39,39,0,0,0-4.29-4.69c-1.21-1.23-2.46-2.14-3.19-2.78l-1.17-1a1.93,1.93,0,1,1,2.47-3Z" />
    <path class="green2" d="M147.06,248.25s-.32,2.18-.9,6a38.73,38.73,0,0,0-.67,6.81c0,2.59-.41,5.5.1,8.71.16,1.6.33,3.27.51,5s.77,3.44,1.16,5.24c.2.9.42,1.81.63,2.74s.64,1.8,1,2.71c.71,1.81,1.23,3.74,2.12,5.56l2.67,5.59,3.15,5.53c2.21,3.69,4.58,7.37,7.06,11l7.37,10.93c2.36,3.68,4.74,7.26,6.78,10.9,2.19,3.55,3.93,7.21,5.67,10.61s2.93,6.86,4.27,9.91c1.14,3.15,2,6.1,2.85,8.67a62.85,62.85,0,0,1,1.72,6.81l1.35,6a1.06,1.06,0,0,1-2.07.48l0-.1-1.4-5.85a63.3,63.3,0,0,0-1.77-6.66c-.87-2.52-1.75-5.4-2.9-8.46-1.35-3-2.59-6.33-4.31-9.67s-3.49-6.88-5.7-10.35c-2-3.56-4.45-7.08-6.82-10.69l-7.49-10.82c-2.53-3.63-5-7.34-7.3-11.07l-3.3-5.65L148,292.37c-.95-1.88-1.53-3.9-2.29-5.79-.36-.95-.71-1.9-1-2.83s-.48-1.93-.71-2.88c-.44-1.89-1-3.72-1.29-5.52s-.41-3.58-.6-5.27c-.57-3.36-.17-6.55-.21-9.33a40.37,40.37,0,0,1,.61-7c.52-3.83.83-6,.83-6a1.93,1.93,0,0,1,3.83.51A.06.06,0,0,1,147.06,248.25Z" />
    <path class="green2" d="M233.09,234.17s.2,2.4.56,6.59c.22,2.09.37,4.66.44,7.65a91.9,91.9,0,0,1,0,10c-.07,1.83-.15,3.74-.23,5.71q-.39,3-.81,6.09c-.49,4.21-1.38,8.41-1.49,12.71-.27,8.72,2.69,17.85,8,25.7l3.89,6.07,4.23,5.62c1.34,1.91,2.93,3.62,4.43,5.36s2.94,3.5,4.55,5.06c3.18,3.15,6.14,6.31,9.31,8.93l4.5,3.94,4.41,3.44c2.78,2.27,5.51,4.11,7.91,5.75s4.5,3.09,6.31,4.14l5.62,3.43.05,0a1.06,1.06,0,0,1-1.1,1.82l-5.72-3.41c-1.85-1-4-2.43-6.44-4.11s-5.24-3.48-8.09-5.74l-4.51-3.44-4.61-3.95c-3.24-2.63-6.3-5.8-9.57-9-1.65-1.57-3.1-3.39-4.69-5.11a69.64,69.64,0,0,1-4.6-5.43L241,316.28l-4-6a53,53,0,0,1-6.55-13.18,43.53,43.53,0,0,1-2.2-14.21c.07-4.75,1-9.13,1.37-13.14q.38-3,.72-5.87c.06-1.92.11-3.77.16-5.54a89.55,89.55,0,0,0-.14-9.7c-.09-2.87-.27-5.4-.52-7.51l-.63-6.59A1.92,1.92,0,0,1,231,232.4a2,2,0,0,1,2.12,1.74Z" />
    <path class="green2" d="M169.24,262.24s0,.54-.1,1.56a20.73,20.73,0,0,0,0,4.22,43,43,0,0,0,.89,6.46,86,86,0,0,0,2.27,8.42c1,3.07,2.17,6.36,3.46,9.87s2.93,7.05,4.48,10.8a46.92,46.92,0,0,0,2.68,5.53c1,1.82,1.94,3.67,2.92,5.54,2,3.79,4.05,7.64,6.1,11.48l3.06,5.76a52.29,52.29,0,0,1,2.86,5.82l4.95,11.7a93.3,93.3,0,0,1,4,11.13c1.16,3.58,2.25,7,3.25,10.08s1.52,6.1,2.19,8.68,1.14,4.85,1.57,6.72l1.37,5.85a1.06,1.06,0,0,1-2.07.49l0-.08-1.43-5.78L210,379.85c-.7-2.54-1.2-5.5-2.28-8.56s-2.16-6.41-3.34-9.94a92.57,92.57,0,0,0-4.11-10.93l-5-11.41a53.48,53.48,0,0,0-2.91-5.75l-3.13-5.71-6.23-11.39L180,310.47a48.07,48.07,0,0,1-2.8-5.61c-1.62-3.77-3.19-7.41-4.67-10.87s-2.61-6.83-3.64-10a88.08,88.08,0,0,1-2.47-8.75,44.13,44.13,0,0,1-1.06-7.11,25.07,25.07,0,0,1,0-4.6c0-1,.08-1.56.08-1.56a1.93,1.93,0,1,1,3.86.21Z" />
    <path class="green2" d="M192.1,264.09s0,.47-.13,1.35a30.88,30.88,0,0,0-.23,3.73,48.94,48.94,0,0,0,.26,5.67,59,59,0,0,0,1.36,7.36A96.17,96.17,0,0,0,200.05,300c3,6.32,6.72,12.93,10.34,19.53s7.6,13,11.26,19.1c1.79,3.07,3.6,6,5.16,8.86s3.09,5.56,4.34,8.13,2.38,4.93,3.28,7.08a51,51,0,0,1,2.22,5.6c1.1,3.16,1.72,5,1.72,5a1.06,1.06,0,0,1-2,.71l0-.08-1.75-4.83a50,50,0,0,0-2.25-5.46c-.92-2.08-2-4.43-3.33-6.9s-2.75-5.18-4.4-8-3.42-5.7-5.25-8.73c-3.71-6-7.84-12.45-11.57-19s-7.53-13.14-10.72-19.57a99.37,99.37,0,0,1-7.2-18.33,63.64,63.64,0,0,1-1.55-7.82A49.12,49.12,0,0,1,188,269a32.78,32.78,0,0,1,.19-3.94c.07-.88.11-1.35.11-1.35a1.93,1.93,0,1,1,3.85.31Z" />
    <path class="green2" d="M213.46,257.45s.19,2.26.54,6.21.71,9.61,1.51,16.29c.43,3.33,1,6.93,1.76,10.66a75.64,75.64,0,0,0,3.43,11.44c.73,1.74,1.84,3.79,2.77,5.71a43.13,43.13,0,0,0,3.23,5.66c2.2,3.71,4.91,7.35,7.51,11,5.35,7.32,10.85,14.47,16,21.28,2.45,3.52,4.95,6.81,6.89,10.26,1,1.72,2.07,3.25,2.91,5s1.57,3.24,2.31,4.77c2.77,6.32,4.57,11.76,5.82,15.52s1.91,5.93,1.91,5.93a1.06,1.06,0,0,1-.68,1.34,1.07,1.07,0,0,1-1.34-.68L266,382c-1.3-3.75-3.13-9.07-5.88-15.16l-2.37-4.74c-.76-1.55-1.89-3.13-2.86-4.77-1.91-3.32-4.43-6.55-6.88-10-5.16-6.7-10.79-13.85-16.23-21.1-2.67-3.69-5.43-7.29-7.83-11.23a46.71,46.71,0,0,1-3.4-5.79c-1-2-2-3.74-2.93-5.9a79.1,79.1,0,0,1-3.75-11.95c-.88-3.86-1.46-7.55-1.95-10.95-.89-6.81-1.33-12.47-1.72-16.39s-.62-6.2-.62-6.2a1.94,1.94,0,0,1,3.85-.4Z" />
    <path class="green2" d="M239.25,180.12l4.56,1.74c1.45.59,3.22,1.13,5.23,2.07l6.7,3.45a80,80,0,0,1,7.22,5.2q1.73,1.65,3.52,3.41a33.43,33.43,0,0,1,3.14,4,22.15,22.15,0,0,1,2.7,4.53l1.22,2.39c.37.82.62,1.69.93,2.53a64.59,64.59,0,0,1,2.8,10.46c.64,3.54,1.17,7.08,1.61,10.55s.86,6.87,1.42,10.13,1.09,6.39,1.74,9.34,1.52,5.65,2.17,8.2,1.73,4.73,2.44,6.74a44.5,44.5,0,0,0,2.27,5l2.13,4.33,0,.09a1.06,1.06,0,0,1-1.9.95l-2.24-4.4a43.57,43.57,0,0,1-2.41-5.13c-.77-2.05-1.8-4.31-2.61-6.87s-1.75-5.35-2.36-8.37-1.4-6.18-1.92-9.48-1-6.72-1.58-10.17-1.06-6.93-1.74-10.36a62,62,0,0,0-2.82-9.93c-.3-.78-.54-1.6-.9-2.35L269.45,206a20.2,20.2,0,0,0-2.54-4.11,31,31,0,0,0-2.93-3.63l-3.26-3.08a80.89,80.89,0,0,0-6.78-4.72l-6.26-3.11c-1.91-.87-3.77-1.41-5.2-2l-4.59-1.67a1.93,1.93,0,1,1,1.32-3.63Z" />
    <path class="green2" d="M128.76,230.79,126.48,235c-.36.67-.76,1.41-1.2,2.21s-.61,1.68-1,2.62a31.18,31.18,0,0,0-1.91,6.44c-.23,1.23-.54,2.5-.76,3.83s-.19,2.75-.28,4.18a23.47,23.47,0,0,0,0,4.44c.1,1.52.08,3.08.27,4.66a94,94,0,0,0,1.66,9.69c.63,3.29,1.67,6.58,2.56,9.9,2,6.59,4.24,13.14,6.26,19.33,1,3.12,2,6.11,2.74,9s1.57,5.62,2.07,8.21c.27,1.28.54,2.51.79,3.69s.33,2.31.48,3.37a41.06,41.06,0,0,1,.58,5.52c.13,3.08.2,4.84.2,4.84a1.06,1.06,0,0,1-1,1.11,1.07,1.07,0,0,1-1.11-1v-.12s-.1-1.7-.28-4.67a39.75,39.75,0,0,0-.64-5.34c-.17-1-.34-2.13-.52-3.28s-.54-2.34-.83-3.59c-.52-2.52-1.33-5.2-2.16-8s-1.85-5.8-2.85-8.87c-2.11-6.13-4.46-12.66-6.59-19.31-1-3.36-2.06-6.68-2.77-10.07a95.65,95.65,0,0,1-1.88-10c-.22-1.64-.24-3.29-.36-4.89a26.52,26.52,0,0,1,0-4.71c.09-1.54.17-3,.25-4.48s.51-2.81.75-4.13a34.3,34.3,0,0,1,2-7.15c.37-1.05.7-2.06,1.06-2.94l1.16-2.23c1.41-2.68,2.21-4.22,2.21-4.22a1.94,1.94,0,0,1,3.44,1.79Z" />
  </g>
</svg>
