<svg xmlns="http://www.w3.org/2000/svg" viewBox="0 0 470.04 470.04">
  <defs>
    <style>.orange1{isolation:isolate;}.orange2{fill:#ffa02b;}.orange3{fill:#ffa12b;mix-blend-mode:multiply;}.orange4{fill:#ffbe6e;opacity:0.3;mix-blend-mode:screen;}</style>
  </defs>
  <g class="orange1">
    <path class="orange2" d="M221.73,70.26h26.58a281.9,281.9,0,0,1,0-70.26H221.73A281,281,0,0,1,221.73,70.26Z" />
    <path class="orange2" d="M141.13,99l23-13.29A281.53,281.53,0,0,1,129,24.85L106,38.13A281.88,281.88,0,0,1,141.13,99Z" />
    <path class="orange2" d="M85.68,164.14l13.29-23A282,282,0,0,1,38.13,106L24.85,129A281.94,281.94,0,0,1,85.68,164.14Z" />
    <path class="orange2" d="M70.25,248.31V221.74a281.82,281.82,0,0,1-70.25,0v26.57A281.74,281.74,0,0,1,70.25,248.31Z" />
    <path class="orange2" d="M99,328.92l-13.27-23A282.25,282.25,0,0,1,24.85,341l13.29,23A281.46,281.46,0,0,1,99,328.92Z" />
    <path class="orange2" d="M164.14,384.37l-23-13.29A281.43,281.43,0,0,1,106,431.92l23,13.28A281.71,281.71,0,0,1,164.14,384.37Z" />
    <path class="orange2" d="M248.31,399.8H221.73a281.34,281.34,0,0,1,0,70.25h26.57A281.74,281.74,0,0,1,248.31,399.8Z" />
    <path class="orange2" d="M328.92,371.08l-23,13.28A281.64,281.64,0,0,1,341,445.2l23-13.29A281.49,281.49,0,0,1,328.92,371.08Z" />
    <path class="orange2" d="M384.37,305.9l-13.3,23A281.74,281.74,0,0,1,431.91,364l13.29-23A281.1,281.1,0,0,1,384.37,305.9Z" />
    <path class="orange2" d="M399.8,221.73v26.58a281.82,281.82,0,0,1,70.25,0V221.74A281.26,281.26,0,0,1,399.8,221.73Z" />
    <path class="orange2" d="M371.08,141.12l13.28,23A282.09,282.09,0,0,1,445.2,129l-13.29-23A281.08,281.08,0,0,1,371.08,141.12Z" />
    <path class="orange2" d="M305.9,85.67l23,13.3A282,282,0,0,1,364,38.13L341,24.85A281,281,0,0,1,305.9,85.67Z" />
    <path class="orange2" d="M422,235C422,338.26,338.26,422,235,422S48.08,338.26,48.08,235,131.78,48.08,235,48.08,422,131.78,422,235Z" />
    <path class="orange2" d="M422,235a186.74,186.74,0,0,1-11.2,63.89,184.61,184.61,0,0,1-17.62,35.87A186.54,186.54,0,0,1,235,422c-103.25,0-186.95-83.7-186.95-187A186.68,186.68,0,0,1,235,48.08C338.25,48.08,422,131.77,422,235Z" />
    <path class="orange3" d="M302.56,354.41a187.15,187.15,0,0,1-9.27,58.3A186.6,186.6,0,0,1,235,422c-103.25,0-186.95-83.7-186.95-187a185.62,185.62,0,0,1,9.31-58.29,186.6,186.6,0,0,1,58.25-9.27C218.86,167.46,302.56,251.16,302.56,354.41Z" />
    <path class="orange4" d="M422,235a186.74,186.74,0,0,1-11.2,63.89,184.61,184.61,0,0,1-17.62,35.87A187,187,0,0,1,135.25,76.93a184.68,184.68,0,0,1,35.86-17.66A186.79,186.79,0,0,1,235,48.08C338.25,48.08,422,131.77,422,235Z" />
    <path class="orange4" d="M277.57,127.94a14.41,14.41,0,1,1-14.41-14.41A14.41,14.41,0,0,1,277.57,127.94Z" />
    <path class="orange3" d="M384.61,265.86a15.44,15.44,0,1,1-15.44-15.44A15.44,15.44,0,0,1,384.61,265.86Z" />
    <path class="orange3" d="M138.62,222.63a27.79,27.79,0,1,1-27.79-27.79A27.79,27.79,0,0,1,138.62,222.63Z" />
    <path class="orange3" d="M296.09,185.58A21.61,21.61,0,1,1,274.48,164,21.6,21.6,0,0,1,296.09,185.58Z" />
    <path class="orange3" d="M324.91,346.14a11.32,11.32,0,1,1-11.32-11.32A11.32,11.32,0,0,1,324.91,346.14Z" />
    <path class="orange4" d="M188,137.21a24.7,24.7,0,1,1-24.69-24.71A24.69,24.69,0,0,1,188,137.21Z" />
    <circle class="orange3" cx="223.02" cy="93.29" r="10.05" />
    <path class="orange3" d="M365.15,147.15a10.74,10.74,0,1,1-10.73-10.73A10.73,10.73,0,0,1,365.15,147.15Z" />
    <path class="orange4" d="M214.79,336.87a24.71,24.71,0,1,1-24.71-24.7A24.7,24.7,0,0,1,214.79,336.87Z" />
    <path class="orange4" d="M394.25,185.58a11.71,11.71,0,1,1-11.7-11.71A11.7,11.7,0,0,1,394.25,185.58Z" />
  </g>
</svg>
