<svg xmlns="http://www.w3.org/2000/svg" viewBox="0 0 172.79 176.52">
  <defs>
    <style>.pink1{isolation:isolate;}.pink2,.pink3,.pink4,.pink6{fill:#86025b;}.pink3,.pink5{opacity:0.6;}.pink3,.pink4{mix-blend-mode:screen;}.pink4{opacity:0.3;}.pink6{opacity:0.4;mix-blend-mode:multiply;}</style>
  </defs>
  <g class="pink1">
    <path class="pink2" d="M100.74,28.12s0-.45.12-1.24c0-.39.08-.87.13-1.42a16.65,16.65,0,0,0,.12-1.81c0-.65,0-1.35,0-2.09a14.77,14.77,0,0,0-.15-2.35,20.09,20.09,0,0,0-.33-2.51c-.18-.85-.37-1.71-.55-2.57s-.55-1.69-.81-2.52a21.89,21.89,0,0,0-1-2.38A22.21,22.21,0,0,0,97.3,7l-1-1.93C95.66,3.92,95,3,94.65,2.3L94,1.23a.15.15,0,0,1,0-.21.16.16,0,0,1,.21,0s.27.37.72,1,1.15,1.54,1.88,2.69L98,6.63c.44.65.8,1.39,1.21,2.14a23.91,23.91,0,0,1,1.17,2.38c.35.83.7,1.68,1,2.53s.54,1.77.8,2.65a22.54,22.54,0,0,1,.56,2.61,16.25,16.25,0,0,1,.37,2.5c.06.81.12,1.57.18,2.27a17.41,17.41,0,0,1,0,1.88c0,.55,0,1,0,1.42,0,.79,0,1.24,0,1.24a1.32,1.32,0,1,1-2.64,0Z" />
    <path class="pink2" d="M109.32,26s.07-.39.17-1.08.31-1.71.56-2.89a53,53,0,0,1,2.58-8.49c.34-.73.64-1.49,1-2.19a18.23,18.23,0,0,1,1.2-2,15.52,15.52,0,0,1,1.35-1.75A11.89,11.89,0,0,1,117.7,6.2a6.41,6.41,0,0,1,1.46-.82A4.75,4.75,0,0,1,120.39,5l1.12-.16a.16.16,0,0,1,.17.14.15.15,0,0,1-.12.17h0l-1,.24a4.18,4.18,0,0,0-1.1.46,5.6,5.6,0,0,0-1.27.88,10.89,10.89,0,0,0-1.26,1.34,16.4,16.4,0,0,0-1.11,1.75,19.59,19.59,0,0,0-1,2c-.31.69-.52,1.45-.79,2.17a50.94,50.94,0,0,0-1.72,8.37c-.13,1.16-.22,2.12-.27,2.79s-.08,1.08-.08,1.08a1.32,1.32,0,1,1-2.63-.17S109.32,26,109.32,26Z" />
    <path class="pink2" d="M123.06,34.19l1.48-.79,1.7-.91,1-.56,1.28-.5,2.87-1.1c1-.4,2.12-.61,3.24-.94a29,29,0,0,1,3.48-.83l3.62-.66,3.64-.43c1.2-.17,2.39-.23,3.53-.32,2.29-.19,4.43-.28,6.26-.35l6.1-.2a.16.16,0,0,1,.16.15.16.16,0,0,1-.14.16l-6.07.56c-1.82.18-3.94.39-6.2.72-1.12.15-2.3.29-3.47.52l-3.55.64-3.5.86a29.89,29.89,0,0,0-3.32,1c-1.05.38-2.12.65-3,1.08s-1.79.8-2.58,1.17l-1.15.51-1,.62-1.64,1-1.43.87A1.32,1.32,0,0,1,123,34.23Z" />
    <path class="pink2" d="M136.68,50.94l5.72.16c1.72,0,3.72.09,5.88.2s4.46.29,6.76.46l3.42.46a30.7,30.7,0,0,1,3.28.61c1.06.25,2.09.4,3,.71l2.66.87,1.18.39c.36.16.7.32,1,.48l1.65.78,1.42.68a.15.15,0,0,1-.12.28h0l-1.46-.58-1.66-.67-1-.4-1.19-.31-2.65-.68c-.94-.25-2-.33-3-.51a30.4,30.4,0,0,0-3.25-.39l-3.38-.24c-2.27,0-4.54-.11-6.67,0s-4.14.11-5.85.17l-5.72.21a1.32,1.32,0,0,1-1.37-1.27,1.33,1.33,0,0,1,1.27-1.37Z" />
    <path class="pink2" d="M87.76,24.08l-.6-1.54a9.67,9.67,0,0,0-.76-1.62c-.16-.29-.32-.61-.49-1s-.45-.67-.68-1a20.26,20.26,0,0,0-1.67-2.24c-.63-.77-1.37-1.52-2.14-2.29s-1.64-1.53-2.56-2.24S77,10.76,76.05,10.05c-3.91-2.71-8.13-5-11.27-6.78s-5.23-3-5.23-3a.15.15,0,0,1,0-.21A.14.14,0,0,1,59.7,0s2.13,1.1,5.39,2.65S72.7,6.29,76.86,8.82c1,.66,2.06,1.29,3,2S81.8,12.27,82.7,13s1.7,1.52,2.43,2.3a24.51,24.51,0,0,1,2,2.32c.29.38.56.74.81,1.09l.66,1.08a12.82,12.82,0,0,1,1,1.75l.69,1.5a1.32,1.32,0,0,1-2.4,1.11Z" />
    <path class="pink2" d="M72.92,34.73l-.81-1.35-.94-1.55a12.25,12.25,0,0,0-1.28-1.91l-1.63-2.09a22.9,22.9,0,0,0-2-2.21,24.93,24.93,0,0,0-2.33-2.25l-2.57-2.18-2.74-2c-.89-.68-1.84-1.25-2.73-1.84s-1.76-1.16-2.61-1.65l-2.37-1.43-4.95-2.89a.16.16,0,0,1-.06-.21.16.16,0,0,1,.21-.06l5.12,2.57L53.66,15c.89.44,1.78,1,2.73,1.5s1.93,1,2.88,1.68L62.18,20,65,22.07a26.11,26.11,0,0,1,2.57,2.18,23,23,0,0,1,2.3,2.2l1.92,2.17a14.77,14.77,0,0,1,1.45,1.89l1,1.49.9,1.3A1.32,1.32,0,0,1,73,34.8Z" />
    <path class="pink2" d="M138.83,70.35s1.77.63,4.45,1.49,6.31,2,9.86,3.42c1.77.72,3.51,1.5,5.1,2.34a32.56,32.56,0,0,1,4.15,2.59,16.36,16.36,0,0,1,1.53,1.22,14.72,14.72,0,0,1,1.1,1l.91.94a.16.16,0,0,1,0,.22.15.15,0,0,1-.21,0h0l-1-.86a13.64,13.64,0,0,0-1.15-.91A16,16,0,0,0,162,80.75a31.14,31.14,0,0,0-4.23-2.21,54.31,54.31,0,0,0-5.14-1.89c-3.57-1.1-7.22-2-10-2.62s-4.6-1.16-4.6-1.16h0a1.32,1.32,0,0,1,.69-2.55Z" />
    <path class="pink2" d="M138.51,95l1.29.12,1.47.13a13.29,13.29,0,0,1,1.95.27l2.33.43c.83.14,1.64.42,2.52.64s1.76.46,2.64.77l2.68.89c3.56,1.28,7.05,2.67,9.69,3.64s4.43,1.54,4.43,1.54a.15.15,0,0,1,.1.19.17.17,0,0,1-.19.11s-1.83-.44-4.55-1.2-6.31-1.88-9.91-2.87l-2.7-.67c-.89-.24-1.77-.38-2.62-.55s-1.68-.35-2.45-.42L143,97.8a12.43,12.43,0,0,0-1.88-.11l-1.48,0h-1.29a1.32,1.32,0,0,1,0-2.64Z" />
    <path class="pink2" d="M129.93,113.08l.18.35c.12.22.28.6.51,1a10.42,10.42,0,0,0,.87,1.23,13.8,13.8,0,0,0,1.42,1.54,24.39,24.39,0,0,0,4.41,3.16,59.35,59.35,0,0,0,5.76,2.82l3,1.28c1,.45,2,.8,3,1.34a23.52,23.52,0,0,1,2.62,1.49c.79.57,1.57,1.08,2.22,1.61l4.29,3.5a.15.15,0,0,1,0,.22.15.15,0,0,1-.21,0l-4.51-3.21c-.68-.48-1.44-.9-2.23-1.4a25.56,25.56,0,0,0-2.67-1.3c-.87-.42-2-.73-3-1.1l-3.13-1.09a58.7,58.7,0,0,1-6.11-2.51,27.14,27.14,0,0,1-5-3.12,18,18,0,0,1-1.76-1.68,13.56,13.56,0,0,1-1.24-1.56c-.29-.43-.45-.75-.59-1l-.21-.34a1.32,1.32,0,1,1,2.28-1.34Z" />
    <path class="pink2" d="M120.49,131.37l1,1.14c.33.36.73.79,1.18,1.3s1,1.15,1.49,1.8a26.2,26.2,0,0,1,1.67,2.22,25.89,25.89,0,0,1,1.68,2.6,29.91,29.91,0,0,1,1.53,2.93,30.82,30.82,0,0,1,1.2,3.2c.36,1.08.62,2.19.88,3.25s.49,2.12.79,3.1a21.74,21.74,0,0,0,1,2.79c.2.42.39.84.57,1.24s.44.75.64,1.1a15.76,15.76,0,0,0,1.26,1.86,14,14,0,0,0,1.09,1.36l1,1.15h0a.16.16,0,0,1,0,.22.15.15,0,0,1-.21,0l-1.09-1.09a12.53,12.53,0,0,1-1.2-1.31,17.54,17.54,0,0,1-1.42-1.82c-.23-.35-.49-.71-.73-1.1l-.68-1.25a24.28,24.28,0,0,1-1.19-2.83c-.37-1-.67-2-1-3.08s-.65-2.09-1.06-3.1a28.16,28.16,0,0,0-1.33-3,28.94,28.94,0,0,0-1.62-2.66,24.32,24.32,0,0,0-1.75-2.35,25.18,25.18,0,0,0-1.7-2c-.56-.59-1-1.15-1.52-1.62l-1.26-1.22-1.1-1.07a1.32,1.32,0,1,1,1.83-1.89Z" />
    <path class="pink2" d="M115.47,135.29s0,.49,0,1.35.08,2,.16,3.5.22,3.19.19,5.09c0,.93-.09,1.92-.14,2.91a23.28,23.28,0,0,1-.54,3l-.39,1.47c-.14.46-.28.92-.41,1.38-.24.92-.48,1.81-.66,2.71a33.6,33.6,0,0,0-.69,4.9c0,.72-.05,1.39,0,2s.1,1.09.2,1.49c.25.8.4,1.25.4,1.25v0a.16.16,0,0,1-.1.2.17.17,0,0,1-.19-.09l-.52-1.29a14.59,14.59,0,0,1-.32-1.54,19.52,19.52,0,0,1-.17-2,32.22,32.22,0,0,1,.33-5.07c.11-.92.29-1.88.47-2.85.11-.47.21-1,.32-1.43l.26-1.4a24.19,24.19,0,0,0,.3-2.8c0-.93,0-1.84-.08-2.74-.1-1.78-.37-3.47-.55-4.92s-.37-2.74-.43-3.58-.13-1.34-.13-1.34A1.33,1.33,0,0,1,114,134a1.32,1.32,0,0,1,1.44,1.19A.34.34,0,0,1,115.47,135.29Z" />
    <path class="pink2" d="M29.93,92.25,28.57,92a15,15,0,0,0-1.49-.24,16.34,16.34,0,0,0-1.94-.19,31.75,31.75,0,0,0-5,.09c-.91.1-1.86.2-2.82.39s-1.92.39-2.89.59-1.92.51-2.84.84-1.83.66-2.7,1a35.78,35.78,0,0,0-4.56,2.29c-.64.39-1.23.75-1.72,1.11s-.94.65-1.27.94l-1.07.87h0a.16.16,0,0,1-.21,0,.14.14,0,0,1,0-.21l1-1c.32-.32.75-.65,1.23-1s1-.81,1.66-1.25a35,35,0,0,1,4.5-2.68c.86-.42,1.75-.85,2.69-1.22S13,91.53,14,91.18s2-.62,3-.84,2-.44,2.92-.62a34.14,34.14,0,0,1,5.31-.48,21.41,21.41,0,0,1,2.17.06c.66,0,1.25.08,1.67.16l1.37.2A1.32,1.32,0,1,1,30,92.27Z" />
    <path class="pink2" d="M38.58,102.22l-.34-.12a9.29,9.29,0,0,0-.94-.28,6.25,6.25,0,0,0-1.22-.09,9.15,9.15,0,0,0-1.81.22,19,19,0,0,0-2.19.71c-.76.32-1.57.69-2.39,1.13-1.65.86-3.36,1.93-5.07,3a52.31,52.31,0,0,1-5.21,3.08c-1.73.81-3.44,1.44-4.8,2.06-.68.31-1.3.62-1.83.92s-1,.62-1.33.85l-1.07.87h0a.14.14,0,0,1-.21,0,.14.14,0,0,1,0-.21l1-1c.37-.27.78-.64,1.31-1s1.13-.71,1.81-1.08c1.37-.74,3-1.45,4.63-2.39a52.18,52.18,0,0,0,4.84-3.35c1.64-1.22,3.3-2.43,5-3.46a27.29,27.29,0,0,1,2.49-1.4,20,20,0,0,1,2.44-1A12.06,12.06,0,0,1,36,99.31a8.05,8.05,0,0,1,2,0A9,9,0,0,1,39,99.6l.35.09a1.32,1.32,0,0,1-.67,2.56Z" />
    <path class="pink2" d="M45.22,111.1v.35a5.77,5.77,0,0,1,0,1.11,8.43,8.43,0,0,1-.36,1.8,16.13,16.13,0,0,1-.83,2c-.37.69-.79,1.42-1.28,2.15s-1,1.46-1.61,2.19c-1.16,1.47-2.5,2.92-3.76,4.38l-.47.55-.52.57-1,1.06-1,1-1.07.94c-.72.61-1.38,1.22-2.05,1.75l-1.93,1.4a35.33,35.33,0,0,1-3,1.93l-1.15.7A.16.16,0,0,1,25,135a.15.15,0,0,1,0-.21h0l1.09-.78a31.68,31.68,0,0,0,2.81-2.12l1.79-1.51c.61-.57,1.2-1.2,1.84-1.83l1-1,.89-1.11.91-1.13.44-.54.43-.61c1.18-1.58,2.38-3.11,3.39-4.59.51-.74,1-1.47,1.36-2.17a19.41,19.41,0,0,0,1-2,11.25,11.25,0,0,0,.56-1.71,6.59,6.59,0,0,0,.17-1.24,4.1,4.1,0,0,0,0-.87l0-.35a1.32,1.32,0,0,1,2.63-.26Z" />
    <path class="pink2" d="M58.61,120.59l.07.41c0,.29.14.63.2,1.22a16.27,16.27,0,0,1,.14,2,13.78,13.78,0,0,1-.21,2.61,17.72,17.72,0,0,1-2.35,5.91c-1.16,2-2.51,3.86-3.8,5.82s-2.61,3.91-3.76,5.77a48.16,48.16,0,0,0-2.83,5.25c-.4.79-.65,1.55-.92,2.21a16.07,16.07,0,0,0-.61,1.73c-.31,1-.48,1.54-.48,1.54h0a.16.16,0,0,1-.2.1.15.15,0,0,1-.1-.18l.38-1.58a16.79,16.79,0,0,1,.51-1.8c.23-.68.45-1.47.8-2.29a49.74,49.74,0,0,1,2.55-5.5c1-2,2.23-4,3.42-6s2.4-4.06,3.38-6a15.52,15.52,0,0,0,1.76-5.33,11.65,11.65,0,0,0,0-2.19,14,14,0,0,0-.22-1.67c-.06-.43-.2-.87-.25-1.13s-.1-.41-.1-.41a1.32,1.32,0,1,1,2.56-.62A.29.29,0,0,1,58.61,120.59Z" />
    <path class="pink2" d="M67.74,128.66s.07.52.2,1.44c.07.46.14,1,.23,1.66,0,.32.09.66.14,1s0,.78,0,1.2q0,1.26.06,2.7c0,.95-.17,1.93-.25,2.95,0,.5-.11,1-.16,1.54l-.33,1.56c-.23,1-.45,2.13-.7,3.13s-.51,2-.69,3-.3,2-.42,3a18.73,18.73,0,0,0,0,2.8c0,.44.08.87.11,1.29s.19.8.28,1.17a7.94,7.94,0,0,0,.7,2c.12.29.24.56.35.81s.3.43.43.62l.82,1.18v0a.15.15,0,0,1,0,.21.14.14,0,0,1-.2,0l-.93-1.16-.49-.61c-.13-.25-.27-.53-.43-.82a8.94,8.94,0,0,1-.87-2l-.38-1.22c-.06-.43-.13-.88-.2-1.34a19.78,19.78,0,0,1-.2-2.94c.06-1,.07-2.06.22-3.12s.3-2.13.5-3.16.31-2.08.47-3.1c.07-.51.14-1,.22-1.5s0-1,0-1.48c0-1,.1-1.9,0-2.77s-.15-1.69-.22-2.44c0-.38-.07-.74-.1-1.08s-.14-.69-.21-1c-.13-.63-.24-1.18-.34-1.64l-.3-1.43a1.32,1.32,0,0,1,2.59-.54S67.74,128.63,67.74,128.66Z" />
    <path class="pink2" d="M78.86,134.09s0,.54-.1,1.5-.2,2.39-.41,4c-.4,3.29-1.19,7.58-1.4,11.87,0,1.07-.06,2.15,0,3.19a27.43,27.43,0,0,0,.35,3.07,20.36,20.36,0,0,0,.77,2.77c.16.43.29.86.47,1.25s.38.76.56,1.12a13.32,13.32,0,0,0,1.15,1.88,8.72,8.72,0,0,0,1,1.36l1,1.13v0a.15.15,0,0,1,0,.22.16.16,0,0,1-.21,0l-1-1.08a8.9,8.9,0,0,1-1.15-1.32,14.8,14.8,0,0,1-1.3-1.85l-.66-1.13c-.22-.39-.38-.83-.58-1.27a20.27,20.27,0,0,1-1-2.85,28.43,28.43,0,0,1-.58-3.18,33,33,0,0,1-.25-3.32c-.08-4.46.43-8.83.61-12.07.09-1.64.14-2.91.14-3.88V134a1.3,1.3,0,0,1,1.31-1.32A1.33,1.33,0,0,1,78.87,134S78.86,134.06,78.86,134.09Z" />
    <path class="pink2" d="M94.14,144.73l.26,1.36a15.29,15.29,0,0,1,.25,1.62c0,.65.19,1.4.18,2.18a33,33,0,0,1-.24,5.3c-.22,1.91-.56,3.9-.85,5.87-.13,1-.27,2-.33,2.94a24.53,24.53,0,0,0-.07,2.83,17.93,17.93,0,0,0,.29,2.63,17.5,17.5,0,0,0,.57,2.32c.19.71.52,1.32.72,1.89a11.36,11.36,0,0,0,.7,1.4l.66,1.2v0a.16.16,0,0,1-.27.16s-.27-.43-.76-1.17a13,13,0,0,1-.81-1.38c-.25-.57-.64-1.17-.89-1.89a20.39,20.39,0,0,1-1.26-5.1,24.06,24.06,0,0,1-.14-3c0-1,.06-2,.11-3,.16-2,.35-4,.43-5.86a31.54,31.54,0,0,0-.14-5c0-.73-.21-1.34-.29-1.91a12.17,12.17,0,0,0-.35-1.49c-.22-.85-.35-1.33-.35-1.33a1.32,1.32,0,1,1,2.54-.69Z" />
    <path class="pink2" d="M103.82,145.24s-.3,4.91-.61,9.82c0,.61-.07,1.23-.11,1.83s-.08,1.21-.12,1.79c-.13,1.19-.28,2.22-.3,3.12a7.67,7.67,0,0,0,0,1.21,6.84,6.84,0,0,0,.2.9c.21.45.35.71.35.71v0a.15.15,0,0,1-.06.21.16.16,0,0,1-.19-.05,7,7,0,0,1-.49-.74,7.46,7.46,0,0,1-.34-1,7.61,7.61,0,0,1-.2-1.29c-.1-.94-.07-2-.08-3.16,0-.57-.06-1.15-.09-1.75s-.06-1.22-.1-1.83l-.56-9.8v-.05a1.32,1.32,0,0,1,2.64-.15Z" />
    <path class="pink2" d="M28.52,81l-1-.79a11.28,11.28,0,0,0-1.14-.75c-.41-.28-1-.56-1.59-.88-1.23-.63-2.74-1.3-4.34-2.2a17.49,17.49,0,0,1-2.37-1.62c-.2-.17-.37-.27-.6-.49l-.5-.5-1-1a25.11,25.11,0,0,1-1.94-2l-1.75-2.15a21,21,0,0,1-1.52-2.07l-1.3-1.89c-.41-.58-.7-1.17-1-1.66L7.71,61.7c-.42-.71-.65-1.12-.65-1.12a.15.15,0,0,1,.05-.21.16.16,0,0,1,.21.05h0l.73,1.07L8.9,62.7c.34.47.66,1,1.11,1.56L11.44,66a20.17,20.17,0,0,0,1.63,1.91l1.84,1.93A23.27,23.27,0,0,0,17,71.73l1.07.92.53.46c.11.09.35.23.51.34a16,16,0,0,0,2.23,1.28c1.53.71,3.08,1.27,4.41,1.82.68.31,1.27.53,1.84.85a15.57,15.57,0,0,1,1.41.78l1.08.71a1.32,1.32,0,1,1-1.44,2.21Z" />
    <path class="pink2" d="M33.36,76.36s0-.17,0-.48c0-.16,0-.35,0-.58s-.08-.39-.12-.62a3.74,3.74,0,0,0-.21-.79,5.45,5.45,0,0,0-.37-1,13,13,0,0,0-1.24-2.2,44.58,44.58,0,0,0-4.4-5.06c-.87-.92-1.78-1.87-2.65-2.93s-1.59-2.24-2.36-3.33-1.45-2.32-2.09-3.48L18,52.53c-.6-1.1-1.19-2.16-1.75-3.17s-1.12-1.94-1.62-2.81-1-1.62-1.46-2.31a19.83,19.83,0,0,0-1.21-1.73L10.81,41h0a.17.17,0,0,1,0-.22.16.16,0,0,1,.22,0l1.19,1.42c.38.45.84,1,1.31,1.67s1.06,1.4,1.6,2.26,1.18,1.74,1.79,2.73L18.86,52c.66,1.06,1.35,2.16,2.06,3.27s1.46,2.18,2.21,3.28,1.59,2.17,2.44,3.09,1.8,1.82,2.71,2.68a45,45,0,0,1,4.89,5.07,15.48,15.48,0,0,1,1.6,2.49,7.38,7.38,0,0,1,.52,1.17,6.36,6.36,0,0,1,.35,1.07c.08.34.17.67.21.91s0,.41.07.57l.07.48a1.32,1.32,0,0,1-2.62.34S33.36,76.38,33.36,76.36Z" />
    <path class="pink2" d="M58.1,37.64l-1.23-1.13-.64-.6-.77-.51a11,11,0,0,0-2-1.16c-.38-.19-.77-.41-1.21-.6l-1.36-.54c-.94-.38-2-.68-3.06-1s-2.22-.7-3.37-1.11-2.28-.91-3.45-1.4a28.33,28.33,0,0,1-3.21-1.84A31.87,31.87,0,0,1,35,25.58,24.07,24.07,0,0,1,30.67,21a15,15,0,0,1-1.26-2.2,10.31,10.31,0,0,1-.65-1.84,6.84,6.84,0,0,1-.23-1.24l-.06-.44a.16.16,0,0,1,.14-.18.16.16,0,0,1,.17.13v0l.08.42a7.2,7.2,0,0,0,.29,1.17,10.88,10.88,0,0,0,.73,1.73,13.74,13.74,0,0,0,1.33,2,23.31,23.31,0,0,0,4.42,4.21,33.22,33.22,0,0,0,2.88,1.88,26.9,26.9,0,0,0,3.18,1.58c1.09.37,2.2.83,3.34,1.12s2.27.61,3.37.89,2.19.54,3.22.89l1.49.48c.48.18.94.4,1.38.58a14.88,14.88,0,0,1,2.39,1.25l1,.61.68.55,1.29,1.06a1.32,1.32,0,1,1-1.67,2.05Z" />
    <path class="pink2" d="M48.5,50.53l-.66-1.17-.34-.62-.43-.61A11.3,11.3,0,0,0,46,46.67l-.69-.81-.84-.79a19.5,19.5,0,0,0-1.93-1.55,20.12,20.12,0,0,0-2.33-1.32,17.77,17.77,0,0,0-2.59-1.05,20.83,20.83,0,0,0-2.74-.73l-2.75-.61a18.44,18.44,0,0,1-4.79-1.7,6.81,6.81,0,0,1-2.65-2.47,4.11,4.11,0,0,1-.43-.91l-.14-.34a.16.16,0,0,1,.29-.12v0l.15.31a3.94,3.94,0,0,0,.47.82,6.19,6.19,0,0,0,2.61,2.09,17.84,17.84,0,0,0,4.68,1.27l2.78.4a23.74,23.74,0,0,1,2.92.55,20.28,20.28,0,0,1,2.86.92A22.23,22.23,0,0,1,43.5,41.9a21.35,21.35,0,0,1,2.29,1.57l1,.81.85.85a15.33,15.33,0,0,1,1.42,1.61l.56.71c.15.22.28.41.39.59l.74,1.12a1.32,1.32,0,0,1-2.2,1.45A.35.35,0,0,1,48.5,50.53Z" />
    <path class="pink2" d="M37.06,63.43,34.42,59.9c-1.56-2.14-3.73-4.87-5.89-7.63-1.1-1.37-2.25-2.71-3.26-4.05a20.1,20.1,0,0,1-2.38-3.93,12.69,12.69,0,0,1-.95-3.11A12.17,12.17,0,0,1,21.77,40a.15.15,0,0,1,.14-.17.16.16,0,0,1,.17.13s.07.43.26,1.16A12.59,12.59,0,0,0,23.5,44c1.2,2.31,3.7,4.75,6.16,7.29s4.82,5.19,6.53,7.19l2.91,3.3a1.32,1.32,0,1,1-2,1.75A.5.5,0,0,1,37.06,63.43Z" />
    <path class="pink2" d="M137.4,105.35l.19.37a6.81,6.81,0,0,0,.56,1c.11.17.24.35.38.55l.58.63c.22.21.48.41.74.64s.59.4.92.59a10.36,10.36,0,0,0,2.38,1,16.76,16.76,0,0,0,2.93.55c2.1.24,4.43.23,6.76.29l3.49.06c1.14,0,2.3.1,3.4.16a30.61,30.61,0,0,1,3.18.51c1,.24,1.91.59,2.72.87a23.09,23.09,0,0,0,4,1.18,8.87,8.87,0,0,0,1.55.11v.31s0,0,0,0,0,0,0,0a9.39,9.39,0,0,1-1.64,0,23.27,23.27,0,0,1-4.16-1c-.85-.23-1.71-.5-2.69-.68s-2-.2-3.07-.3-2.18,0-3.33.06l-3.47.16c-2.33.08-4.66.24-6.93.12a19.35,19.35,0,0,1-3.28-.4,13.7,13.7,0,0,1-2.92-1c-.43-.22-.84-.46-1.23-.69s-.72-.51-1-.78l-.82-.79c-.24-.28-.45-.55-.64-.79a9.17,9.17,0,0,1-.7-1l-.21-.35a1.32,1.32,0,1,1,2.24-1.39A.56.56,0,0,1,137.4,105.35Z" />
    <path class="pink2" d="M140.42,82.29l.84.67.45.35.47.26a6.42,6.42,0,0,0,1.23.6l.77.29.87.23A17.51,17.51,0,0,0,147,85c1.39.13,2.92.18,4.48.17s3.13,0,4.62.12a20.05,20.05,0,0,1,2.14.3,11.78,11.78,0,0,1,1.87.53l.8.31.68.38a4.63,4.63,0,0,1,1.06.68l.85.68a.14.14,0,0,1,0,.21.14.14,0,0,1-.2,0l0,0-.88-.57a4.73,4.73,0,0,0-1.06-.55l-.67-.3-.79-.21a10.34,10.34,0,0,0-1.79-.34,19.35,19.35,0,0,0-2.05-.09c-1.43,0-3,.16-4.52.3s-3.14.26-4.66.26a19.57,19.57,0,0,1-2.21-.18l-1-.16-1-.27a8.34,8.34,0,0,1-1.7-.65l-.71-.34-.47-.31-.9-.58a1.31,1.31,0,0,1-.4-1.82,1.33,1.33,0,0,1,1.83-.4Z" />
    <path class="pink2" d="M138.48,58.72l1.34.58c.85.36,2.05.87,3.51,1.39a26.9,26.9,0,0,0,5,1.33,10.67,10.67,0,0,0,2.82.09c.88-.09,1.95-.44,3-.63a16.36,16.36,0,0,1,3.32-.25,16.06,16.06,0,0,1,3.14.37,27.52,27.52,0,0,1,5.24,1.72c1.47.63,2.68,1.15,3.55,1.42a6.06,6.06,0,0,0,1,.26l.36.08h0a.15.15,0,0,1,.12.18.16.16,0,0,1-.17.13l-.38,0a7.57,7.57,0,0,1-1.08-.2c-.92-.22-2.19-.66-3.68-1.17a26.79,26.79,0,0,0-5.18-1.32,16,16,0,0,0-2.95-.13,15.31,15.31,0,0,0-3,.43c-1,.24-1.94.66-3.13.88a12.56,12.56,0,0,1-3.28.11,29,29,0,0,1-5.53-1.07c-1.57-.45-2.84-.89-3.73-1.2l-1.37-.49a1.32,1.32,0,1,1,.87-2.49Z" />
    <path class="pink2" d="M129.78,40.72l1.59.07c1,.08,2.42.08,4.1.06l2.73-.16c1-.11,2-.21,3-.37s2.13-.34,3.22-.62,2.2-.52,3.3-.85,2.2-.66,3.28-1,2.14-.69,3.26-.92,2.13-.41,3.13-.55,1.93-.22,2.81-.28c1.74-.11,3.19-.14,4.2-.15l1.59,0a.16.16,0,0,1,.16.16.17.17,0,0,1-.15.16l-1.58.11c-1,.08-2.45.19-4.16.41-.85.11-1.77.25-2.74.44a29.33,29.33,0,0,0-3,.73c-1,.26-2.09.7-3.12,1.08s-2.14.86-3.25,1.22-2.22.76-3.33,1.08-2.22.58-3.29.85-2.14.42-3.14.59l-2.84.35c-1.79.13-3.28.22-4.28.21l-1.59,0a1.32,1.32,0,0,1-1.34-1.3,1.3,1.3,0,0,1,1.29-1.34Z" />
    <path class="pink2" d="M115.63,28.66l.58-1a9.52,9.52,0,0,1,.87-1.18,11.68,11.68,0,0,1,1.3-1.35,19.86,19.86,0,0,1,1.67-1.32c.63-.38,1.27-.85,2-1.2a39,39,0,0,1,4.48-2.07c3.09-1.22,6.23-2.2,8.53-3.05S138.81,16,138.81,16A.15.15,0,0,1,139,16a.15.15,0,0,1-.06.2,38.13,38.13,0,0,1-3.66,1.91c-2.24,1.06-5.28,2.33-8.19,3.78A37.77,37.77,0,0,0,123,24.26c-.64.39-1.17.86-1.71,1.26A16.69,16.69,0,0,0,120,26.79a9.58,9.58,0,0,0-.93,1.15,5.78,5.78,0,0,0-.6.95l-.49,1a1.32,1.32,0,0,1-2.38-1.14Z" />
    <path class="pink2" d="M125.6,120.6l.63,1.11c.21.34.44.81.74,1.22s.6.94,1,1.47.83,1.11,1.36,1.66,1.08,1.15,1.69,1.73c1.23,1.17,2.66,2.33,4.06,3.59.71.63,1.38,1.3,2,2,.31.36.61.71.92,1s.54.74.81,1.09c.53.72.94,1.48,1.36,2.17s.73,1.4,1,2.05.51,1.24.72,1.77l.46,1.4.39,1.22a.16.16,0,0,1-.1.2.16.16,0,0,1-.19-.09h0s-.17-.43-.48-1.18c-.15-.37-.34-.82-.56-1.34l-.84-1.68c-.31-.61-.72-1.23-1.12-1.9a22.69,22.69,0,0,0-1.46-2l-.85-1-.94-.92q-1-.9-2.07-1.74c-1.45-1.11-3-2.16-4.37-3.28-.69-.57-1.36-1.13-2-1.71s-1.12-1.16-1.62-1.69-.89-1.1-1.27-1.57a14.74,14.74,0,0,1-.86-1.21l-.72-1.06a1.32,1.32,0,0,1,2.19-1.48A.41.41,0,0,1,125.6,120.6Z" />
    <path class="pink2" d="M140.44,70a18.75,18.75,0,0,0-8.84-28.4,18.74,18.74,0,0,0-27-15.75A18.73,18.73,0,0,0,72.92,32a18.73,18.73,0,0,0-26.3,16.84A18.74,18.74,0,0,0,34.36,66.43,20.11,20.11,0,0,0,34.54,69,18.74,18.74,0,0,0,38,101.74a18.76,18.76,0,0,0,16,18.54,18.74,18.74,0,0,0,23,15.5,18.73,18.73,0,0,0,36.66,2.56,18.73,18.73,0,0,0,16.51-18.59,19,19,0,0,0-.33-3.48,18.75,18.75,0,0,0,11.9-26.78A18.75,18.75,0,0,0,140.44,70Z" />
    <path class="pink3" d="M94.31,141.88a14.35,14.35,0,0,1-14.22-12.54L79.8,127l-2.27.56a14.61,14.61,0,0,1-3.42.41,14.38,14.38,0,0,1-14.18-12.27l-.23-1.54L58.16,114A14.4,14.4,0,0,1,45.89,99.78V98.39l-1.28-.53a14.34,14.34,0,0,1-2.62-25l1.06-.73-.18-1.26a15.14,15.14,0,0,1-.14-2,14.39,14.39,0,0,1,9.38-13.45l1.34-.49,0-1.43A14.39,14.39,0,0,1,67.8,39.36a14.15,14.15,0,0,1,5.8,1.23l2,.9.76-2.1a14.33,14.33,0,0,1,24.2-4.69l1.05,1.19,1.43-.71a14.33,14.33,0,0,1,20.69,12l.07,1.37,1.29.47a14.39,14.39,0,0,1,9.39,13.46,14.24,14.24,0,0,1-2.63,8.27L131,72l.85,1.2a14.24,14.24,0,0,1,2.63,8.27,14.08,14.08,0,0,1-1.62,6.61l-.5,1,.5,1a14.15,14.15,0,0,1,1.62,6.62,14.33,14.33,0,0,1-10.72,13.87l-1.88.49.36,1.91a15.08,15.08,0,0,1,.25,2.67,14.32,14.32,0,0,1-12.63,14.22l-1.39.17-.37,1.35A14.35,14.35,0,0,1,94.31,141.88Z" />
    <path class="pink3" d="M128.22,89.83c6.5,9.71-4.38,22.25-12.23,18.08,3.77,9.12,2.38,16.08-2.61,18.91-2.32,1.32-5.45,1.73-9.22,1-.93,12.75-20.39,4.51-17.16-6.43-11.81,8.8-25.66.88-22.66-11.28-9.92,1.94-19.16-9-14.66-16C38.59,93.83,34.31,79.54,47.16,75c-4.62-9.08,1.66-18.32,11.05-17.47-1.16-18.33,14.85-17.17,21.42-9.13-3.77-11.84,12.55-21.06,21.94-7.48a3.43,3.43,0,0,1,.29-.41c3-3.75,18.82-7.43,18.14,9.93,11.09,2.45,14.56,13.33,5.74,19.95C133.08,72.34,135.71,82.07,128.22,89.83Z" />
    <path class="pink4" d="M128.22,89.83c6.5,9.71-4.38,22.25-12.23,18.08,3.77,9.12,2.38,16.08-2.61,18.91-2.91-2.38-4.79-6-3.6-10.07-11.81,8.8-25.66.88-22.66-11.29C77.2,107.4,68,96.52,72.46,89.51c-11.09-.35-15.37-14.64-2.52-19.2C65.32,61.24,71.59,52,81,52.85c-1.16-18.33,14.85-17.17,21.42-9.14a10.88,10.88,0,0,1-.55-3.21c3-3.75,18.82-7.43,18.14,9.93,11.09,2.45,14.56,13.33,5.74,19.95C133.08,72.34,135.71,82.07,128.22,89.83Z" />
    <path class="pink2" d="M54.38,41.88a9.12,9.12,0,0,1,.31-1.52,9,9,0,0,1,.59-1.48,9.42,9.42,0,0,1,1.91-2.53,13.25,13.25,0,0,1,5.47-3,18.47,18.47,0,0,1,6.14-.6,23.09,23.09,0,0,1,6,1.16l-1.2.56a12.61,12.61,0,0,1,.6-1.22c.22-.39.44-.76.68-1.13A20.12,20.12,0,0,1,76.47,30a16.15,16.15,0,0,1,4-3.42,14.45,14.45,0,0,1,4.93-1.85A15.4,15.4,0,0,1,88,24.56a15.76,15.76,0,0,1,2.57.25.52.52,0,0,1,.44.6.54.54,0,0,1-.55.44h0a15.74,15.74,0,0,0-4.76.35,13,13,0,0,0-4.31,1.86,16.82,16.82,0,0,0-3.47,3.17,17.35,17.35,0,0,0-1.39,1.92c-.21.34-.41.68-.6,1s-.36.71-.49,1l-.34.83-.87-.26a24,24,0,0,0-5.54-1.11,17.29,17.29,0,0,0-5.56.44,11.62,11.62,0,0,0-4.91,2.39,8.2,8.2,0,0,0-1.78,2,8.11,8.11,0,0,0-1,2.56.53.53,0,0,1-1-.17Z" />
    <path class="pink2" d="M121.3,30.88a6.78,6.78,0,0,1,2,1,10.79,10.79,0,0,1,1.67,1.5,15.31,15.31,0,0,1,1.31,1.8,16.63,16.63,0,0,1,1,2,9.88,9.88,0,0,1,.39,1l.33,1c.21.7.34,1.42.52,2.12s.23,1.43.32,2.15l.14,2.15-.8-.92a11.39,11.39,0,0,1,1.27.37c.4.15.79.31,1.17.49a13.85,13.85,0,0,1,2.16,1.29,12.71,12.71,0,0,1,3.39,3.66,16.82,16.82,0,0,1,2.31,9.37.53.53,0,0,1-1.05,0,17.46,17.46,0,0,0-2.68-8.47,12.79,12.79,0,0,0-3.06-3.08,12.37,12.37,0,0,0-1.87-1.07,10.42,10.42,0,0,0-1-.4,8.39,8.39,0,0,0-1-.28l-.75-.14,0-.77c-.1-1.36-.22-2.7-.42-4-.15-.66-.25-1.32-.43-2l-.28-1c-.08-.33-.22-.62-.33-.94a14.52,14.52,0,0,0-.78-1.81,12.85,12.85,0,0,0-1-1.66,11.91,11.91,0,0,0-1.3-1.45A6.88,6.88,0,0,0,121,31.87l0,0a.52.52,0,0,1-.24-.7A.53.53,0,0,1,121.3,30.88Z" />
    <path class="pink2" d="M30,87a16.68,16.68,0,0,0,1.35,4.41,13.56,13.56,0,0,0,2.5,3.76,12.23,12.23,0,0,0,3.6,2.59,13,13,0,0,0,2.12.75,18.1,18.1,0,0,0,2.22.41l1,.15-.15,1c0,.37-.09.83-.11,1.25s0,.87,0,1.31a17.22,17.22,0,0,0,.26,2.59,14.2,14.2,0,0,0,1.75,4.8,11.7,11.7,0,0,0,1.57,2,10.76,10.76,0,0,0,1,.84c.33.28.7.5,1,.75A15.72,15.72,0,0,0,53,115.5h0a.52.52,0,0,1-.19,1,16.76,16.76,0,0,1-2.78-.58,15.81,15.81,0,0,1-2.67-1.1,12.54,12.54,0,0,1-4.28-3.95A14.27,14.27,0,0,1,41,105.5a19.87,19.87,0,0,1-.33-2.87c0-.48,0-1,0-1.44s0-1,.11-1.48l.87,1.13a15.88,15.88,0,0,1-4.93-1.4,12.78,12.78,0,0,1-4.1-3.11A15.21,15.21,0,0,1,30,92,16.14,16.14,0,0,1,29,87a.52.52,0,0,1,1-.1Z" />
    <g class="pink5">
      <path class="pink6" d="M75.46,56.66a4.84,4.84,0,1,1-4.84-4.84A4.84,4.84,0,0,1,75.46,56.66Z" />
      <path class="pink6" d="M117.12,93.81a3.3,3.3,0,1,1-3.3-3.3A3.3,3.3,0,0,1,117.12,93.81Z" />
      <path class="pink6" d="M96.18,52.7a4.84,4.84,0,1,1-4.84-4.84A4.84,4.84,0,0,1,96.18,52.7Z" />
      <path class="pink6" d="M81.89,82.87a3.19,3.19,0,1,1-3.19-3.18A3.19,3.19,0,0,1,81.89,82.87Z" />
      <path class="pink6" d="M79.19,68.86a1.7,1.7,0,1,1-1.7-1.7A1.7,1.7,0,0,1,79.19,68.86Z" />
      <path class="pink6" d="M112.45,49.24a2.5,2.5,0,1,1-2.5-2.5A2.5,2.5,0,0,1,112.45,49.24Z" />
      <path class="pink6" d="M125,80.4a2.09,2.09,0,1,1-2.09-2.09A2.09,2.09,0,0,1,125,80.4Z" />
      <path class="pink6" d="M114.87,118.16a3.19,3.19,0,1,1-3.19-3.19A3.19,3.19,0,0,1,114.87,118.16Z" />
      <path class="pink6" d="M50.56,84.36a1.87,1.87,0,1,1-1.87-1.87A1.87,1.87,0,0,1,50.56,84.36Z" />
      <path class="pink6" d="M98.32,128.38a1.87,1.87,0,1,1-1.87-1.86A1.87,1.87,0,0,1,98.32,128.38Z" />
      <path class="pink6" d="M124.7,99.36a1.87,1.87,0,1,1-1.86-1.87A1.86,1.86,0,0,1,124.7,99.36Z" />
      <path class="pink6" d="M126.68,60.12a1.87,1.87,0,1,1-1.87-1.87A1.87,1.87,0,0,1,126.68,60.12Z" />
      <path class="pink6" d="M91.67,40.83A1.87,1.87,0,1,1,89.8,39,1.87,1.87,0,0,1,91.67,40.83Z" />
      <path class="pink6" d="M85.3,105.79a2.7,2.7,0,1,1-2.7-2.69A2.7,2.7,0,0,1,85.3,105.79Z" />
      <path class="pink6" d="M61,75.78a2,2,0,1,1-2-2A2,2,0,0,1,61,75.78Z" />
      <path class="pink6" d="M53.09,68a.88.88,0,1,1-.88-.87A.88.88,0,0,1,53.09,68Z" />
      <path class="pink6" d="M62.21,99.69A3.19,3.19,0,1,1,59,96.51,3.19,3.19,0,0,1,62.21,99.69Z" />
      <path class="pink6" d="M95.68,74.3a2,2,0,1,1-2-2A2,2,0,0,1,95.68,74.3Z" />
      <path class="pink6" d="M114.65,61.44a2,2,0,1,1-2-2A2,2,0,0,1,114.65,61.44Z" />
      <path class="pink6" d="M98.05,97.88a2,2,0,1,1-2-2A2,2,0,0,1,98.05,97.88Z" />
      <path class="pink6" d="M71.77,96.18A1.37,1.37,0,1,1,70.4,94.8,1.37,1.37,0,0,1,71.77,96.18Z" />
      <path class="pink6" d="M94.2,61.11a1.38,1.38,0,1,1-1.38-1.38A1.37,1.37,0,0,1,94.2,61.11Z" />
      <path class="pink6" d="M108.21,81.17a1.37,1.37,0,1,1-1.37-1.37A1.37,1.37,0,0,1,108.21,81.17Z" />
      <path class="pink6" d="M105.41,110.74a1.38,1.38,0,1,1-1.37-1.37A1.37,1.37,0,0,1,105.41,110.74Z" />
    </g>
  </g>
</svg>
