<svg xmlns="http://www.w3.org/2000/svg" viewBox="0 0 304.29 592.58">
  <defs>
    <style>.purple1{isolation:isolate;}.purple2,.purple3,.purple4{fill:#7208c0;}.purple3{mix-blend-mode:screen;}.purple4{opacity:0.6;mix-blend-mode:multiply;}</style>
  </defs>
  <g class="purple1">
    <path class="purple2" d="M162.05,90.79c-65.78-24.31-113,38.62-78.65,134.43C98,266.1,151.34,367.56,124.87,428.29,76.24,539.84,262.15,564.15,255,416.85S258.87,126.58,162.05,90.79Z" />
    <path class="purple2" d="M220.23,487.14a58.68,58.68,0,0,1-42.9,18.44c-17.13,0-32.1-7.29-40.11-19.46-8.7-13.3-8.5-31.35.58-52.18C162,378.4,129,299,107.14,246.51c-4.29-10.3-8-19.19-10.46-26.06-14.78-41.26-14.13-79.38,1.76-101.93A42.86,42.86,0,0,1,120.15,102a44.57,44.57,0,0,1,14.48-2.29A65.74,65.74,0,0,1,157.16,104c65.13,24.06,75.72,106.84,79.9,208,.59,14.38,1.08,29.16,1.54,44.17.65,20,1.31,40.7,2.29,61.36C242.33,447.35,235.2,471.45,220.23,487.14Z" />
    <path class="purple3" d="M229.43,324.26C224.69,351,190.72,338.11,179,299.15c-5.9-19.63-23.64-99.93-50.95-144.67-15.8-25.88-15.75-54.89,20.71-47.13C216.6,121.78,238.66,272.18,229.43,324.26Z" />
    <path class="purple4" d="M189.35,478.42a13.9,13.9,0,1,1-13.89-13.9A13.89,13.89,0,0,1,189.35,478.42Z" />
    <path class="purple4" d="M122.87,146a10.63,10.63,0,1,1-10.62-10.62A10.62,10.62,0,0,1,122.87,146Z" />
    <circle class="purple4" cx="199.98" cy="251.74" r="7.36" />
    <path class="purple4" d="M159.38,148.76a5.72,5.72,0,1,1-5.72-5.72A5.72,5.72,0,0,1,159.38,148.76Z" />
    <circle class="purple4" cx="179.82" cy="187.17" r="13.89" />
    <path class="purple4" d="M127.78,205.15a10.63,10.63,0,1,1-10.63-10.62A10.63,10.63,0,0,1,127.78,205.15Z" />
    <circle class="purple4" cx="216.87" cy="447.36" r="7.36" />
    <path class="purple4" d="M172.46,413.85a6.27,6.27,0,1,1-6.27-6.27A6.27,6.27,0,0,1,172.46,413.85Z" />
    <path class="purple4" d="M159.38,284.44a10.08,10.08,0,1,1-10.08-10.09A10.08,10.08,0,0,1,159.38,284.44Z" />
    <path class="purple4" d="M185.27,324.76a5.18,5.18,0,1,1-5.18-5.18A5.18,5.18,0,0,1,185.27,324.76Z" />
    <path class="purple4" d="M222.59,311.68a10.08,10.08,0,1,1-10.08-10.08A10.08,10.08,0,0,1,222.59,311.68Z" />
    <path class="purple4" d="M167.56,348.19a6.82,6.82,0,1,1-6.82-6.81A6.82,6.82,0,0,1,167.56,348.19Z" />
    <circle class="purple4" cx="219.05" cy="393.96" r="6.81" />
    <path class="purple4" d="M151.49,241.39a5.18,5.18,0,1,1-5.18-5.18A5.18,5.18,0,0,1,151.49,241.39Z" />
    <path class="purple4" d="M162.38,448.45a10.08,10.08,0,1,1-10.08-10.08A10.08,10.08,0,0,1,162.38,448.45Z" />
    <path class="purple4" d="M202.43,422.84a8.45,8.45,0,1,1-8.45-8.45A8.45,8.45,0,0,1,202.43,422.84Z" />
    <path class="purple4" d="M219.32,350.91a3,3,0,1,1-3-3A3,3,0,0,1,219.32,350.91Z" />
    <path class="purple4" d="M124.51,256.92a3,3,0,1,1-3-3A3,3,0,0,1,124.51,256.92Z" />
    <path class="purple4" d="M155.84,183.63a5.73,5.73,0,1,1-5.72-5.72A5.73,5.73,0,0,1,155.84,183.63Z" />
    <path class="purple4" d="M195.62,373.8a9,9,0,1,1-9-9A9,9,0,0,1,195.62,373.8Z" />
    <path class="purple4" d="M143,117.15a5.73,5.73,0,1,1-5.73-5.72A5.74,5.74,0,0,1,143,117.15Z" />
    <path class="purple2" d="M79,142.31s-.18-.28-.5-.81-.84-1.27-1.53-2.23-1.62-2.13-2.76-3.41-2.47-2.68-3.93-4.21-3.19-3.07-5.12-4.58-3.94-3.13-6.12-4.7-4.58-3-7-4.5c-2.5-1.33-5-2.84-7.59-4.05s-5.19-2.57-7.88-3.53-5.25-2.15-7.86-2.93L21.21,105l-6.86-1.69c-2.12-.55-4.08-1-5.84-1.26L4,101.24l-4-.71L4,101l4.6.5c1.79.15,3.78.45,6,.85l7,1.21,7.75,1.86c2.7.6,5.38,1.6,8.18,2.42s5.51,2,8.3,3,5.42,2.43,8.1,3.63c2.57,1.4,5.17,2.68,7.55,4.17s4.69,2.91,6.76,4.47,4,3.07,5.77,4.48,3.28,2.88,4.55,4.24,2.41,2.54,3.31,3.55,1.54,1.86,2,2.55l.67.94Z" />
    <path class="purple2" d="M89.55,113.87l-.31-.9c-.16-.53-.53-1.4-1-2.49s-1-2.43-1.86-3.91-1.7-3.16-2.77-4.94S81.31,98,79.89,96s-3-4-4.75-5.9-3.64-3.92-5.6-5.89-4.19-3.72-6.3-5.61c-2.27-1.68-4.51-3.43-6.8-5s-4.67-3-7-4.38l-6.82-3.63c-2.19-1.1-4.36-1.94-6.32-2.83a54,54,0,0,0-5.44-2.2l-4.28-1.5-3.73-1.3,3.81,1L31.09,60a56.64,56.64,0,0,1,5.62,1.83c2,.75,4.28,1.44,6.57,2.4l7.17,3.18c2.42,1.23,4.87,2.61,7.41,4s4.88,3.1,7.35,4.67c2.3,1.78,4.73,3.44,6.92,5.32s4.37,3.72,6.27,5.73,3.76,3.93,5.43,5.85,3.11,3.86,4.42,5.66,2.44,3.52,3.36,5.1,1.69,3,2.33,4.14,1,2.13,1.35,2.87l.43,1Z" />
    <path class="purple2" d="M189.25,119s0-.37-.1-1-.15-1.75-.2-3c-.16-2.56-.23-6.2-.13-10.55A136.91,136.91,0,0,1,190,89.54c.27-2.7.89-5.45,1.36-8.26s1.26-5.6,2-8.39c.92-2.75,1.58-5.56,2.7-8.19a74.63,74.63,0,0,1,3.3-7.65,56.45,56.45,0,0,1,3.72-6.83A53.07,53.07,0,0,1,207,44.45l3.64-4.59c1.2-1.26,2.31-2.3,3.19-3.19l2.79-2.75L214,36.86c-.81,1-1.84,2-2.93,3.39L207.81,45A53.57,53.57,0,0,0,204.42,51a56.53,56.53,0,0,0-3.15,6.92,68.48,68.48,0,0,0-2.66,7.67c-.91,2.61-1.35,5.41-2.05,8.11-.53,2.76-1,5.53-1.36,8.25s-.67,5.43-.74,8.06a131.05,131.05,0,0,0-.12,14.33c.2,4.18.52,7.65.84,10,.14,1.21.28,2.12.38,2.73s.16,1,.16,1Z" />
    <path class="purple2" d="M155.84,98.09s0-.34,0-1,.1-1.65.2-2.84c.22-2.4.61-5.8,1.33-9.82.34-2,.78-4.18,1.31-6.45s1.18-4.65,1.81-7.11,1.5-4.94,2.41-7.45,1.82-5,3-7.5a79.59,79.59,0,0,1,3.49-7.26c.62-1.17,1.21-2.36,1.85-3.48l2-3.28a61.82,61.82,0,0,1,4.08-6,51.83,51.83,0,0,1,4-5.1c1.33-1.51,2.51-2.92,3.62-4.11l3.05-2.91,2.65-2.53L188.26,24l-2.8,3.11c-1,1.27-2.07,2.76-3.26,4.34a49.67,49.67,0,0,0-3.57,5.32,57,57,0,0,0-3.54,6.19c-.57,1.1-1.15,2.21-1.73,3.34s-1,2.35-1.54,3.53c-1.08,2.36-2,4.82-2.84,7.31s-1.58,5-2.33,7.47-1.22,5-1.77,7.36-.95,4.74-1.21,7-.61,4.32-.78,6.27c-.39,3.89-.52,7.14-.55,9.39,0,1.14,0,2,0,2.57s0,.92,0,.92Z" />
    <path class="purple2" d="M111.28,99.52l-.25-1c-.18-.64-.44-1.57-.78-2.76-.68-2.4-1.81-5.82-3.29-9.88-.8-2-1.57-4.22-2.58-6.48s-2-4.69-3.21-7.11-2.49-4.91-3.82-7.43S94.42,60,93,57.45c-1.67-2.35-3.22-4.81-5-7.06S84.57,45.87,82.65,44a72.78,72.78,0,0,0-5.5-5.58c-1.9-1.6-3.56-3.33-5.36-4.56l-4.86-3.45c-1.48-1-2.89-1.63-4-2.27l-3.54-1.94s1.33.62,3.67,1.68c1.15.57,2.62,1.13,4.18,2L72.39,33c1.91,1.13,3.7,2.74,5.75,4.24a73.32,73.32,0,0,1,6,5.3c2.1,1.82,3.88,4.09,5.91,6.19s3.7,4.57,5.59,6.87c1.67,2.45,3.48,4.82,5,7.29s3.13,4.9,4.45,7.35,2.67,4.79,3.81,7.08,2.16,4.48,3.13,6.49c1.82,4.08,3.23,7.54,4.13,10l1,2.91.34,1Z" />
    <path class="purple2" d="M129.71,93.61s-.65-6.24-.66-15.38c0-4.6.11-10,.61-15.67.16-2.86.55-5.8.87-8.78s.9-6,1.35-9c.65-3,1.17-6,1.91-8.91s1.42-5.78,2.4-8.47S137.86,22,139,19.64s1.91-4.71,3-6.72,2.07-3.84,2.94-5.47,1.9-2.89,2.61-4L149.85,0l-2.09,3.59c-.63,1.16-1.54,2.48-2.32,4.14s-1.61,3.56-2.54,5.61-1.6,4.41-2.49,6.83S139,25.26,138.18,28s-1.16,5.59-1.79,8.46-.84,5.88-1.28,8.83c-.24,3-.58,5.95-.72,8.89s-.3,5.82-.27,8.63c-.1,5.59.18,10.82.45,15.27.62,9,1.63,14.71,1.63,14.71Z" />
    <path class="purple2" d="M202.75,134.28l.23-.92c.15-.67.41-1.55.75-2.64a67.6,67.6,0,0,1,3.48-8.72c.77-1.77,1.84-3.57,2.87-5.51s2.32-3.89,3.75-5.81a63.76,63.76,0,0,1,4.54-5.8,65.85,65.85,0,0,1,5.21-5.5c1.75-1.83,3.84-3.31,5.7-4.94s4-2.83,5.95-4.2,4-2.29,5.89-3.36a49.9,49.9,0,0,1,5.47-2.57,45.88,45.88,0,0,1,4.72-1.93L255,81.16l3.24-1.06-3.14,1.32-3.6,1.52a43.65,43.65,0,0,0-4.5,2.29,51,51,0,0,0-5.17,3c-1.73,1.21-3.64,2.35-5.46,3.75s-3.66,2.89-5.41,4.53-3.54,3.29-5.07,5.18a75.14,75.14,0,0,0-8.35,11.45c-1.18,1.92-2.1,3.9-3.05,5.73s-1.67,3.64-2.25,5.34a61.52,61.52,0,0,0-2.51,8.2c-.22,1-.38,1.77-.45,2.25s-.13.82-.13.82Z" />
    <path class="purple2" d="M220.9,169.43l.34-.76c.25-.55.62-1.26,1.08-2.14a63,63,0,0,1,4.37-6.89c.94-1.39,2.14-2.77,3.31-4.27s2.57-3,4.08-4.4a71,71,0,0,1,9.92-8.32c1.75-1.32,3.71-2.34,5.52-3.5s3.8-2,5.61-2.89,3.72-1.52,5.43-2.24a49.49,49.49,0,0,1,5-1.62,39.3,39.3,0,0,1,4.26-1.17l3.33-.68L276,130l-2.83.86-3.23,1a42.78,42.78,0,0,0-4.09,1.55,48.48,48.48,0,0,0-4.72,2.06c-1.62.86-3.37,1.66-5.08,2.67s-3.44,2.1-5.13,3.3-3.41,2.43-5,3.85a68,68,0,0,0-8.6,8.73c-1.29,1.47-2.33,3.05-3.4,4.46s-1.94,2.87-2.68,4.23a57.18,57.18,0,0,0-3.35,6.59c-.34.82-.59,1.45-.72,1.83l-.23.68Z" />
    <path class="purple2" d="M231.3,196.46s.77-.82,2.1-2,3.29-2.88,5.75-4.68a89.35,89.35,0,0,1,19.25-10.9c1.83-.83,3.75-1.44,5.6-2.09s3.74-1.11,5.52-1.65,3.59-.79,5.25-1.17a45.3,45.3,0,0,1,4.74-.75c1.48-.17,2.81-.41,4-.46l3.11-.15,2.7-.13-2.68.41-3.05.47c-1.18.17-2.49.55-3.92.86a43.37,43.37,0,0,0-4.56,1.22c-1.59.55-3.3,1-5,1.68s-3.48,1.27-5.18,2.14-3.49,1.59-5.16,2.57a81.94,81.94,0,0,0-9.57,6,83.65,83.65,0,0,0-7.58,6.2c-2.11,1.91-3.73,3.64-4.83,4.85s-1.56,1.85-1.61,1.9Z" />
    <path class="purple2" d="M236.21,233.24c-.05,0,.77-.82,2.1-2s3.28-2.88,5.74-4.68a90.15,90.15,0,0,1,8.67-5.69,86.13,86.13,0,0,1,10.59-5.21c1.82-.83,3.74-1.44,5.59-2.09s3.74-1.11,5.53-1.65,3.58-.79,5.24-1.17a45.71,45.71,0,0,1,4.74-.75c1.48-.17,2.82-.41,4-.46l3.11-.15,2.7-.13-2.67.41-3.06.47c-1.18.17-2.48.55-3.91.86A46.12,46.12,0,0,0,280,212.2c-1.58.55-3.3,1-5,1.68s-3.47,1.27-5.18,2.14-3.49,1.6-5.16,2.57a84.83,84.83,0,0,0-17.14,12.21,67.09,67.09,0,0,0-4.83,4.85c-1.11,1.22-1.57,1.85-1.62,1.9Z" />
    <path class="purple2" d="M236.24,262.91s3.76-1.92,9.44-4.08c2.86-1.1,6.22-2.28,9.87-3.37s7.58-2.1,11.55-2.9c2-.34,4-.8,6-1s3.91-.56,5.81-.65,3.71-.32,5.45-.29,3.36-.11,4.87,0l4.11.26c1.21.13,2.26.32,3.13.44l2.72.4-2.75-.12c-.87,0-1.92-.11-3.13-.12l-4.07.16c-1.48,0-3.09.3-4.78.45s-3.45.5-5.28.83-3.68.77-5.57,1.21-3.77,1-5.66,1.58c-3.77,1.17-7.46,2.52-10.86,3.94s-6.51,2.88-9.14,4.2c-5.28,2.67-8.45,4.73-8.45,4.73Z" />
    <path class="purple2" d="M240.11,297.56s3.91-1.07,9.68-2.09a137.91,137.91,0,0,1,21.45-2.05,97.17,97.17,0,0,1,11.47.56c1.81.28,3.57.43,5.21.79s3.2.65,4.61,1l3.79,1.17a26.85,26.85,0,0,1,2.84,1.14l2.44,1-2.53-.78a27.87,27.87,0,0,0-2.91-.82l-3.85-.75c-1.41-.23-3-.34-4.59-.53s-3.37-.14-5.14-.22a94.81,94.81,0,0,0-11.14.63A133.89,133.89,0,0,0,251,300.85c-5.49,1.59-8.9,2.93-8.9,2.93Z" />
    <path class="purple2" d="M242.56,334.34s3.91-1.07,9.69-2.08a136.46,136.46,0,0,1,21.44-2.06,97.07,97.07,0,0,1,11.47.56c1.81.28,3.57.43,5.21.79s3.2.65,4.61,1l3.8,1.17a27.49,27.49,0,0,1,2.83,1.14l2.44,1-2.53-.78a27.87,27.87,0,0,0-2.91-.82l-3.85-.75c-1.41-.23-3-.34-4.59-.53s-3.36-.14-5.14-.22a94.81,94.81,0,0,0-11.14.63,133.89,133.89,0,0,0-20.41,4.17c-5.49,1.59-8.9,2.93-8.9,2.93Z" />
    <path class="purple2" d="M247.32,369.46l.65,0,1.86,0c1.58,0,3.81.05,6.47.2s5.75.44,9,1a95.76,95.76,0,0,1,10.17,2.09c1.69.54,3.39,1,5,1.57s3.25,1.13,4.74,1.87a45.68,45.68,0,0,1,4.26,2.08c1.3.78,2.59,1.39,3.65,2.16l2.92,2.07c.85.63,1.51,1.3,2.09,1.79l1.78,1.58-2-1.36c-.63-.42-1.34-1-2.25-1.52l-3.08-1.67c-1.12-.63-2.46-1.08-3.79-1.67a43.17,43.17,0,0,0-4.34-1.52c-1.5-.54-3.14-.82-4.75-1.25s-3.32-.61-5-.93a93.76,93.76,0,0,0-9.91-.84c-3.17-.14-6.13,0-8.65.09s-4.61.34-6,.53l-1.64.22L248,376Z" />
    <path class="purple2" d="M254,404.88l.68.17,2,.55c1.65.47,4,1.22,6.71,2.18s5.91,2.22,9.2,3.76c1.66.73,3.33,1.59,5,2.46s3.36,1.88,5.05,2.81,3.26,2.08,4.83,3.14,3.07,2.2,4.43,3.38,2.74,2.28,3.87,3.49,2.27,2.29,3.18,3.4,1.69,2.17,2.4,3.1a25.93,25.93,0,0,1,1.61,2.54l1.35,2.24L302.71,436c-.53-.64-1-1.5-1.85-2.33l-2.68-2.77c-1-1-2.22-1.91-3.43-3s-2.69-1.94-4.1-3-3-1.85-4.61-2.8-3.28-1.7-5-2.5-3.39-1.55-5.12-2.17-3.39-1.31-5-1.83c-3.3-1.13-6.46-1.95-9.15-2.63a91.07,91.07,0,0,0-9-1.77Z" />
    <path class="purple2" d="M246.16,440.55l.86.09c.64.07,1.47.21,2.49.39a52.86,52.86,0,0,1,8.23,2.31c1.67.54,3.38,1.39,5.22,2.17a62,62,0,0,1,5.48,3.05l2.78,1.78,2.68,2.05a60.78,60.78,0,0,1,5.15,4.52c1.61,1.62,3.07,3.39,4.56,5,1.31,1.81,2.6,3.59,3.84,5.32,1.07,1.83,2.09,3.6,3.07,5.28s1.59,3.41,2.31,4.92a32.32,32.32,0,0,1,1.74,4.24c.44,1.29.83,2.41,1.14,3.34l1,2.89s-.46-1-1.25-2.8c-.4-.88-.88-2-1.43-3.2a34.1,34.1,0,0,0-2.1-4c-.85-1.43-1.64-3.05-2.71-4.61s-2.25-3.17-3.44-4.85l-4.15-4.76c-1.58-1.46-3.12-3-4.77-4.39a56.56,56.56,0,0,0-5.21-3.79L269,453.86l-2.72-1.4a57.57,57.57,0,0,0-5.27-2.33c-1.75-.55-3.35-1.19-4.91-1.53a46.2,46.2,0,0,0-7.46-1.37c-.91-.08-1.6-.13-2-.13l-.74,0Z" />
    <path class="purple2" d="M241.36,466.06l.7.29c.43.17,1.24.61,2.17,1.09a20.89,20.89,0,0,1,3.12,1.9A34.22,34.22,0,0,1,251,472l4,3.48c1.41,1.24,2.62,2.8,4,4.27a43.21,43.21,0,0,1,4,4.74c1.23,1.71,2.47,3.45,3.71,5.2l1.86,2.59c.54.91,1,1.85,1.55,2.76,1,1.82,2,3.62,3,5.36s2,3.36,2.69,5l2,4.71c2.47,5.8,4.11,9.67,4.11,9.67l-5-9.21-2.43-4.44c-.85-1.58-2-3.07-3.12-4.7L268,496.54c-.59-.84-1.15-1.7-1.77-2.53l-2-2.34-4-4.63a40,40,0,0,0-4.24-4.12c-1.45-1.25-2.72-2.61-4.13-3.61l-4-2.82a28.48,28.48,0,0,0-3.48-2,15.37,15.37,0,0,0-2.66-1.3c-.74-.29-1.2-.54-1.71-.68l-.72-.22Z" />
    <path class="purple2" d="M75.31,174.22s-3.82-2.7-10.12-6.24c-3.15-1.73-6.85-3.74-10.94-5.61s-8.53-3.74-13-5.4c-2.29-.72-4.55-1.56-6.84-2.19s-4.52-1.33-6.74-1.72-4.35-1-6.41-1.2-4-.61-5.82-.68l-5-.24c-1.48-.05-2.76.09-3.82.11l-3.35.16,3.32-.44c1.06-.11,2.35-.36,3.83-.44l5-.17c1.84-.08,3.83.13,5.94.2s4.31.43,6.61.66,4.62.79,7,1.18,4.75,1.1,7.16,1.65c4.75,1.3,9.48,2.76,13.81,4.39s8.32,3.31,11.71,4.82c6.73,3.06,11.13,5.63,11.13,5.63Z" />
    <path class="purple2" d="M82.63,217c-.06,0-.83-.51-2.56-1.39s-4.23-2-7.36-3.18a100,100,0,0,0-11-3.39c-2-.57-4.18-1-6.36-1.42s-4.43-.72-6.67-1.1L42,205.82l-6.58-.35H29.21c-2,0-3.81.18-5.53.24-3.44.12-6.28.54-8.28.74l-3.14.35,3.1-.63c2-.38,4.78-1,8.21-1.47,1.72-.22,3.57-.58,5.55-.74l6.23-.55,6.7-.24,6.94.12c2.31.18,4.65.25,6.93.52s4.55.49,6.71.88a103,103,0,0,1,11.78,2.53c3.42.94,6.24,1.95,8.2,2.7s3.2,1.39,3.13,1.36Z" />
    <path class="purple2" d="M101.77,264.7s-4.21-1.95-11-4.24C87.36,259.3,83.36,258.1,79,257s-9-2.13-13.75-2.88c-2.37-.34-4.74-.77-7.09-1s-4.66-.49-6.91-.55-4.43-.22-6.49-.14-4,0-5.83.2l-4.92.42-3.77.59-3.29.53,3.23-.81,3.73-.91,4.91-.83c1.8-.37,3.77-.47,5.86-.7s4.29-.34,6.59-.42,4.65-.08,7.06,0,4.85.21,7.3.35c4.89.36,9.76,1,14.3,1.76s8.75,1.67,12.34,2.57,6.55,1.73,8.63,2.38l2.44.79.84.29Z" />
    <path class="purple2" d="M121.34,303.68l-.74-.34-2-.89c-1.79-.77-4.43-1.76-7.64-2.87s-7-2.22-11.16-3.12c-2.07-.51-4.22-.88-6.43-1.26s-4.45-.55-6.71-.85-4.52-.26-6.76-.29c-2.22.13-4.45.05-6.55.35a54.94,54.94,0,0,0-6.08.94c-1.88.51-3.74.8-5.34,1.41l-4.39,1.65c-1.29.54-2.31,1.22-3.22,1.67l-2.79,1.52,2.65-1.76c.86-.53,1.84-1.31,3.09-2l4.3-2.07c1.58-.77,3.43-1.23,5.33-1.92A54.75,54.75,0,0,1,73,292.36c2.15-.49,4.43-.62,6.73-1,2.3-.17,4.66-.26,7-.32,2.35.1,4.73,0,7,.27s4.59.37,6.77.71c4.4.55,8.43,1.44,11.89,2.21s6.3,1.66,8.28,2.31l2.34.78.81.29Z" />
    <path class="purple2" d="M127.5,345.18l-.69-.42c-.38-.24-1.12-.61-2-1.07a62,62,0,0,0-8-3.15c-1.75-.46-3.61-1.1-5.66-1.47a61,61,0,0,0-6.48-1.13c-2.26-.41-4.64-.42-7.05-.66-2.41,0-4.87-.11-7.34,0s-4.94.21-7.35.54-4.82.57-7.1,1l-6.6,1.35-5.82,1.61a47.89,47.89,0,0,0-4.89,1.51l-3.73,1.32-3.25,1.16,3.15-1.42,3.62-1.62A48.14,48.14,0,0,1,63,340.78l5.74-2.1,6.56-1.91c2.29-.64,4.71-1.06,7.15-1.62s5-.77,7.51-1.17,5.09-.42,7.61-.58c2.52,0,5-.14,7.42.08a68.15,68.15,0,0,1,7,.64c2.22.23,4.28.74,6.2,1.08a67.26,67.26,0,0,1,9.14,2.76c1.1.46,1.93.79,2.58,1.12l.89.44Z" />
    <path class="purple2" d="M136.48,378.32c-.06,0-1-.33-3-.81s-4.75-1.11-8.19-1.64a116.58,116.58,0,0,0-11.83-1.23c-2.18,0-4.45-.2-6.74-.1s-4.63.09-7,.33-4.66.43-6.94.78-4.51.78-6.66,1.23A60.76,60.76,0,0,0,80,378.47l-2.84.82-2.58,1c-1.65.64-3.2,1.16-4.52,1.73l-3.38,1.6-3,1.39,2.83-1.64,3.25-1.89c1.27-.69,2.78-1.35,4.39-2.13l2.53-1.2L79.54,377c1.92-.73,3.94-1.56,6.11-2.15s4.38-1.37,6.7-1.84,4.66-1.07,7-1.42,4.78-.7,7.14-.95,4.71-.33,7-.5a120.7,120.7,0,0,1,12.43.22c3.65.24,6.68.65,8.81,1,1.07.17,1.92.32,2.53.45l.87.18Z" />
    <path class="purple2" d="M135.71,416.75s-1.12-.36-2.86-.74-4.43-.88-7.63-1.44c-1.62-.22-3.39-.35-5.26-.55a48.31,48.31,0,0,0-5.9-.39l-6.36-.14c-2.17-.06-4.36.22-6.57.31l-6.6.42-6.32,1-5.94.92c-1.91.26-3.62.86-5.25,1.23L66.2,420.12l10.55-3.76c1.6-.51,3.28-1.28,5.16-1.71l5.89-1.48,6.33-1.58,6.66-1c2.24-.3,4.47-.79,6.69-.93l6.56-.46a51.41,51.41,0,0,1,6.15-.16c2,0,3.83,0,5.55.07,3.44.28,6.29.44,8.39.81s3.16.52,3.16.52Z" />
    <path class="purple2" d="M123.31,451l-.6-.2c-.32-.11-.91-.27-1.67-.47a46.65,46.65,0,0,0-6.53-1.12,53.92,53.92,0,0,0-9.53-.14,47.11,47.11,0,0,0-5.4.63c-1.85.2-3.66.77-5.52,1.15s-3.63,1.11-5.42,1.66l-5.12,2.09L78.9,457c-1.49.74-2.75,1.67-4,2.41a37,37,0,0,0-3.3,2.2l-2.44,1.85L67,465.07l2-1.83,2.25-2.1a37,37,0,0,1,3.08-2.56c1.17-.87,2.36-2,3.78-2.87l4.47-2.91c1.63-.88,3.33-1.78,5-2.71,1.8-.75,3.6-1.62,5.47-2.32s3.76-1.4,5.69-1.82a49.47,49.47,0,0,1,5.67-1.27,58.16,58.16,0,0,1,10.34-.94,52.52,52.52,0,0,1,7.46.48c.91.14,1.63.26,2.18.38l.75.17Z" />
    <path class="purple2" d="M126.17,478.13c-.08,0-.91,0-2.71.25a63.58,63.58,0,0,0-7.41,1.4,78.76,78.76,0,0,0-10.29,3.27c-1.87.69-3.74,1.52-5.64,2.41s-3.76,1.93-5.67,2.9-3.65,2.2-5.47,3.28l-5.09,3.55c-1.6,1.22-3.1,2.47-4.55,3.63s-2.68,2.4-3.9,3.47-2.33,2.08-3.2,3.07l-2.35,2.49-2,2.17,1.84-2.35c.58-.75,1.29-1.67,2.11-2.71s1.84-2.15,2.92-3.38,2.22-2.61,3.6-3.88,2.75-2.72,4.27-4.11l4.85-4.11c1.74-1.28,3.47-2.66,5.3-3.9s3.65-2.51,5.58-3.54,3.75-2.17,5.64-3.08a83.83,83.83,0,0,1,10.54-4.47,72.65,72.65,0,0,1,7.89-2.28c1.94-.43,3.27-.6,3.19-.59Z" />
    <path class="purple2" d="M217.82,503.53l1.44,2.86a22.12,22.12,0,0,1,1.55,3.54,30.68,30.68,0,0,1,1.54,5.05,31.58,31.58,0,0,1,.83,6,40.15,40.15,0,0,1-.1,6.65,64.25,64.25,0,0,1-1.1,6.88c-.49,2.3-1.08,4.59-1.75,6.85-1.32,4.51-2.57,8.89-3.44,13.14a62,62,0,0,0-1.47,11.69,24.28,24.28,0,0,0,.3,4.68,13.89,13.89,0,0,0,.94,3.49,7.35,7.35,0,0,0,1.17,2c.33.43.5.67.5.67l-.56-.63a7.51,7.51,0,0,1-1.37-1.94A14.34,14.34,0,0,1,215,571a25.71,25.71,0,0,1-.73-4.78,63.92,63.92,0,0,1,.45-12.05c.49-4.36,1.4-9,2.3-13.57.47-2.26.83-4.52,1.1-6.74a58.67,58.67,0,0,0,.47-6.47,35.87,35.87,0,0,0-.43-5.91,26.21,26.21,0,0,0-1.17-5.07,24.88,24.88,0,0,0-1.57-3.93,16.94,16.94,0,0,0-1.66-3.05l-1.68-2.72Z" />
    <path class="purple2" d="M234.34,483.91l2,2.08c.33.33.7.7,1.09,1.11l1.28,1.63a25,25,0,0,1,2.72,4,34.65,34.65,0,0,1,2.5,4.87,59.26,59.26,0,0,1,2.12,5.6c1.24,3.93,2.22,8.13,3.14,12.29s1.85,8.27,2.94,12.06c.63,1.86,1.13,3.71,1.86,5.36a35.26,35.26,0,0,0,2.13,4.61,25.24,25.24,0,0,0,2.24,3.67,16.1,16.1,0,0,0,2,2.65l1.94,2.19-2.14-2a16.61,16.61,0,0,1-2.3-2.47,25.79,25.79,0,0,1-2.64-3.52,35.82,35.82,0,0,1-2.63-4.5c-.92-1.63-1.6-3.46-2.43-5.31-1.49-3.75-2.84-7.83-4.14-11.88s-2.67-8-4.17-11.59c-.83-1.73-1.54-3.46-2.44-4.94a29.51,29.51,0,0,0-2.61-4,20.26,20.26,0,0,0-2.48-3l-1-1.15-1.17-1-2.25-1.87Z" />
    <path class="purple2" d="M138.63,501l-.81.09a7.38,7.38,0,0,0-1.86.32,8.73,8.73,0,0,0-2.4,1,13.28,13.28,0,0,0-3,2.4,27.39,27.39,0,0,0-5.45,9,43.12,43.12,0,0,0-1.81,5.93c-.22,1-.43,2.08-.56,3.13l-.52,3.39c-.19,1.13-.29,2.22-.56,3.36s-.61,2.28-.91,3.41a18.86,18.86,0,0,1-1.21,3.22,16.36,16.36,0,0,1-1.49,3c-.6.92-1.18,1.83-1.75,2.72l-2,2.3a50.06,50.06,0,0,1-4,3.83c-2.64,2.15-4.87,3.88-6.47,5L101.35,555l2.31-2.07c1.49-1.3,3.55-3.23,6-5.58a48.61,48.61,0,0,0,3.54-4.05l1.7-2.35,1.39-2.66a14.08,14.08,0,0,0,1.11-2.88,15.63,15.63,0,0,0,.84-3c.18-1,.36-2.08.55-3.13s.16-2.23.25-3.34l.2-3.33c0-1.18.17-2.35.3-3.5a46.39,46.39,0,0,1,1.41-6.69,32.11,32.11,0,0,1,5.52-11.17,19.1,19.1,0,0,1,3.86-3.74,14.93,14.93,0,0,1,4-2.08,13.91,13.91,0,0,1,2.58-.69l.8-.16Z" />
    <path class="purple2" d="M160.05,514.79l-2.16,2-.55.49c-.1.16-.21.33-.33.5l-.77,1.1a16.54,16.54,0,0,0-1.72,3.23,35.89,35.89,0,0,0-1.4,4.47,48.4,48.4,0,0,0-.81,5.38,56.75,56.75,0,0,0-.32,5.93c-.05,2,.06,4.14.11,6.23.43,8.38,1.53,16.81,2.07,23.17.27,3.17.38,5.83.4,7.69s-.09,2.92-.09,2.92-.07-1.05-.19-2.9-.56-4.46-1.13-7.58c-1.14-6.24-3-14.5-4.31-23-.27-2.13-.58-4.26-.73-6.39a58.37,58.37,0,0,1-.27-6.3,48.86,48.86,0,0,1,.33-6,40.6,40.6,0,0,1,1.14-5.45c.67-1.68,1-3.2,1.93-4.6a18.31,18.31,0,0,1,2.23-3.33l2-2.15Z" />
    <path class="purple2" d="M194.53,513.44s-.11,1.27-.29,3.49c-.09,1.11-.2,2.46-.33,4s-.21,3.28-.51,5.24-.53,4-.82,6.25a64,64,0,0,1-1.25,6.91c-.55,2.37-.91,4.86-1.66,7.3s-1.5,4.91-2.26,7.39a70.69,70.69,0,0,1-2.67,7.2c-1,2.32-2,4.6-3,6.81s-1.83,4.31-2.67,6.32-1.56,3.95-2.06,5.78a39.15,39.15,0,0,0-1.33,5,24.89,24.89,0,0,0-.64,3.94c-.11,2.22-.18,3.5-.18,3.5s0-1.28-.1-3.52a25.07,25.07,0,0,1,.32-4,41.77,41.77,0,0,1,.94-5.17c.36-1.91,1.05-3.87,1.62-6s1.38-4.31,2.17-6.57l2.37-6.94a67,67,0,0,0,2-7.24c.54-2.45,1.09-4.91,1.62-7.32s.68-4.85,1-7.17a63.13,63.13,0,0,0,.67-6.72c.11-2.15.21-4.17.3-6s.08-3.63.09-5.18,0-2.91,0-4v-3.51Z" />
  </g>
</svg>
