<svg xmlns="http://www.w3.org/2000/svg" viewBox="0 0 384.87 384.86">
  <defs>
    <style>.red1{isolation:isolate;}.red2{fill:#ff534d;}.red3{opacity:0.7;}.red3,.red5{mix-blend-mode:screen;}.red4{opacity:0.5;mix-blend-mode:multiply;}.red5{opacity:0.4;}</style>
  </defs>
  <g class="red1">
    <path class="red2" d="M334.7,192.43A142.3,142.3,0,1,1,192.45,50.15,141.53,141.53,0,0,1,334.7,192.43Z" />
    <path class="red2" d="M182.32,67h20.22a214.52,214.52,0,0,1,0-53.47H182.32A214.52,214.52,0,0,1,182.32,67Z" />
    <path class="red2" d="M213.38,8.38c0,4.63-9.38,8.37-20.95,8.37S171.49,13,171.49,8.38,180.87,0,192.43,0,213.38,3.75,213.38,8.38Z" />
    <path class="red2" d="M206.72,35.74c0,3.15-6.39,5.71-14.29,5.71s-14.28-2.56-14.28-5.71S184.54,30,192.43,30,206.72,32.58,206.72,35.74Z" />
    <path class="red2" d="M121,88.89l17.51-10.11a214.62,214.62,0,0,1-26.73-46.31L94.25,42.59A214.32,214.32,0,0,1,121,88.89Z" />
    <path class="red2" d="M118.55,22.56c2.32,4-3.93,12-14,17.73s-20,7.23-22.33,3.22,3.93-11.95,14-17.73S116.23,18.56,118.55,22.56Z" />
    <path class="red2" d="M126.46,49.58c1.58,2.74-2.68,8.15-9.51,12.1s-13.66,4.93-15.24,2.19,2.69-8.14,9.52-12.09S124.88,46.85,126.46,49.58Z" />
    <path class="red2" d="M78.78,138.49,88.89,121a214.59,214.59,0,0,1-46.3-26.74L32.48,111.75A214.83,214.83,0,0,1,78.78,138.49Z" />
    <path class="red2" d="M43.51,82.27c4,2.31,2.57,12.31-3.22,22.33s-13.72,16.26-17.72,14S20,106.23,25.78,96.22,39.51,80,43.51,82.27Z" />
    <path class="red2" d="M63.88,101.71c2.73,1.58,1.75,8.4-2.2,15.23s-9.36,11.1-12.09,9.52-1.75-8.4,2.19-15.23S61.14,100.13,63.88,101.71Z" />
    <path class="red2" d="M67,202.54V182.32a214.52,214.52,0,0,1-53.47,0v20.22A214.44,214.44,0,0,1,67,202.54Z" />
    <path class="red2" d="M8.39,171.48c4.62,0,8.37,9.38,8.37,21S13,213.38,8.38,213.38,0,204,0,192.43,3.75,171.49,8.39,171.48Z" />
    <path class="red2" d="M35.75,178.14c3.15,0,5.71,6.4,5.7,14.29s-2.55,14.29-5.71,14.29S30,200.32,30,192.43,32.59,178.14,35.75,178.14Z" />
    <path class="red2" d="M88.89,263.89,78.78,246.38a214.55,214.55,0,0,1-46.3,26.73l10.11,17.51A214.55,214.55,0,0,1,88.89,263.89Z" />
    <path class="red2" d="M22.57,266.31c4-2.31,11.94,3.94,17.73,14s7.22,20,3.21,22.33-11.94-3.94-17.73-14S18.56,268.63,22.57,266.31Z" />
    <path class="red2" d="M49.59,258.4c2.73-1.57,8.15,2.69,12.09,9.52s4.93,13.65,2.2,15.23-8.15-2.68-12.09-9.52S46.86,260,49.59,258.4Z" />
    <path class="red2" d="M138.49,306.09,121,296a214.79,214.79,0,0,1-26.73,46.3l17.51,10.11A214.32,214.32,0,0,1,138.49,306.09Z" />
    <path class="red2" d="M82.27,341.35c2.31-4,12.31-2.56,22.33,3.22s16.27,13.72,14,17.73-12.31,2.56-22.33-3.21S80,345.37,82.27,341.35Z" />
    <path class="red2" d="M101.71,321c1.58-2.72,8.4-1.74,15.24,2.2s11.09,9.36,9.51,12.1-8.39,1.75-15.23-2.2S100.14,323.72,101.71,321Z" />
    <path class="red2" d="M202.55,317.84H182.32a214.44,214.44,0,0,1,0,53.46h20.21A213.88,213.88,0,0,1,202.55,317.84Z" />
    <path class="red2" d="M171.49,376.48c0-4.62,9.38-8.38,20.94-8.37s20.95,3.75,20.95,8.37-9.38,8.38-20.95,8.38S171.49,381.11,171.49,376.48Z" />
    <path class="red2" d="M178.14,349.12c0-3.15,6.4-5.71,14.29-5.71s14.3,2.56,14.3,5.71-6.4,5.72-14.3,5.72S178.15,352.28,178.14,349.12Z" />
    <path class="red2" d="M263.9,296l-17.52,10.11a214.77,214.77,0,0,1,26.74,46.3l17.5-10.12A214,214,0,0,1,263.9,296Z" />
    <path class="red2" d="M266.32,362.3c-2.32-4,3.93-11.95,13.95-17.73s20-7.23,22.33-3.22-3.93,11.95-14,17.73S268.64,366.31,266.32,362.3Z" />
    <path class="red2" d="M258.4,335.28c-1.57-2.74,2.69-8.15,9.52-12.1s13.66-4.93,15.24-2.19-2.69,8.15-9.52,12.09S260,338,258.4,335.28Z" />
    <path class="red2" d="M306.1,246.37,296,263.89a214.14,214.14,0,0,1,46.3,26.73l10.11-17.51A213.87,213.87,0,0,1,306.1,246.37Z" />
    <path class="red2" d="M341.35,302.6c-4-2.31-2.56-12.31,3.22-22.33s13.73-16.27,17.73-14,2.57,12.32-3.21,22.34S345.37,304.91,341.35,302.6Z" />
    <path class="red2" d="M321,283.15c-2.73-1.58-1.75-8.39,2.2-15.23s9.36-11.1,12.09-9.52,1.75,8.41-2.19,15.24S323.73,284.73,321,283.15Z" />
    <path class="red2" d="M317.84,182.32v20.22a214.44,214.44,0,0,1,53.46,0V182.32A214.44,214.44,0,0,1,317.84,182.32Z" />
    <path class="red2" d="M376.49,213.38c-4.63,0-8.38-9.38-8.38-20.95s3.75-21,8.38-21,8.37,9.39,8.38,21S381.12,213.37,376.49,213.38Z" />
    <path class="red2" d="M349.13,206.72c-3.16,0-5.72-6.4-5.72-14.29s2.57-14.29,5.72-14.29,5.72,6.4,5.71,14.29S352.29,206.72,349.13,206.72Z" />
    <path class="red2" d="M296,121l10.1,17.52a214.83,214.83,0,0,1,46.3-26.74l-10.11-17.5A214.68,214.68,0,0,1,296,121Z" />
    <path class="red2" d="M362.3,118.55c-4,2.31-11.94-3.94-17.73-14s-7.22-20-3.22-22.34,11.95,3.94,17.74,13.95S366.31,116.23,362.3,118.55Z" />
    <path class="red2" d="M335.28,126.46c-2.73,1.58-8.15-2.68-12.09-9.52s-4.94-13.66-2.2-15.24,8.16,2.69,12.1,9.53S338,124.88,335.28,126.46Z" />
    <path class="red2" d="M246.38,78.77l17.51,10.12a214.73,214.73,0,0,1,26.73-46.3l-17.5-10.12A214.77,214.77,0,0,1,246.38,78.77Z" />
    <path class="red2" d="M302.6,43.51c-2.31,4-12.31,2.57-22.33-3.22S264,26.57,266.32,22.56s12.31-2.56,22.33,3.21S304.91,39.5,302.6,43.51Z" />
    <path class="red2" d="M283.16,63.88c-1.58,2.73-8.4,1.75-15.24-2.2s-11.1-9.36-9.52-12.1,8.41-1.75,15.24,2.2S284.74,61.14,283.16,63.88Z" />
    <g class="red3">
      <path class="red2" d="M334.7,192.43a141.53,141.53,0,0,1-22.78,77.23A142.3,142.3,0,0,1,115.22,72.9,142.3,142.3,0,0,1,334.7,192.43Z" />
    </g>
    <g class="red4">
      <path class="red2" d="M97.4,147.49a11.75,11.75,0,1,1-11.75-11.75A11.75,11.75,0,0,1,97.4,147.49Z" />
    </g>
    <g class="red4">
      <path class="red2" d="M172.07,294.49a13.32,13.32,0,1,1-13.32-13.32A13.31,13.31,0,0,1,172.07,294.49Z" />
    </g>
    <g class="red5">
      <path class="red2" d="M138.13,106.76a13.32,13.32,0,1,1-13.32-13.32A13.31,13.31,0,0,1,138.13,106.76Z" />
    </g>
    <g class="red4">
      <path class="red2" d="M131.86,106.76a7.05,7.05,0,1,1-7.05-7.05A7,7,0,0,1,131.86,106.76Z" />
    </g>
    <g class="red3">
      <circle class="red2" cx="185.39" cy="96.84" r="19.06" />
    </g>
    <g class="red5">
      <path class="red2" d="M267.11,106.24A12.27,12.27,0,1,1,254.84,94,12.27,12.27,0,0,1,267.11,106.24Z" />
    </g>
    <g class="red5">
      <path class="red2" d="M260.85,106.24a6,6,0,1,1-6-6A6,6,0,0,1,260.85,106.24Z" />
    </g>
    <g class="red5">
      <path class="red2" d="M264.77,166.55a6.53,6.53,0,1,1-6.53-6.53A6.53,6.53,0,0,1,264.77,166.55Z" />
    </g>
    <g class="red5">
      <path class="red2" d="M175.47,160a21.15,21.15,0,1,1-21.15-21.15A21.15,21.15,0,0,1,175.47,160Z" />
    </g>
    <g class="red4">
      <path class="red2" d="M300.79,230.78A29.77,29.77,0,1,1,271,201,29.76,29.76,0,0,1,300.79,230.78Z" />
    </g>
    <g class="red4">
      <path class="red2" d="M217.24,250.89c-1.5,4.05-9,5-16.68,2.15s-12.72-8.47-11.22-12.53,9-5,16.68-2.15S218.75,246.83,217.24,250.89Z" />
    </g>
    <g class="red4">
      <circle class="red2" cx="218.55" cy="291.88" r="17.23" />
    </g>
    <g class="red4">
      <path class="red2" d="M209.93,168.9a10.18,10.18,0,1,1-10.18-10.18A10.18,10.18,0,0,1,209.93,168.9Z" />
    </g>
    <g class="red4">
      <path class="red2" d="M84.6,188.09c-14.37,4.87-18,40.76,8.19,71.75,21.62,25.56,50.1,22.13,47.59,9.86s-17.86-17.56-23.21-37.9C111.24,209.24,107.71,180.26,84.6,188.09Z" />
    </g>
    <g class="red4">
      <path class="red2" d="M296.15,216.29c19.47-6.6,24.42-55.22-11.09-97.2-29.29-34.63-67.87-30-64.47-13.35s24.2,23.79,31.44,51.33C260.07,187.64,264.84,226.9,296.15,216.29Z" />
    </g>
    <g class="red5">
      <path class="red2" d="M94.15,209.66c-7.63,2.58-9.56,21.61,4.34,38,11.46,13.55,26.56,11.73,25.23,5.22s-9.47-9.31-12.31-20.09C108.27,220.87,106.4,205.5,94.15,209.66Z" />
    </g>
  </g>
</svg>
